<svg width="386" height="179" viewBox="0 0 386 179" fill="none" xmlns="http://www.w3.org/2000/svg">
<path d="M0 12C0 5.37259 5.37258 0 12 0H374C380.627 0 386 5.37258 386 12V178.75H0V12Z" fill="#F9FAFB"/>
<path d="M39.82 67.375L43.676 55.855H45.66L49.516 67.375H48.036L44.428 56.687H44.876L41.3 67.375H39.82ZM41.676 64.679V63.343H47.66V64.679H41.676ZM50.9481 67.375V55.855H55.5001C55.6121 55.855 55.7455 55.8603 55.9001 55.871C56.0548 55.8763 56.2041 55.8923 56.3481 55.919C56.9721 56.015 57.4948 56.2283 57.9161 56.559C58.3428 56.8897 58.6628 57.3083 58.8761 57.815C59.0895 58.3163 59.1961 58.8737 59.1961 59.487C59.1961 60.095 59.0868 60.6523 58.8681 61.159C58.6548 61.6603 58.3348 62.079 57.9081 62.415C57.4868 62.7457 56.9668 62.959 56.3481 63.055C56.2041 63.0763 56.0548 63.0923 55.9001 63.103C55.7455 63.1137 55.6121 63.119 55.5001 63.119H52.3721V67.375H50.9481ZM52.3721 61.767H55.4521C55.5535 61.767 55.6681 61.7617 55.7961 61.751C55.9295 61.7403 56.0548 61.7217 56.1721 61.695C56.5401 61.6097 56.8388 61.455 57.0681 61.231C57.3028 61.0017 57.4735 60.735 57.5801 60.431C57.6868 60.1217 57.7401 59.807 57.7401 59.487C57.7401 59.167 57.6868 58.855 57.5801 58.551C57.4735 58.2417 57.3028 57.9723 57.0681 57.743C56.8388 57.5137 56.5401 57.359 56.1721 57.279C56.0548 57.247 55.9295 57.2283 55.7961 57.223C55.6681 57.2123 55.5535 57.207 55.4521 57.207H52.3721V61.767ZM60.9519 67.375V55.855H62.3759V67.375H60.9519ZM67.9794 67.375V55.855H69.4034V61.263L74.4434 55.855H76.2354L71.0034 61.447L76.6434 67.375H74.8034L69.4034 61.743V67.375H67.9794ZM80.864 67.615C80.016 67.615 79.2747 67.4283 78.64 67.055C78.0107 66.6763 77.52 66.151 77.168 65.479C76.816 64.8017 76.64 64.0123 76.64 63.111C76.64 62.167 76.8133 61.351 77.16 60.663C77.5067 59.9697 77.9893 59.4363 78.608 59.063C79.232 58.6843 79.9627 58.495 80.8 58.495C81.6693 58.495 82.408 58.695 83.016 59.095C83.6293 59.495 84.088 60.0657 84.392 60.807C84.7013 61.5483 84.8347 62.431 84.792 63.455H83.352V62.943C83.336 61.8817 83.12 61.0897 82.704 60.567C82.288 60.039 81.6693 59.775 80.848 59.775C79.968 59.775 79.2987 60.0577 78.84 60.623C78.3813 61.1883 78.152 61.999 78.152 63.055C78.152 64.0737 78.3813 64.863 78.84 65.423C79.2987 65.983 79.952 66.263 80.8 66.263C81.3707 66.263 81.8667 66.1323 82.288 65.871C82.7093 65.6097 83.04 65.2337 83.28 64.743L84.648 65.215C84.312 65.9777 83.8053 66.5697 83.128 66.991C82.456 67.407 81.7013 67.615 80.864 67.615ZM77.672 63.455V62.311H84.056V63.455H77.672ZM87.6169 71.215L89.2889 66.671L89.3129 68.015L85.5369 58.735H87.0329L89.9929 66.199H89.4809L92.2569 58.735H93.7049L89.0009 71.215H87.6169Z" fill="#5A5F73"/>
<rect x="40" y="83.875" width="306" height="45" rx="5.5" stroke="#E3E3E3"/>
<g filter="url(#filter0_f_596_10188)">
<path d="M64.204 112.615C63.3347 112.615 62.5987 112.42 61.996 112.031C61.3933 111.642 60.9347 111.106 60.62 110.423C60.3107 109.735 60.1507 108.946 60.14 108.055C60.1507 107.148 60.316 106.354 60.636 105.671C60.956 104.983 61.4173 104.45 62.02 104.071C62.6227 103.687 63.3533 103.495 64.212 103.495C65.0867 103.495 65.8467 103.708 66.492 104.135C67.1427 104.562 67.588 105.146 67.828 105.887L66.676 106.255C66.4733 105.738 66.1507 105.338 65.708 105.055C65.2707 104.767 64.7693 104.623 64.204 104.623C63.5693 104.623 63.044 104.77 62.628 105.063C62.212 105.351 61.9027 105.754 61.7 106.271C61.4973 106.788 61.3933 107.383 61.388 108.055C61.3987 109.09 61.6387 109.922 62.108 110.551C62.5773 111.175 63.276 111.487 64.204 111.487C64.7907 111.487 65.2893 111.354 65.7 111.087C66.116 110.815 66.4307 110.42 66.644 109.903L67.828 110.255C67.508 111.023 67.0387 111.61 66.42 112.015C65.8013 112.415 65.0627 112.615 64.204 112.615ZM73.3594 112.615C72.5647 112.615 71.8927 112.415 71.3434 112.015C70.794 111.61 70.378 111.063 70.0954 110.375C69.8127 109.682 69.6714 108.906 69.6714 108.047C69.6714 107.172 69.8127 106.394 70.0954 105.711C70.3834 105.023 70.8047 104.482 71.3594 104.087C71.914 103.692 72.5967 103.495 73.4074 103.495C74.1967 103.495 74.874 103.695 75.4394 104.095C76.0047 104.495 76.4367 105.039 76.7354 105.727C77.0394 106.415 77.1914 107.188 77.1914 108.047C77.1914 108.911 77.0394 109.687 76.7354 110.375C76.4314 111.063 75.994 111.61 75.4234 112.015C74.8527 112.415 74.1647 112.615 73.3594 112.615ZM69.4714 116.215V103.735H70.5274V110.239H70.6554V116.215H69.4714ZM73.2394 111.519C73.842 111.519 74.3434 111.367 74.7434 111.063C75.1434 110.759 75.442 110.346 75.6394 109.823C75.842 109.295 75.9434 108.703 75.9434 108.047C75.9434 107.396 75.8447 106.81 75.6474 106.287C75.45 105.764 75.1487 105.351 74.7434 105.047C74.3434 104.743 73.834 104.591 73.2154 104.591C72.6127 104.591 72.1114 104.738 71.7114 105.031C71.3167 105.324 71.0207 105.732 70.8234 106.255C70.626 106.772 70.5274 107.37 70.5274 108.047C70.5274 108.714 70.626 109.311 70.8234 109.839C71.0207 110.362 71.3194 110.772 71.7194 111.071C72.1194 111.37 72.626 111.519 73.2394 111.519ZM77.8281 114.079V113.071H88.3881V114.079H77.8281ZM89.6706 112.375V100.615H90.8466V112.375H89.6706ZM93.405 102.095V100.775H94.581V102.095H93.405ZM93.405 112.375V103.735H94.581V112.375H93.405ZM99.3154 112.375L96.1794 103.735H97.3714L99.9234 110.839L102.459 103.735H103.667L100.531 112.375H99.3154ZM108.448 112.615C107.605 112.615 106.875 112.428 106.256 112.055C105.643 111.682 105.165 111.156 104.824 110.479C104.483 109.802 104.312 109.007 104.312 108.095C104.312 107.151 104.48 106.335 104.816 105.647C105.152 104.959 105.624 104.428 106.232 104.055C106.845 103.682 107.568 103.495 108.4 103.495C109.253 103.495 109.981 103.692 110.584 104.087C111.187 104.476 111.643 105.036 111.952 105.767C112.261 106.498 112.403 107.37 112.376 108.383H111.176V107.967C111.155 106.847 110.912 106.002 110.448 105.431C109.989 104.86 109.317 104.575 108.432 104.575C107.504 104.575 106.792 104.876 106.296 105.479C105.805 106.082 105.56 106.94 105.56 108.055C105.56 109.143 105.805 109.988 106.296 110.591C106.792 111.188 107.493 111.487 108.4 111.487C109.019 111.487 109.557 111.346 110.016 111.063C110.48 110.775 110.845 110.362 111.112 109.823L112.208 110.247C111.867 110.999 111.363 111.583 110.696 111.999C110.035 112.41 109.285 112.615 108.448 112.615ZM105.144 108.383V107.399H111.744V108.383H105.144ZM113.031 114.079V113.071H123.591V114.079H113.031ZM127.938 112.607C126.924 112.607 126.09 112.388 125.434 111.951C124.783 111.514 124.383 110.906 124.234 110.127L125.434 109.927C125.562 110.418 125.852 110.81 126.306 111.103C126.764 111.391 127.33 111.535 128.002 111.535C128.658 111.535 129.175 111.399 129.554 111.127C129.932 110.85 130.122 110.474 130.122 109.999C130.122 109.732 130.06 109.516 129.938 109.351C129.82 109.18 129.578 109.023 129.21 108.879C128.842 108.735 128.292 108.564 127.562 108.367C126.778 108.154 126.164 107.94 125.722 107.727C125.279 107.514 124.964 107.268 124.778 106.991C124.591 106.708 124.498 106.364 124.498 105.959C124.498 105.468 124.636 105.039 124.914 104.671C125.191 104.298 125.575 104.01 126.066 103.807C126.556 103.599 127.127 103.495 127.778 103.495C128.428 103.495 129.01 103.602 129.522 103.815C130.039 104.023 130.455 104.316 130.77 104.695C131.084 105.074 131.271 105.514 131.33 106.015L130.13 106.231C130.05 105.724 129.796 105.324 129.37 105.031C128.948 104.732 128.412 104.578 127.762 104.567C127.148 104.551 126.65 104.668 126.266 104.919C125.882 105.164 125.69 105.492 125.69 105.903C125.69 106.132 125.759 106.33 125.898 106.495C126.036 106.655 126.287 106.807 126.65 106.951C127.018 107.095 127.54 107.252 128.218 107.423C129.012 107.626 129.636 107.839 130.09 108.063C130.543 108.287 130.866 108.551 131.058 108.855C131.25 109.159 131.346 109.535 131.346 109.983C131.346 110.799 131.042 111.442 130.434 111.911C129.831 112.375 128.999 112.607 127.938 112.607ZM133.112 112.375L133.12 100.855H134.304V107.895L138.16 103.735H139.728L135.68 108.055L140.256 112.375H138.544L134.304 108.215V112.375H133.112ZM139.938 114.079V113.071H150.498V114.079H139.938ZM155.412 100.623C156.137 100.623 156.793 100.799 157.38 101.151C157.972 101.498 158.441 101.972 158.788 102.575C159.135 103.172 159.308 103.844 159.308 104.591V108.591C159.308 109.359 159.135 110.047 158.788 110.655C158.441 111.263 157.967 111.743 157.364 112.095C156.767 112.442 156.087 112.615 155.324 112.615C154.668 112.615 154.06 112.471 153.5 112.183C152.945 111.89 152.487 111.487 152.124 110.975L153.02 110.231C153.265 110.61 153.591 110.914 153.996 111.143C154.407 111.372 154.849 111.487 155.324 111.487C155.868 111.487 156.348 111.359 156.764 111.103C157.185 110.842 157.516 110.5 157.756 110.079C158.001 109.652 158.124 109.191 158.124 108.695V106.183L158.412 106.519C158.081 107.047 157.641 107.474 157.092 107.799C156.548 108.124 155.951 108.287 155.3 108.287C154.591 108.287 153.948 108.116 153.372 107.775C152.801 107.434 152.348 106.975 152.012 106.399C151.681 105.823 151.516 105.18 151.516 104.471C151.516 103.762 151.692 103.116 152.044 102.535C152.396 101.948 152.868 101.484 153.46 101.143C154.052 100.796 154.703 100.623 155.412 100.623ZM155.412 101.759C154.911 101.759 154.455 101.882 154.044 102.127C153.633 102.367 153.305 102.692 153.06 103.103C152.82 103.514 152.7 103.97 152.7 104.471C152.7 104.972 152.82 105.428 153.06 105.839C153.3 106.25 153.625 106.578 154.036 106.823C154.447 107.063 154.903 107.183 155.404 107.183C155.905 107.183 156.361 107.063 156.772 106.823C157.188 106.578 157.516 106.25 157.756 105.839C158.001 105.428 158.124 104.972 158.124 104.471C158.124 103.975 158.001 103.522 157.756 103.111C157.516 102.7 157.191 102.372 156.78 102.127C156.369 101.882 155.913 101.759 155.412 101.759ZM162.398 112.375V103.095C162.398 102.871 162.409 102.65 162.43 102.431C162.457 102.212 162.507 102.004 162.582 101.807C162.657 101.604 162.774 101.418 162.934 101.247C163.11 101.055 163.302 100.916 163.51 100.831C163.718 100.74 163.934 100.682 164.158 100.655C164.387 100.628 164.611 100.615 164.83 100.615H165.934V101.607H164.91C164.462 101.607 164.126 101.716 163.902 101.935C163.683 102.154 163.574 102.498 163.574 102.967V112.375H162.398ZM160.902 104.743V103.735H165.934V104.743H160.902ZM172.286 112.375V110.143H166.894V109.023L170.75 100.855H172.07L168.214 109.023H172.286V105.663H173.47V109.023H174.726V110.143H173.47V112.375H172.286ZM177.267 112.375L181.507 101.999H176.171V100.855H182.763V101.999L178.531 112.375H177.267ZM188.562 112.615C187.768 112.615 187.096 112.415 186.547 112.015C185.997 111.61 185.581 111.063 185.299 110.375C185.016 109.682 184.875 108.906 184.875 108.047C184.875 107.172 185.016 106.394 185.299 105.711C185.587 105.023 186.008 104.482 186.563 104.087C187.117 103.692 187.8 103.495 188.611 103.495C189.4 103.495 190.077 103.695 190.643 104.095C191.208 104.495 191.64 105.039 191.939 105.727C192.243 106.415 192.395 107.188 192.395 108.047C192.395 108.911 192.243 109.687 191.939 110.375C191.635 111.063 191.197 111.61 190.627 112.015C190.056 112.415 189.368 112.615 188.562 112.615ZM184.675 112.375V100.855H185.859V105.871H185.731V112.375H184.675ZM188.443 111.519C189.045 111.519 189.547 111.367 189.947 111.063C190.347 110.759 190.645 110.346 190.843 109.823C191.045 109.295 191.147 108.703 191.147 108.047C191.147 107.396 191.048 106.81 190.851 106.287C190.653 105.764 190.352 105.351 189.947 105.047C189.547 104.743 189.037 104.591 188.419 104.591C187.816 104.591 187.315 104.738 186.915 105.031C186.52 105.324 186.224 105.732 186.027 106.255C185.829 106.772 185.731 107.37 185.731 108.047C185.731 108.714 185.829 109.311 186.027 109.839C186.224 110.362 186.523 110.772 186.923 111.071C187.323 111.37 187.829 111.519 188.443 111.519ZM196.159 112.375V102.167L193.991 103.471V102.151L196.159 100.855H197.351V112.375H196.159ZM204.042 112.615C203.199 112.615 202.468 112.428 201.85 112.055C201.236 111.682 200.759 111.156 200.418 110.479C200.076 109.802 199.906 109.007 199.906 108.095C199.906 107.151 200.074 106.335 200.41 105.647C200.746 104.959 201.218 104.428 201.826 104.055C202.439 103.682 203.162 103.495 203.994 103.495C204.847 103.495 205.575 103.692 206.178 104.087C206.78 104.476 207.236 105.036 207.546 105.767C207.855 106.498 207.996 107.37 207.97 108.383H206.77V107.967C206.748 106.847 206.506 106.002 206.042 105.431C205.583 104.86 204.911 104.575 204.026 104.575C203.098 104.575 202.386 104.876 201.89 105.479C201.399 106.082 201.154 106.94 201.154 108.055C201.154 109.143 201.399 109.988 201.89 110.591C202.386 111.188 203.087 111.487 203.994 111.487C204.612 111.487 205.151 111.346 205.61 111.063C206.074 110.775 206.439 110.362 206.706 109.823L207.802 110.247C207.46 110.999 206.956 111.583 206.29 111.999C205.628 112.41 204.879 112.615 204.042 112.615ZM200.738 108.383V107.399H207.338V108.383H200.738ZM209.657 112.375V111.007H211.025V112.375H209.657ZM213.719 112.375V111.007H215.087V112.375H213.719ZM217.782 112.375V111.007H219.15V112.375H217.782Z" fill="#5A5F73"/>
</g>
<path d="M327.5 109.041L325.85 106.777" stroke="#111528" stroke-width="1.5" stroke-linecap="round" stroke-linejoin="round"/>
<path d="M322.5 110.041V107.708" stroke="#111528" stroke-width="1.5" stroke-linecap="round" stroke-linejoin="round"/>
<path d="M317.5 109.041L319.146 106.783" stroke="#111528" stroke-width="1.5" stroke-linecap="round" stroke-linejoin="round"/>
<path d="M316.5 103.709C318.9 109.042 326.1 109.042 328.5 103.709" stroke="#111528" stroke-width="1.5" stroke-linecap="round" stroke-linejoin="round"/>
<defs>
<filter id="filter0_f_596_10188" x="50.1406" y="90.6152" width="179.01" height="35.5996" filterUnits="userSpaceOnUse" color-interpolation-filters="sRGB">
<feFlood flood-opacity="0" result="BackgroundImageFix"/>
<feBlend mode="normal" in="SourceGraphic" in2="BackgroundImageFix" result="shape"/>
<feGaussianBlur stdDeviation="5" result="effect1_foregroundBlur_596_10188"/>
</filter>
</defs>
</svg>
