<svg width="24" height="24" viewBox="0 0 24 24" fill="none" xmlns="http://www.w3.org/2000/svg">
<path d="M10.2472 1.92773H9.58378C9.12912 1.92773 8.69308 2.10835 8.37159 2.42984C8.0501 2.75133 7.86949 3.18736 7.86949 3.64202V8.39059C7.86968 8.96542 7.72535 9.53107 7.44975 10.0355C7.17416 10.54 6.77616 10.967 6.29235 11.2774L4.91406 12.1603L6.29063 13.0432C6.77476 13.3534 7.1731 13.7803 7.449 14.2848C7.7249 14.7893 7.8695 15.355 7.86949 15.93V20.6786C7.86949 21.1332 8.0501 21.5693 8.37159 21.8908C8.69308 22.2123 9.12912 22.3929 9.58378 22.3929H10.2455M14.3426 1.92773H15.0043C15.459 1.92773 15.895 2.10835 16.2165 2.42984C16.538 2.75133 16.7186 3.18736 16.7186 3.64202V8.39059C16.7184 8.96542 16.8628 9.53107 17.1384 10.0355C17.414 10.54 17.812 10.967 18.2958 11.2774L19.6741 12.1603L18.2958 13.0432C17.812 13.3536 17.414 13.7806 17.1384 14.2851C16.8628 14.7895 16.7184 15.3552 16.7186 15.93V20.6786C16.7186 21.1332 16.538 21.5693 16.2165 21.8908C15.895 22.2123 15.459 22.3929 15.0043 22.3929H14.3426" stroke="#39C65D" stroke-width="1.71429" stroke-linecap="round" stroke-linejoin="round"/>
</svg>
