<svg width="303" height="355" viewBox="0 0 303 355" fill="none" xmlns="http://www.w3.org/2000/svg">
<path d="M17.4941 332.201C17.4941 320.051 27.3439 310.201 39.4941 310.201H198.494C210.644 310.201 220.494 320.051 220.494 332.201C220.494 344.351 210.644 354.201 198.494 354.201H39.4941C27.3439 354.201 17.4941 344.351 17.4941 332.201Z" fill="white"/>
<path d="M34.8485 338.201V326.681H35.9285L40.4565 336.369L44.9605 326.681H46.0565V338.193H44.9365V329.305L40.8325 338.201H40.0725L35.9765 329.305V338.201H34.8485ZM51.6056 338.417C51.0883 338.417 50.635 338.337 50.2456 338.177C49.8616 338.017 49.5336 337.801 49.2616 337.529C48.995 337.257 48.779 336.948 48.6136 336.601C48.4483 336.249 48.3283 335.879 48.2536 335.489C48.179 335.095 48.1416 334.703 48.1416 334.313V329.561H49.3256V333.969C49.3256 334.444 49.371 334.884 49.4616 335.289C49.5523 335.695 49.6963 336.049 49.8936 336.353C50.0963 336.652 50.355 336.884 50.6696 337.049C50.9896 337.215 51.3763 337.297 51.8296 337.297C52.2456 337.297 52.611 337.225 52.9256 337.081C53.2456 336.937 53.5123 336.732 53.7256 336.465C53.9443 336.193 54.1096 335.865 54.2216 335.481C54.3336 335.092 54.3896 334.655 54.3896 334.169L55.2216 334.353C55.2216 335.239 55.067 335.983 54.7576 336.585C54.4483 337.188 54.0216 337.644 53.4776 337.953C52.9336 338.263 52.3096 338.417 51.6056 338.417ZM54.5096 338.201V336.073H54.3896V329.561H55.5656V338.201H54.5096ZM57.9616 338.201V326.441H59.1376V338.201H57.9616ZM66.24 338.201C65.7547 338.303 65.2747 338.343 64.8 338.321C64.3307 338.3 63.9093 338.199 63.536 338.017C63.168 337.836 62.888 337.553 62.696 337.169C62.5413 336.849 62.456 336.527 62.44 336.201C62.4293 335.871 62.424 335.495 62.424 335.073V327.161H63.592V335.025C63.592 335.388 63.5947 335.692 63.6 335.937C63.6107 336.177 63.6667 336.391 63.768 336.577C63.96 336.935 64.264 337.148 64.68 337.217C65.1013 337.287 65.6213 337.271 66.24 337.169V338.201ZM60.576 330.569V329.561H66.24V330.569H60.576ZM68.1023 327.921V326.601H69.2783V327.921H68.1023ZM68.1023 338.201V329.561H69.2783V338.201H68.1023ZM71.5166 333.665V332.657H76.3166V333.665H71.5166ZM81.9794 338.441C81.1101 338.441 80.3741 338.247 79.7714 337.857C79.1687 337.468 78.7101 336.932 78.3954 336.249C78.0861 335.561 77.9261 334.772 77.9154 333.881C77.9261 332.975 78.0914 332.18 78.4114 331.497C78.7314 330.809 79.1927 330.276 79.7954 329.897C80.3981 329.513 81.1287 329.321 81.9874 329.321C82.8621 329.321 83.6221 329.535 84.2674 329.961C84.9181 330.388 85.3634 330.972 85.6034 331.713L84.4514 332.081C84.2487 331.564 83.9261 331.164 83.4834 330.881C83.0461 330.593 82.5447 330.449 81.9794 330.449C81.3447 330.449 80.8194 330.596 80.4034 330.889C79.9874 331.177 79.6781 331.58 79.4754 332.097C79.2727 332.615 79.1687 333.209 79.1634 333.881C79.1741 334.916 79.4141 335.748 79.8834 336.377C80.3527 337.001 81.0514 337.313 81.9794 337.313C82.5661 337.313 83.0647 337.18 83.4754 336.913C83.8914 336.641 84.2061 336.247 84.4194 335.729L85.6034 336.081C85.2834 336.849 84.8141 337.436 84.1954 337.841C83.5767 338.241 82.8381 338.441 81.9794 338.441ZM90.5588 338.417C90.0414 338.417 89.5881 338.337 89.1988 338.177C88.8148 338.017 88.4868 337.801 88.2148 337.529C87.9481 337.257 87.7321 336.948 87.5668 336.601C87.4014 336.249 87.2814 335.879 87.2068 335.489C87.1321 335.095 87.0948 334.703 87.0948 334.313V329.561H88.2788V333.969C88.2788 334.444 88.3241 334.884 88.4148 335.289C88.5054 335.695 88.6494 336.049 88.8468 336.353C89.0494 336.652 89.3081 336.884 89.6228 337.049C89.9428 337.215 90.3294 337.297 90.7828 337.297C91.1988 337.297 91.5641 337.225 91.8788 337.081C92.1988 336.937 92.4654 336.732 92.6788 336.465C92.8974 336.193 93.0628 335.865 93.1748 335.481C93.2868 335.092 93.3428 334.655 93.3428 334.169L94.1748 334.353C94.1748 335.239 94.0201 335.983 93.7108 336.585C93.4014 337.188 92.9748 337.644 92.4308 337.953C91.8868 338.263 91.2628 338.417 90.5588 338.417ZM93.4628 338.201V336.073H93.3428V329.561H94.5188V338.201H93.4628ZM96.7548 338.201V329.561H97.8108V331.641L97.6028 331.369C97.6988 331.113 97.8241 330.879 97.9788 330.665C98.1334 330.447 98.3014 330.268 98.4828 330.129C98.7068 329.932 98.9681 329.783 99.2668 329.681C99.5654 329.575 99.8668 329.513 100.171 329.497C100.475 329.476 100.752 329.497 101.003 329.561V330.665C100.688 330.585 100.344 330.567 99.9708 330.609C99.5974 330.652 99.2534 330.801 98.9388 331.057C98.6508 331.281 98.4348 331.551 98.2908 331.865C98.1468 332.175 98.0508 332.505 98.0028 332.857C97.9548 333.204 97.9308 333.548 97.9308 333.889V338.201H96.7548ZM102.52 338.201V329.561H103.576V331.641L103.368 331.369C103.464 331.113 103.59 330.879 103.744 330.665C103.899 330.447 104.067 330.268 104.248 330.129C104.472 329.932 104.734 329.783 105.032 329.681C105.331 329.575 105.632 329.513 105.936 329.497C106.24 329.476 106.518 329.497 106.768 329.561V330.665C106.454 330.585 106.11 330.567 105.736 330.609C105.363 330.652 105.019 330.801 104.704 331.057C104.416 331.281 104.2 331.551 104.056 331.865C103.912 332.175 103.816 332.505 103.768 332.857C103.72 333.204 103.696 333.548 103.696 333.889V338.201H102.52ZM111.786 338.441C110.943 338.441 110.212 338.255 109.594 337.881C108.98 337.508 108.503 336.983 108.162 336.305C107.82 335.628 107.65 334.833 107.65 333.921C107.65 332.977 107.818 332.161 108.154 331.473C108.49 330.785 108.962 330.255 109.57 329.881C110.183 329.508 110.906 329.321 111.738 329.321C112.591 329.321 113.319 329.519 113.922 329.913C114.524 330.303 114.98 330.863 115.29 331.593C115.599 332.324 115.74 333.196 115.714 334.209H114.514V333.793C114.492 332.673 114.25 331.828 113.786 331.257C113.327 330.687 112.655 330.401 111.77 330.401C110.842 330.401 110.13 330.703 109.634 331.305C109.143 331.908 108.898 332.767 108.898 333.881C108.898 334.969 109.143 335.815 109.634 336.417C110.13 337.015 110.831 337.313 111.738 337.313C112.356 337.313 112.895 337.172 113.354 336.889C113.818 336.601 114.183 336.188 114.45 335.649L115.546 336.073C115.204 336.825 114.7 337.409 114.034 337.825C113.372 338.236 112.623 338.441 111.786 338.441ZM108.482 334.209V333.225H115.082V334.209H108.482ZM123.495 338.201V333.793C123.495 333.313 123.449 332.873 123.359 332.473C123.268 332.068 123.121 331.716 122.919 331.417C122.721 331.113 122.463 330.879 122.143 330.713C121.828 330.548 121.444 330.465 120.991 330.465C120.575 330.465 120.207 330.537 119.887 330.681C119.572 330.825 119.305 331.033 119.087 331.305C118.873 331.572 118.711 331.897 118.599 332.281C118.487 332.665 118.431 333.103 118.431 333.593L117.599 333.409C117.599 332.524 117.753 331.78 118.063 331.177C118.372 330.575 118.799 330.119 119.343 329.809C119.887 329.5 120.511 329.345 121.215 329.345C121.732 329.345 122.183 329.425 122.567 329.585C122.956 329.745 123.284 329.961 123.551 330.233C123.823 330.505 124.041 330.817 124.207 331.169C124.372 331.516 124.492 331.887 124.567 332.281C124.641 332.671 124.679 333.06 124.679 333.449V338.201H123.495ZM117.247 338.201V329.561H118.311V331.689H118.431V338.201H117.247ZM130.292 338.441C129.423 338.441 128.687 338.247 128.084 337.857C127.481 337.468 127.023 336.932 126.708 336.249C126.399 335.561 126.239 334.772 126.228 333.881C126.239 332.975 126.404 332.18 126.724 331.497C127.044 330.809 127.505 330.276 128.108 329.897C128.711 329.513 129.441 329.321 130.3 329.321C131.175 329.321 131.935 329.535 132.58 329.961C133.231 330.388 133.676 330.972 133.916 331.713L132.764 332.081C132.561 331.564 132.239 331.164 131.796 330.881C131.359 330.593 130.857 330.449 130.292 330.449C129.657 330.449 129.132 330.596 128.716 330.889C128.3 331.177 127.991 331.58 127.788 332.097C127.585 332.615 127.481 333.209 127.476 333.881C127.487 334.916 127.727 335.748 128.196 336.377C128.665 337.001 129.364 337.313 130.292 337.313C130.879 337.313 131.377 337.18 131.788 336.913C132.204 336.641 132.519 336.247 132.732 335.729L133.916 336.081C133.596 336.849 133.127 337.436 132.508 337.841C131.889 338.241 131.151 338.441 130.292 338.441ZM136.487 342.041L138.159 337.505L138.183 338.849L134.399 329.561H135.647L138.751 337.329H138.239L141.103 329.561H142.303L137.663 342.041H136.487ZM150.119 338.433C149.106 338.433 148.271 338.215 147.615 337.777C146.965 337.34 146.565 336.732 146.415 335.953L147.615 335.753C147.743 336.244 148.034 336.636 148.487 336.929C148.946 337.217 149.511 337.361 150.183 337.361C150.839 337.361 151.357 337.225 151.735 336.953C152.114 336.676 152.303 336.3 152.303 335.825C152.303 335.559 152.242 335.343 152.119 335.177C152.002 335.007 151.759 334.849 151.391 334.705C151.023 334.561 150.474 334.391 149.743 334.193C148.959 333.98 148.346 333.767 147.903 333.553C147.461 333.34 147.146 333.095 146.959 332.817C146.773 332.535 146.679 332.191 146.679 331.785C146.679 331.295 146.818 330.865 147.095 330.497C147.373 330.124 147.757 329.836 148.247 329.633C148.738 329.425 149.309 329.321 149.959 329.321C150.61 329.321 151.191 329.428 151.703 329.641C152.221 329.849 152.637 330.143 152.951 330.521C153.266 330.9 153.453 331.34 153.511 331.841L152.311 332.057C152.231 331.551 151.978 331.151 151.551 330.857C151.13 330.559 150.594 330.404 149.943 330.393C149.33 330.377 148.831 330.495 148.447 330.745C148.063 330.991 147.871 331.319 147.871 331.729C147.871 331.959 147.941 332.156 148.079 332.321C148.218 332.481 148.469 332.633 148.831 332.777C149.199 332.921 149.722 333.079 150.399 333.249C151.194 333.452 151.818 333.665 152.271 333.889C152.725 334.113 153.047 334.377 153.239 334.681C153.431 334.985 153.527 335.361 153.527 335.809C153.527 336.625 153.223 337.268 152.615 337.737C152.013 338.201 151.181 338.433 150.119 338.433ZM158.606 338.417C158.088 338.417 157.635 338.337 157.246 338.177C156.862 338.017 156.534 337.801 156.262 337.529C155.995 337.257 155.779 336.948 155.614 336.601C155.448 336.249 155.328 335.879 155.254 335.489C155.179 335.095 155.142 334.703 155.142 334.313V329.561H156.326V333.969C156.326 334.444 156.371 334.884 156.462 335.289C156.552 335.695 156.696 336.049 156.894 336.353C157.096 336.652 157.355 336.884 157.67 337.049C157.99 337.215 158.376 337.297 158.83 337.297C159.246 337.297 159.611 337.225 159.926 337.081C160.246 336.937 160.512 336.732 160.726 336.465C160.944 336.193 161.11 335.865 161.222 335.481C161.334 335.092 161.39 334.655 161.39 334.169L162.222 334.353C162.222 335.239 162.067 335.983 161.758 336.585C161.448 337.188 161.022 337.644 160.478 337.953C159.934 338.263 159.31 338.417 158.606 338.417ZM161.51 338.201V336.073H161.39V329.561H162.566V338.201H161.51ZM168.682 338.441C167.887 338.441 167.215 338.241 166.666 337.841C166.116 337.436 165.7 336.889 165.418 336.201C165.135 335.508 164.994 334.732 164.994 333.873C164.994 332.999 165.135 332.22 165.418 331.537C165.706 330.849 166.127 330.308 166.682 329.913C167.236 329.519 167.919 329.321 168.73 329.321C169.519 329.321 170.196 329.521 170.762 329.921C171.327 330.321 171.759 330.865 172.058 331.553C172.362 332.241 172.514 333.015 172.514 333.873C172.514 334.737 172.362 335.513 172.058 336.201C171.754 336.889 171.316 337.436 170.746 337.841C170.175 338.241 169.487 338.441 168.682 338.441ZM164.794 342.041V329.561H165.85V336.065H165.978V342.041H164.794ZM168.562 337.345C169.164 337.345 169.666 337.193 170.066 336.889C170.466 336.585 170.764 336.172 170.962 335.649C171.164 335.121 171.266 334.529 171.266 333.873C171.266 333.223 171.167 332.636 170.97 332.113C170.772 331.591 170.471 331.177 170.066 330.873C169.666 330.569 169.156 330.417 168.538 330.417C167.935 330.417 167.434 330.564 167.034 330.857C166.639 331.151 166.343 331.559 166.146 332.081C165.948 332.599 165.85 333.196 165.85 333.873C165.85 334.54 165.948 335.137 166.146 335.665C166.343 336.188 166.642 336.599 167.042 336.897C167.442 337.196 167.948 337.345 168.562 337.345ZM178.15 338.441C177.356 338.441 176.684 338.241 176.134 337.841C175.585 337.436 175.169 336.889 174.886 336.201C174.604 335.508 174.462 334.732 174.462 333.873C174.462 332.999 174.604 332.22 174.886 331.537C175.174 330.849 175.596 330.308 176.15 329.913C176.705 329.519 177.388 329.321 178.198 329.321C178.988 329.321 179.665 329.521 180.23 329.921C180.796 330.321 181.228 330.865 181.526 331.553C181.83 332.241 181.982 333.015 181.982 333.873C181.982 334.737 181.83 335.513 181.526 336.201C181.222 336.889 180.785 337.436 180.214 337.841C179.644 338.241 178.956 338.441 178.15 338.441ZM174.262 342.041V329.561H175.318V336.065H175.446V342.041H174.262ZM178.03 337.345C178.633 337.345 179.134 337.193 179.534 336.889C179.934 336.585 180.233 336.172 180.43 335.649C180.633 335.121 180.734 334.529 180.734 333.873C180.734 333.223 180.636 332.636 180.438 332.113C180.241 331.591 179.94 331.177 179.534 330.873C179.134 330.569 178.625 330.417 178.006 330.417C177.404 330.417 176.902 330.564 176.502 330.857C176.108 331.151 175.812 331.559 175.614 332.081C175.417 332.599 175.318 333.196 175.318 333.873C175.318 334.54 175.417 335.137 175.614 335.665C175.812 336.188 176.11 336.599 176.51 336.897C176.91 337.196 177.417 337.345 178.03 337.345ZM187.347 338.441C186.488 338.441 185.755 338.247 185.147 337.857C184.539 337.468 184.072 336.929 183.747 336.241C183.422 335.553 183.259 334.764 183.259 333.873C183.259 332.967 183.424 332.172 183.755 331.489C184.086 330.807 184.555 330.276 185.163 329.897C185.776 329.513 186.504 329.321 187.347 329.321C188.211 329.321 188.947 329.516 189.555 329.905C190.168 330.289 190.635 330.825 190.955 331.513C191.28 332.196 191.443 332.983 191.443 333.873C191.443 334.78 191.28 335.577 190.955 336.265C190.63 336.948 190.16 337.481 189.547 337.865C188.934 338.249 188.2 338.441 187.347 338.441ZM187.347 337.313C188.307 337.313 189.022 336.996 189.491 336.361C189.96 335.721 190.195 334.892 190.195 333.873C190.195 332.828 189.958 331.996 189.483 331.377C189.014 330.759 188.302 330.449 187.347 330.449C186.702 330.449 186.168 330.596 185.747 330.889C185.331 331.177 185.019 331.58 184.811 332.097C184.608 332.609 184.507 333.201 184.507 333.873C184.507 334.913 184.747 335.748 185.227 336.377C185.707 337.001 186.414 337.313 187.347 337.313ZM193.208 338.201V329.561H194.264V331.641L194.056 331.369C194.152 331.113 194.277 330.879 194.432 330.665C194.587 330.447 194.755 330.268 194.936 330.129C195.16 329.932 195.421 329.783 195.72 329.681C196.019 329.575 196.32 329.513 196.624 329.497C196.928 329.476 197.205 329.497 197.456 329.561V330.665C197.141 330.585 196.797 330.567 196.424 330.609C196.051 330.652 195.707 330.801 195.392 331.057C195.104 331.281 194.888 331.551 194.744 331.865C194.6 332.175 194.504 332.505 194.456 332.857C194.408 333.204 194.384 333.548 194.384 333.889V338.201H193.208ZM203.678 338.201C203.192 338.303 202.712 338.343 202.238 338.321C201.768 338.3 201.347 338.199 200.974 338.017C200.606 337.836 200.326 337.553 200.134 337.169C199.979 336.849 199.894 336.527 199.878 336.201C199.867 335.871 199.862 335.495 199.862 335.073V327.161H201.03V335.025C201.03 335.388 201.032 335.692 201.038 335.937C201.048 336.177 201.104 336.391 201.206 336.577C201.398 336.935 201.702 337.148 202.118 337.217C202.539 337.287 203.059 337.271 203.678 337.169V338.201ZM198.014 330.569V329.561H203.678V330.569H198.014Z" fill="#6B7280"/>
<path d="M158.033 22C158.033 9.84974 167.883 0 180.033 0H234.033C246.183 0 256.033 9.84974 256.033 22C256.033 34.1503 246.183 44 234.033 44H180.033C167.883 44 158.033 34.1503 158.033 22Z" fill="white"/>
<path d="M175.493 28V16.48H176.669V26.872H182.141V28H175.493ZM187.113 28.24C186.254 28.24 185.521 28.0453 184.913 27.656C184.305 27.2667 183.838 26.728 183.513 26.04C183.187 25.352 183.025 24.5627 183.025 23.672C183.025 22.7653 183.19 21.9707 183.521 21.288C183.851 20.6053 184.321 20.0747 184.929 19.696C185.542 19.312 186.27 19.12 187.113 19.12C187.977 19.12 188.713 19.3147 189.321 19.704C189.934 20.088 190.401 20.624 190.721 21.312C191.046 21.9947 191.209 22.7813 191.209 23.672C191.209 24.5787 191.046 25.376 190.721 26.064C190.395 26.7467 189.926 27.28 189.313 27.664C188.699 28.048 187.966 28.24 187.113 28.24ZM187.113 27.112C188.073 27.112 188.787 26.7947 189.257 26.16C189.726 25.52 189.961 24.6907 189.961 23.672C189.961 22.6267 189.723 21.7947 189.249 21.176C188.779 20.5573 188.067 20.248 187.113 20.248C186.467 20.248 185.934 20.3947 185.513 20.688C185.097 20.976 184.785 21.3787 184.577 21.896C184.374 22.408 184.273 23 184.273 23.672C184.273 24.712 184.513 25.5467 184.993 26.176C185.473 26.8 186.179 27.112 187.113 27.112ZM194.501 28L191.861 19.352L193.037 19.36L195.085 26.072L197.141 19.36H198.213L200.269 26.072L202.333 19.36H203.501L200.861 28H199.837L197.677 21.12L195.525 28H194.501ZM211.729 28.24C210.86 28.24 210.124 28.0453 209.521 27.656C208.919 27.2667 208.46 26.7307 208.145 26.048C207.836 25.36 207.676 24.5707 207.665 23.68C207.676 22.7733 207.841 21.9787 208.161 21.296C208.481 20.608 208.943 20.0747 209.545 19.696C210.148 19.312 210.879 19.12 211.737 19.12C212.612 19.12 213.372 19.3333 214.017 19.76C214.668 20.1867 215.113 20.7707 215.353 21.512L214.201 21.88C213.999 21.3627 213.676 20.9627 213.233 20.68C212.796 20.392 212.295 20.248 211.729 20.248C211.095 20.248 210.569 20.3947 210.153 20.688C209.737 20.976 209.428 21.3787 209.225 21.896C209.023 22.4133 208.919 23.008 208.913 23.68C208.924 24.7147 209.164 25.5467 209.633 26.176C210.103 26.8 210.801 27.112 211.729 27.112C212.316 27.112 212.815 26.9787 213.225 26.712C213.641 26.44 213.956 26.0453 214.169 25.528L215.353 25.88C215.033 26.648 214.564 27.2347 213.945 27.64C213.327 28.04 212.588 28.24 211.729 28.24ZM220.378 28.24C219.52 28.24 218.786 28.0453 218.178 27.656C217.57 27.2667 217.104 26.728 216.778 26.04C216.453 25.352 216.29 24.5627 216.29 23.672C216.29 22.7653 216.456 21.9707 216.786 21.288C217.117 20.6053 217.586 20.0747 218.194 19.696C218.808 19.312 219.536 19.12 220.378 19.12C221.242 19.12 221.978 19.3147 222.586 19.704C223.2 20.088 223.666 20.624 223.986 21.312C224.312 21.9947 224.474 22.7813 224.474 23.672C224.474 24.5787 224.312 25.376 223.986 26.064C223.661 26.7467 223.192 27.28 222.578 27.664C221.965 28.048 221.232 28.24 220.378 28.24ZM220.378 27.112C221.338 27.112 222.053 26.7947 222.522 26.16C222.992 25.52 223.226 24.6907 223.226 23.672C223.226 22.6267 222.989 21.7947 222.514 21.176C222.045 20.5573 221.333 20.248 220.378 20.248C219.733 20.248 219.2 20.3947 218.778 20.688C218.362 20.976 218.05 21.3787 217.842 21.896C217.64 22.408 217.538 23 217.538 23.672C217.538 24.712 217.778 25.5467 218.258 26.176C218.738 26.8 219.445 27.112 220.378 27.112ZM229.385 28.232C228.372 28.232 227.537 28.0133 226.881 27.576C226.23 27.1387 225.83 26.5307 225.681 25.752L226.881 25.552C227.009 26.0427 227.3 26.4347 227.753 26.728C228.212 27.016 228.777 27.16 229.449 27.16C230.105 27.16 230.622 27.024 231.001 26.752C231.38 26.4747 231.569 26.0987 231.569 25.624C231.569 25.3573 231.508 25.1413 231.385 24.976C231.268 24.8053 231.025 24.648 230.657 24.504C230.289 24.36 229.74 24.1893 229.009 23.992C228.225 23.7787 227.612 23.5653 227.169 23.352C226.726 23.1387 226.412 22.8933 226.225 22.616C226.038 22.3333 225.945 21.9893 225.945 21.584C225.945 21.0933 226.084 20.664 226.361 20.296C226.638 19.9227 227.022 19.6347 227.513 19.432C228.004 19.224 228.574 19.12 229.225 19.12C229.876 19.12 230.457 19.2267 230.969 19.44C231.486 19.648 231.902 19.9413 232.217 20.32C232.532 20.6987 232.718 21.1387 232.777 21.64L231.577 21.856C231.497 21.3493 231.244 20.9493 230.817 20.656C230.396 20.3573 229.86 20.2027 229.209 20.192C228.596 20.176 228.097 20.2933 227.713 20.544C227.329 20.7893 227.137 21.1173 227.137 21.528C227.137 21.7573 227.206 21.9547 227.345 22.12C227.484 22.28 227.734 22.432 228.097 22.576C228.465 22.72 228.988 22.8773 229.665 23.048C230.46 23.2507 231.084 23.464 231.537 23.688C231.99 23.912 232.313 24.176 232.505 24.48C232.697 24.784 232.793 25.16 232.793 25.608C232.793 26.424 232.489 27.0667 231.881 27.536C231.278 28 230.446 28.232 229.385 28.232ZM239.271 28C238.786 28.1013 238.306 28.1413 237.831 28.12C237.362 28.0987 236.941 27.9973 236.567 27.816C236.199 27.6347 235.919 27.352 235.727 26.968C235.573 26.648 235.487 26.3253 235.471 26C235.461 25.6693 235.455 25.2933 235.455 24.872V16.96H236.623V24.824C236.623 25.1867 236.626 25.4907 236.631 25.736C236.642 25.976 236.698 26.1893 236.799 26.376C236.991 26.7333 237.295 26.9467 237.711 27.016C238.133 27.0853 238.653 27.0693 239.271 26.968V28ZM233.607 20.368V19.36H239.271V20.368H233.607Z" fill="#6B7280"/>
<path d="M152.839 126.111C151.359 114.052 159.935 103.075 171.994 101.594L275.219 88.9199C287.279 87.4391 298.255 96.015 299.736 108.075C301.217 120.134 292.641 131.111 280.581 132.592L177.356 145.266C165.297 146.747 154.32 138.171 152.839 126.111Z" fill="white"/>
<path d="M170.718 129.96L169.314 118.526L175.881 117.72L176.024 118.887L170.625 119.55L171.112 123.52L175.559 122.974L175.701 124.134L171.255 124.68L171.885 129.817L170.718 129.96ZM180.893 128.953C180.247 129.032 179.691 128.982 179.223 128.803C178.76 128.624 178.396 128.354 178.132 127.994C177.867 127.634 177.707 127.227 177.651 126.772C177.594 126.306 177.638 125.897 177.783 125.546C177.933 125.19 178.156 124.885 178.453 124.634C178.755 124.382 179.114 124.174 179.529 124.01C179.95 123.851 180.418 123.7 180.932 123.556C181.451 123.406 181.958 123.271 182.454 123.151C182.954 123.025 183.391 122.91 183.765 122.805L183.384 123.11C183.296 122.261 183.054 121.654 182.66 121.288C182.266 120.923 181.643 120.793 180.791 120.897C180.203 120.969 179.722 121.163 179.347 121.478C178.977 121.792 178.745 122.245 178.651 122.836L177.475 122.642C177.576 121.851 177.898 121.207 178.438 120.71C178.979 120.214 179.724 119.908 180.671 119.792C181.455 119.695 182.137 119.762 182.719 119.991C183.305 120.215 183.746 120.591 184.042 121.119C184.178 121.354 184.281 121.624 184.351 121.927C184.42 122.23 184.474 122.541 184.513 122.858L185.168 128.186L184.127 128.314L183.863 126.162L184.181 126.252C183.98 127.024 183.596 127.64 183.03 128.102C182.463 128.564 181.751 128.847 180.893 128.953ZM180.904 127.928C181.45 127.861 181.914 127.704 182.298 127.458C182.681 127.213 182.977 126.905 183.184 126.536C183.39 126.161 183.504 125.755 183.526 125.317C183.555 125.034 183.553 124.728 183.518 124.399C183.482 124.065 183.454 123.816 183.434 123.652L183.907 123.827C183.517 123.929 183.092 124.035 182.632 124.145C182.178 124.254 181.73 124.371 181.289 124.495C180.853 124.619 180.461 124.75 180.112 124.89C179.877 124.988 179.654 125.115 179.442 125.27C179.229 125.42 179.061 125.607 178.938 125.832C178.821 126.056 178.781 126.321 178.819 126.628C178.849 126.877 178.94 127.11 179.09 127.328C179.245 127.546 179.47 127.714 179.764 127.834C180.064 127.953 180.444 127.984 180.904 127.928ZM190.463 127.77C189.457 127.893 188.602 127.778 187.898 127.424C187.199 127.069 186.728 126.514 186.484 125.76L187.651 125.415C187.838 125.886 188.174 126.24 188.66 126.476C189.15 126.706 189.729 126.78 190.396 126.698C191.047 126.618 191.544 126.42 191.887 126.104C192.229 125.782 192.371 125.386 192.313 124.915C192.28 124.65 192.193 124.443 192.051 124.294C191.914 124.139 191.654 124.013 191.271 123.914C190.888 123.816 190.322 123.714 189.573 123.607C188.769 123.491 188.134 123.354 187.669 123.196C187.203 123.038 186.861 122.833 186.642 122.581C186.422 122.323 186.288 121.993 186.238 121.59C186.179 121.103 186.264 120.66 186.494 120.261C186.724 119.857 187.07 119.524 187.533 119.263C187.994 118.997 188.548 118.824 189.194 118.745C189.84 118.666 190.43 118.701 190.964 118.85C191.503 118.994 191.951 119.234 192.31 119.572C192.668 119.909 192.907 120.323 193.026 120.813L191.862 121.174C191.72 120.681 191.42 120.315 190.961 120.076C190.506 119.831 189.956 119.742 189.309 119.811C188.698 119.87 188.217 120.047 187.867 120.343C187.515 120.633 187.365 120.982 187.415 121.39C187.443 121.617 187.536 121.805 187.693 121.952C187.851 122.094 188.118 122.214 188.495 122.313C188.878 122.411 189.416 122.503 190.109 122.59C190.923 122.695 191.568 122.83 192.045 122.997C192.522 123.164 192.875 123.387 193.103 123.665C193.33 123.944 193.471 124.305 193.526 124.75C193.625 125.56 193.402 126.235 192.856 126.775C192.314 127.309 191.516 127.64 190.463 127.77ZM200.247 126.335C199.778 126.494 199.306 126.592 198.833 126.629C198.364 126.665 197.934 126.616 197.541 126.481C197.154 126.346 196.841 126.1 196.604 125.742C196.411 125.443 196.287 125.134 196.232 124.813C196.181 124.486 196.13 124.113 196.079 123.695L195.114 115.842L196.274 115.7L197.232 123.505C197.276 123.865 197.316 124.166 197.351 124.409C197.391 124.646 197.472 124.851 197.596 125.024C197.83 125.355 198.158 125.53 198.579 125.548C199.006 125.565 199.52 125.486 200.122 125.31L200.247 126.335ZM193.695 119.45L193.573 118.449L199.194 117.759L199.317 118.759L193.695 119.45ZM208.344 125.574C207.339 125.698 206.483 125.582 205.779 125.228C205.08 124.873 204.609 124.319 204.366 123.564L205.532 123.219C205.719 123.691 206.056 124.044 206.541 124.28C207.032 124.51 207.61 124.584 208.277 124.502C208.928 124.422 209.425 124.224 209.768 123.908C210.11 123.587 210.252 123.191 210.194 122.719C210.162 122.455 210.075 122.248 209.933 122.099C209.795 121.944 209.535 121.817 209.153 121.719C208.77 121.621 208.204 121.518 207.454 121.412C206.65 121.295 206.016 121.158 205.55 121.001C205.085 120.843 204.743 120.638 204.524 120.385C204.304 120.127 204.169 119.797 204.12 119.395C204.06 118.908 204.145 118.465 204.376 118.066C204.606 117.661 204.952 117.329 205.414 117.068C205.876 116.802 206.429 116.629 207.075 116.55C207.721 116.47 208.311 116.505 208.845 116.655C209.384 116.798 209.833 117.038 210.191 117.376C210.549 117.713 210.788 118.127 210.908 118.618L209.743 118.979C209.602 118.485 209.302 118.119 208.842 117.88C208.388 117.635 207.837 117.547 207.19 117.616C206.579 117.674 206.098 117.852 205.748 118.147C205.397 118.437 205.246 118.786 205.296 119.194C205.324 119.422 205.417 119.609 205.575 119.756C205.732 119.898 205.999 120.019 206.377 120.117C206.759 120.215 207.297 120.308 207.991 120.395C208.804 120.499 209.449 120.635 209.927 120.802C210.404 120.969 210.756 121.192 210.984 121.47C211.211 121.748 211.353 122.11 211.407 122.554C211.507 123.364 211.283 124.039 210.737 124.579C210.195 125.113 209.398 125.445 208.344 125.574ZM217.118 124.505C216.281 124.608 215.533 124.511 214.874 124.216C214.22 123.92 213.682 123.457 213.26 122.827C212.839 122.196 212.573 121.428 212.462 120.523C212.347 119.586 212.414 118.755 212.664 118.032C212.913 117.308 213.317 116.723 213.875 116.279C214.438 115.834 215.133 115.56 215.959 115.459C216.806 115.355 217.552 115.462 218.198 115.78C218.844 116.093 219.365 116.593 219.761 117.281C220.157 117.968 220.404 118.817 220.501 119.826L219.31 119.972L219.259 119.559C219.101 118.45 218.757 117.641 218.227 117.131C217.703 116.62 217.001 116.419 216.122 116.527C215.201 116.64 214.531 117.026 214.112 117.684C213.699 118.342 213.56 119.225 213.696 120.331C213.828 121.411 214.175 122.22 214.735 122.758C215.3 123.291 216.033 123.502 216.933 123.391C217.547 123.316 218.064 123.11 218.485 122.773C218.91 122.431 219.223 121.976 219.422 121.409L220.561 121.696C220.314 122.484 219.885 123.125 219.274 123.62C218.668 124.108 217.949 124.403 217.118 124.505ZM213.323 120.707L213.203 119.73L219.753 118.926L219.873 119.903L213.323 120.707ZM227.418 122.998C226.949 123.158 226.477 123.256 226.004 123.293C225.535 123.329 225.105 123.28 224.712 123.145C224.325 123.01 224.012 122.764 223.775 122.406C223.582 122.107 223.458 121.797 223.403 121.476C223.352 121.15 223.301 120.777 223.25 120.359L222.285 112.506L223.445 112.363L224.403 120.169C224.447 120.529 224.487 120.83 224.522 121.073C224.562 121.31 224.643 121.515 224.767 121.688C225.001 122.019 225.329 122.194 225.75 122.212C226.177 122.229 226.691 122.15 227.292 121.974L227.418 122.998ZM220.866 116.114L220.744 115.113L226.365 114.423L226.488 115.423L220.866 116.114ZM232.826 122.334C232.356 122.494 231.885 122.592 231.411 122.629C230.943 122.665 230.512 122.616 230.119 122.481C229.732 122.346 229.42 122.1 229.182 121.742C228.99 121.443 228.866 121.133 228.81 120.812C228.759 120.486 228.708 120.113 228.657 119.695L227.693 111.842L228.852 111.699L229.81 119.505C229.855 119.865 229.894 120.166 229.929 120.409C229.969 120.646 230.051 120.851 230.174 121.024C230.408 121.355 230.736 121.53 231.157 121.548C231.584 121.565 232.098 121.486 232.7 121.31L232.826 122.334ZM226.274 115.45L226.151 114.449L231.773 113.759L231.896 114.759L226.274 115.45ZM234.679 122.107L233.246 110.435L234.413 110.291L235.846 121.964L234.679 122.107ZM241.885 121.464C241.048 121.567 240.3 121.47 239.641 121.175C238.987 120.879 238.449 120.416 238.028 119.786C237.606 119.155 237.34 118.387 237.229 117.482C237.114 116.545 237.181 115.714 237.431 114.99C237.68 114.267 238.084 113.682 238.642 113.238C239.205 112.793 239.9 112.519 240.726 112.418C241.573 112.314 242.319 112.421 242.966 112.739C243.611 113.052 244.132 113.552 244.528 114.24C244.924 114.927 245.171 115.776 245.268 116.785L244.077 116.931L244.026 116.518C243.868 115.409 243.525 114.6 242.994 114.09C242.47 113.579 241.768 113.378 240.889 113.486C239.968 113.599 239.298 113.985 238.879 114.643C238.466 115.301 238.327 116.184 238.463 117.29C238.595 118.37 238.942 119.179 239.502 119.717C240.067 120.25 240.8 120.461 241.7 120.35C242.314 120.275 242.831 120.069 243.252 119.732C243.677 119.39 243.99 118.935 244.189 118.368L245.328 118.655C245.081 119.443 244.652 120.084 244.041 120.579C243.435 121.067 242.716 121.362 241.885 121.464ZM238.09 117.666L237.97 116.689L244.521 115.885L244.641 116.862L238.09 117.666ZM257.511 119.303L256.828 113.673C256.746 113.011 256.498 112.515 256.081 112.185C255.669 111.848 255.18 111.715 254.613 111.785C254.29 111.824 253.984 111.937 253.695 112.123C253.407 112.309 253.182 112.578 253.021 112.931C252.865 113.283 252.82 113.724 252.885 114.254L252.17 114.14C252.079 113.528 252.132 112.976 252.329 112.484C252.532 111.992 252.843 111.591 253.262 111.282C253.685 110.966 254.183 110.774 254.754 110.703C255.617 110.597 256.341 110.78 256.925 111.251C257.509 111.716 257.857 112.402 257.968 113.307L258.678 119.16L257.511 119.303ZM247.276 120.56L246.223 111.985L247.271 111.856L247.53 113.968L247.657 113.952L248.451 120.416L247.276 120.56ZM252.405 119.93L251.732 114.379C251.648 113.696 251.399 113.181 250.986 112.834C250.577 112.482 250.077 112.342 249.484 112.414C248.891 112.487 248.437 112.75 248.121 113.202C247.806 113.649 247.689 114.209 247.772 114.881L247.026 114.586C246.958 114.036 247.028 113.527 247.234 113.061C247.439 112.59 247.752 112.203 248.171 111.899C248.59 111.589 249.085 111.399 249.657 111.329C250.202 111.262 250.701 111.319 251.153 111.5C251.61 111.68 251.988 111.978 252.286 112.393C252.584 112.808 252.772 113.333 252.85 113.968L253.557 119.789L252.405 119.93ZM264.357 118.705C263.52 118.807 262.772 118.711 262.113 118.416C261.459 118.12 260.921 117.657 260.499 117.026C260.078 116.396 259.812 115.628 259.701 114.722C259.586 113.786 259.653 112.955 259.903 112.231C260.152 111.507 260.556 110.923 261.114 110.479C261.677 110.033 262.372 109.76 263.198 109.659C264.045 109.555 264.791 109.662 265.437 109.98C266.083 110.293 266.604 110.793 267 111.481C267.396 112.168 267.643 113.017 267.74 114.026L266.549 114.172L266.498 113.759C266.34 112.65 265.996 111.84 265.466 111.331C264.941 110.82 264.24 110.619 263.361 110.727C262.44 110.84 261.77 111.226 261.351 111.884C260.938 112.542 260.799 113.424 260.935 114.531C261.067 115.611 261.414 116.42 261.974 116.958C262.539 117.491 263.272 117.701 264.172 117.591C264.786 117.516 265.303 117.31 265.724 116.973C266.149 116.631 266.462 116.176 266.661 115.609L267.8 115.896C267.553 116.684 267.124 117.325 266.513 117.819C265.907 118.308 265.188 118.603 264.357 118.705ZM260.562 114.907L260.442 113.93L266.992 113.126L267.112 114.103L260.562 114.907ZM275.949 117.04L275.412 112.664C275.353 112.188 275.255 111.757 275.116 111.371C274.977 110.98 274.788 110.648 274.551 110.376C274.318 110.099 274.032 109.897 273.695 109.772C273.362 109.646 272.971 109.611 272.521 109.666C272.108 109.717 271.752 109.833 271.452 110.015C271.157 110.197 270.918 110.436 270.734 110.732C270.554 111.023 270.433 111.366 270.368 111.76C270.304 112.155 270.302 112.596 270.361 113.083L269.513 113.002C269.405 112.123 269.468 111.366 269.702 110.73C269.935 110.094 270.303 109.589 270.805 109.216C271.308 108.843 271.908 108.613 272.607 108.527C273.12 108.464 273.577 108.489 273.978 108.601C274.384 108.712 274.736 108.887 275.034 109.124C275.337 109.361 275.592 109.644 275.799 109.973C276.005 110.297 276.17 110.65 276.292 111.033C276.413 111.41 276.498 111.792 276.545 112.179L277.124 116.895L275.949 117.04ZM269.748 117.801L268.695 109.225L269.751 109.096L270.01 111.208L270.129 111.193L270.923 117.657L269.748 117.801ZM283.854 116.069C283.384 116.229 282.913 116.327 282.439 116.364C281.971 116.4 281.54 116.35 281.148 116.216C280.76 116.081 280.448 115.834 280.21 115.477C280.018 115.178 279.894 114.868 279.838 114.547C279.788 114.22 279.736 113.848 279.685 113.429L278.721 105.576L279.88 105.434L280.838 113.239C280.883 113.599 280.922 113.901 280.958 114.144C280.997 114.381 281.079 114.585 281.202 114.758C281.436 115.09 281.764 115.264 282.186 115.282C282.612 115.3 283.126 115.221 283.728 115.045L283.854 116.069ZM277.302 109.184L277.179 108.184L282.801 107.493L282.924 108.494L277.302 109.184Z" fill="#6B7280"/>
<path d="M2.8381 191.653C2.41406 179.51 11.914 169.322 24.0569 168.898L149.98 164.501C162.123 164.077 172.311 173.577 172.735 185.72C173.159 197.863 163.659 208.05 151.516 208.474L25.5925 212.871C13.4496 213.295 3.26214 203.795 2.8381 191.653Z" fill="white"/>
<path d="M20.47 197.041L20.0679 185.528L27.2635 185.276L27.3029 186.404L21.2826 186.614L21.4216 190.595L26.4825 190.419L26.5219 191.546L21.461 191.723L21.6059 195.872L27.6262 195.662L27.6656 196.789L20.47 197.041ZM35.8256 196.504L35.6718 192.099C35.655 191.619 35.5944 191.181 35.4898 190.785C35.385 190.383 35.2262 190.036 35.0132 189.745C34.8054 189.448 34.5387 189.222 34.2131 189.068C33.8929 188.914 33.5062 188.845 33.0532 188.86C32.6374 188.875 32.2721 188.96 31.9574 189.115C31.6479 189.27 31.3887 189.487 31.1796 189.766C30.9757 190.04 30.8245 190.371 30.726 190.759C30.6275 191.147 30.5868 191.586 30.6039 192.076L29.766 191.921C29.7351 191.036 29.8637 190.287 30.1518 189.674C30.4399 189.061 30.8504 188.591 31.3833 188.262C31.9161 187.934 32.5344 187.758 33.2379 187.733C33.755 187.715 34.2081 187.78 34.5975 187.926C34.9922 188.072 35.3275 188.277 35.6035 188.539C35.8848 188.802 36.1143 189.106 36.2918 189.452C36.4691 189.792 36.602 190.159 36.6904 190.551C36.7786 190.937 36.8295 191.325 36.8431 191.714L37.0089 196.463L35.8256 196.504ZM29.5814 196.722L29.2799 188.088L30.3432 188.051L30.4175 190.177L30.5374 190.173L30.7647 196.681L29.5814 196.722ZM45.3198 196.173L45.166 191.768C45.1492 191.288 45.0886 190.85 44.984 190.453C44.8792 190.051 44.7204 189.704 44.5074 189.413C44.2996 189.116 44.0329 188.891 43.7073 188.737C43.3871 188.582 43.0004 188.513 42.5474 188.529C42.1316 188.543 41.7664 188.628 41.4516 188.783C41.1421 188.938 40.8829 189.155 40.6738 189.435C40.4699 189.709 40.3187 190.04 40.2202 190.427C40.1217 190.815 40.081 191.254 40.0981 191.744L39.2602 191.59C39.2293 190.705 39.3579 189.956 39.646 189.343C39.9341 188.73 40.3446 188.259 40.8775 187.931C41.4104 187.603 42.0286 187.426 42.7321 187.402C43.2492 187.384 43.7023 187.448 44.0917 187.594C44.4864 187.741 44.8217 187.945 45.0977 188.208C45.379 188.47 45.6085 188.774 45.786 189.12C45.9633 189.461 46.0962 189.827 46.1846 190.219C46.2728 190.606 46.3237 190.993 46.3373 191.382L46.5031 196.132L45.3198 196.173ZM39.0756 196.391L38.6736 184.878L39.7369 184.841L39.9639 191.341L40.0839 191.337L40.2589 196.35L39.0756 196.391ZM51.0567 196.213C50.4064 196.235 49.856 196.137 49.4054 195.918C48.9602 195.699 48.6215 195.398 48.3894 195.017C48.1572 194.636 48.0332 194.216 48.0172 193.757C48.0008 193.288 48.0801 192.885 48.2551 192.548C48.4353 192.206 48.6842 191.922 49.0019 191.698C49.3249 191.473 49.7003 191.297 50.1282 191.17C50.5615 191.048 51.0406 190.938 51.5655 190.84C52.0955 190.736 52.6127 190.646 53.117 190.569C53.6265 190.487 54.0721 190.411 54.4538 190.339L54.047 190.609C54.0332 189.755 53.8459 189.13 53.4851 188.731C53.1243 188.333 52.5148 188.149 51.6567 188.179C51.0651 188.199 50.5687 188.35 50.1676 188.631C49.7718 188.912 49.5013 189.343 49.3562 189.924L48.2012 189.628C48.3714 188.849 48.7476 188.235 49.3296 187.788C49.9117 187.341 50.6798 187.1 51.6339 187.067C52.4227 187.039 53.0969 187.165 53.6563 187.445C54.2209 187.718 54.6275 188.131 54.8762 188.683C54.9916 188.93 55.0707 189.207 55.1134 189.515C55.1562 189.823 55.1832 190.137 55.1944 190.457L55.3817 195.821L54.3343 195.858L54.2587 193.691L54.567 193.809C54.2997 194.56 53.8637 195.141 53.259 195.551C52.6543 195.962 51.9202 196.182 51.0567 196.213ZM51.1572 195.193C51.7062 195.173 52.1824 195.058 52.586 194.846C52.9895 194.635 53.3106 194.354 53.5492 194.004C53.7876 193.649 53.9366 193.254 53.9961 192.82C54.0504 192.541 54.0744 192.236 54.0682 191.905C54.0618 191.569 54.0557 191.318 54.05 191.153L54.5058 191.369C54.1079 191.437 53.6753 191.505 53.2082 191.575C52.7463 191.644 52.2901 191.722 51.8394 191.807C51.3941 191.892 50.9919 191.988 50.6328 192.097C50.3901 192.175 50.1563 192.282 49.9316 192.418C49.7067 192.548 49.5232 192.72 49.3812 192.933C49.2446 193.146 49.1817 193.407 49.1925 193.716C49.2012 193.967 49.271 194.207 49.4017 194.437C49.5379 194.667 49.7472 194.855 50.0298 195C50.3176 195.144 50.6935 195.209 51.1572 195.193ZM63.6993 195.531L63.5454 191.126C63.5287 190.646 63.468 190.208 63.3634 189.811C63.2587 189.409 63.0998 189.063 62.8868 188.771C62.679 188.474 62.4123 188.249 62.0867 188.095C61.7665 187.94 61.3799 187.871 60.9268 187.887C60.511 187.902 60.1458 187.986 59.831 188.142C59.5216 188.296 59.2623 188.514 59.0533 188.793C58.8494 189.067 58.6982 189.398 58.5996 189.785C58.5011 190.173 58.4604 190.612 58.4775 191.103L57.6396 190.948C57.6087 190.063 57.7373 189.314 58.0254 188.701C58.3135 188.088 58.724 187.617 59.2569 187.289C59.7898 186.961 60.408 186.785 61.1116 186.76C61.6286 186.742 62.0818 186.806 62.4711 186.953C62.8658 187.099 63.2011 187.303 63.4771 187.566C63.7585 187.828 63.9879 188.132 64.1654 188.478C64.3427 188.819 64.4756 189.185 64.564 189.577C64.6522 189.964 64.7031 190.351 64.7167 190.741L64.8825 195.49L63.6993 195.531ZM57.4551 195.749L57.1535 187.114L58.2169 187.077L58.2911 189.204L58.4111 189.2L58.6383 195.708L57.4551 195.749ZM70.5006 195.534C69.6318 195.564 68.8895 195.395 68.2736 195.027C67.6577 194.659 67.1806 194.139 66.8423 193.468C66.5091 192.791 66.3217 192.008 66.2799 191.118C66.259 190.212 66.3965 189.412 66.6924 188.718C66.9882 188.02 67.4307 187.471 68.0198 187.071C68.6087 186.666 69.3322 186.449 70.1903 186.419C71.0645 186.388 71.8314 186.575 72.4913 186.979C73.1564 187.383 73.6219 187.951 73.8876 188.683L72.7491 189.091C72.5285 188.581 72.1921 188.193 71.7399 187.926C71.2927 187.653 70.7867 187.527 70.2217 187.547C69.5874 187.569 69.0675 187.734 68.662 188.041C68.2563 188.344 67.9612 188.757 67.7767 189.281C67.5922 189.805 67.5091 190.403 67.5272 191.075C67.574 192.108 67.8428 192.931 68.3339 193.544C68.8247 194.151 69.5338 194.439 70.4612 194.406C71.0476 194.386 71.5413 194.235 71.9424 193.954C72.3486 193.668 72.6493 193.263 72.8445 192.738L74.04 193.049C73.747 193.827 73.2985 194.43 72.6943 194.857C72.09 195.278 71.3588 195.504 70.5006 195.534ZM79.1923 195.23C78.3502 195.26 77.6134 195.098 76.9821 194.747C76.3561 194.395 75.8607 193.887 75.496 193.222C75.1312 192.557 74.9329 191.769 74.9011 190.857C74.8681 189.914 75.0076 189.092 75.3193 188.393C75.6311 187.694 76.0843 187.147 76.6789 186.753C77.2789 186.358 77.9946 186.146 78.8261 186.117C79.6789 186.088 80.4133 186.259 81.0294 186.633C81.6453 187.001 82.1205 187.545 82.4552 188.264C82.7898 188.983 82.9615 189.85 82.9702 190.864L81.771 190.905L81.7564 190.49C81.696 189.371 81.424 188.535 80.9404 187.981C80.4621 187.426 79.7805 187.165 78.8957 187.196C77.9683 187.228 77.2672 187.554 76.7926 188.174C76.3232 188.793 76.108 189.66 76.1469 190.774C76.1849 191.861 76.4596 192.697 76.971 193.282C77.4875 193.862 78.1989 194.136 79.105 194.104C79.7233 194.083 80.2567 193.923 80.7052 193.624C81.1589 193.32 81.5095 192.894 81.7573 192.347L82.8674 192.732C82.5525 193.496 82.0692 194.097 81.4174 194.536C80.7708 194.97 80.0291 195.201 79.1923 195.23ZM75.7426 191.116L75.7083 190.133L82.3043 189.902L82.3386 190.886L75.7426 191.116ZM88.2422 194.914C87.4373 194.942 86.7428 194.766 86.1585 194.386C85.574 194.001 85.1179 193.47 84.7901 192.793C84.4622 192.116 84.2832 191.346 84.2531 190.483C84.2231 189.624 84.3454 188.846 84.6198 188.148C84.8996 187.45 85.3151 186.891 85.8661 186.472C86.4171 186.052 87.0871 185.829 87.8759 185.801C88.6861 185.773 89.3752 185.946 89.9433 186.321C90.5114 186.697 90.9487 187.223 91.2552 187.901C91.5669 188.573 91.738 189.346 91.7685 190.22C91.7985 191.078 91.6843 191.859 91.426 192.562C91.1675 193.259 90.7709 193.82 90.236 194.244C89.701 194.663 89.0364 194.886 88.2422 194.914ZM88.3238 193.815C88.9368 193.793 89.438 193.626 89.8273 193.314C90.2166 193.001 90.5008 192.581 90.6797 192.051C90.8585 191.517 90.9363 190.916 90.913 190.25C90.8894 189.573 90.7699 188.98 90.5547 188.469C90.3392 187.954 90.0265 187.557 89.6165 187.277C89.2118 186.998 88.7083 186.869 88.1061 186.89C87.4878 186.912 86.9814 187.081 86.5869 187.399C86.1924 187.717 85.9057 188.141 85.7267 188.67C85.5531 189.199 85.4776 189.789 85.5003 190.439C85.5232 191.095 85.6425 191.683 85.8581 192.204C86.0789 192.719 86.3945 193.121 86.8049 193.411C87.2152 193.701 87.7215 193.836 88.3238 193.815ZM91.0641 194.575L90.8371 188.075L90.7092 188.08L90.5341 183.067L91.7174 183.026L92.1194 194.539L91.0641 194.575ZM100.794 194.468C99.781 194.503 98.9392 194.314 98.2684 193.9C97.6028 193.485 97.1819 192.892 97.0054 192.119L98.1977 191.877C98.3428 192.363 98.647 192.744 99.1102 193.022C99.5787 193.293 100.149 193.418 100.82 193.394C101.476 193.371 101.988 193.217 102.357 192.932C102.726 192.642 102.902 192.26 102.885 191.785C102.876 191.519 102.807 191.305 102.679 191.144C102.556 190.977 102.308 190.829 101.935 190.698C101.562 190.567 101.007 190.415 100.27 190.243C99.479 190.058 98.8586 189.866 98.4088 189.668C97.9589 189.47 97.6359 189.236 97.4397 188.965C97.2433 188.69 97.138 188.349 97.1238 187.944C97.1067 187.454 97.2303 187.02 97.4946 186.642C97.7588 186.259 98.1325 185.958 98.6158 185.738C99.0989 185.513 99.6656 185.39 100.316 185.367C100.966 185.344 101.551 185.431 102.07 185.626C102.594 185.816 103.02 186.094 103.348 186.462C103.676 186.829 103.877 187.262 103.954 187.761L102.762 188.019C102.664 187.516 102.397 187.125 101.96 186.846C101.529 186.563 100.988 186.427 100.337 186.439C99.7237 186.444 99.2295 186.579 98.8545 186.843C98.4792 187.101 98.2988 187.436 98.3131 187.846C98.3211 188.076 98.3973 188.27 98.5417 188.431C98.6858 188.586 98.9417 188.729 99.3091 188.86C99.6819 188.991 100.21 189.13 100.893 189.277C101.694 189.452 102.325 189.643 102.786 189.851C103.247 190.059 103.578 190.312 103.781 190.609C103.983 190.906 104.092 191.279 104.108 191.726C104.137 192.542 103.855 193.195 103.264 193.685C102.678 194.17 101.854 194.431 100.794 194.468ZM109.627 194.167C108.785 194.197 108.048 194.036 107.417 193.684C106.791 193.332 106.295 192.824 105.931 192.159C105.566 191.494 105.367 190.706 105.336 189.794C105.303 188.851 105.442 188.03 105.754 187.33C106.066 186.631 106.519 186.084 107.113 185.69C107.713 185.295 108.429 185.084 109.261 185.055C110.113 185.025 110.848 185.197 111.464 185.57C112.08 185.938 112.555 186.482 112.89 187.201C113.224 187.921 113.396 188.787 113.405 189.801L112.206 189.843L112.191 189.427C112.131 188.308 111.859 187.472 111.375 186.918C110.897 186.364 110.215 186.102 109.33 186.133C108.403 186.165 107.702 186.491 107.227 187.111C106.758 187.73 106.543 188.597 106.582 189.711C106.619 190.798 106.894 191.634 107.406 192.22C107.922 192.799 108.633 193.073 109.54 193.042C110.158 193.02 110.691 192.86 111.14 192.562C111.593 192.258 111.944 191.832 112.192 191.284L113.302 191.67C112.987 192.433 112.504 193.034 111.852 193.473C111.205 193.907 110.464 194.138 109.627 194.167ZM106.177 190.053L106.143 189.07L112.739 188.839L112.773 189.823L106.177 190.053ZM118.909 193.843C118.04 193.874 117.297 193.705 116.682 193.337C116.066 192.969 115.589 192.449 115.25 191.778C114.917 191.101 114.73 190.318 114.688 189.428C114.667 188.521 114.804 187.721 115.1 187.028C115.396 186.329 115.839 185.78 116.428 185.381C117.017 184.976 117.74 184.758 118.598 184.728C119.472 184.698 120.239 184.885 120.899 185.289C121.564 185.692 122.03 186.26 122.296 186.993L121.157 187.401C120.937 186.891 120.6 186.502 120.148 186.235C119.701 185.963 119.195 185.836 118.63 185.856C117.995 185.878 117.476 186.043 117.07 186.351C116.664 186.653 116.369 187.066 116.185 187.59C116 188.115 115.917 188.712 115.935 189.384C115.982 190.418 116.251 191.241 116.742 191.854C117.233 192.461 117.942 192.748 118.869 192.716C119.456 192.695 119.949 192.545 120.35 192.264C120.757 191.978 121.057 191.572 121.252 191.048L122.448 191.358C122.155 192.137 121.706 192.74 121.102 193.166C120.498 193.588 119.767 193.813 118.909 193.843ZM127.482 193.52C126.965 193.538 126.509 193.474 126.114 193.327C125.725 193.181 125.39 192.976 125.108 192.714C124.832 192.452 124.606 192.15 124.428 191.809C124.251 191.463 124.118 191.097 124.03 190.711C123.941 190.319 123.89 189.928 123.877 189.539L123.711 184.79L124.894 184.749L125.048 189.154C125.065 189.628 125.125 190.067 125.23 190.469C125.335 190.87 125.491 191.22 125.699 191.517C125.912 191.808 126.178 192.031 126.499 192.185C126.824 192.339 127.214 192.408 127.667 192.393C128.082 192.378 128.445 192.293 128.754 192.139C129.069 191.983 129.329 191.769 129.533 191.495C129.742 191.216 129.895 190.882 129.994 190.494C130.092 190.101 130.133 189.662 130.116 189.177L130.954 189.332C130.985 190.217 130.856 190.966 130.568 191.579C130.28 192.192 129.869 192.663 129.337 192.991C128.804 193.319 128.185 193.495 127.482 193.52ZM130.377 193.203L130.302 191.076L130.182 191.08L129.955 184.572L131.13 184.531L131.432 193.166L130.377 193.203ZM133.667 193.088L133.365 184.453L134.42 184.416L134.493 186.495L134.276 186.23C134.363 185.971 134.48 185.732 134.627 185.514C134.774 185.29 134.935 185.105 135.112 184.96C135.329 184.755 135.585 184.597 135.88 184.485C136.174 184.368 136.474 184.296 136.777 184.27C137.08 184.238 137.358 184.249 137.61 184.305L137.649 185.408C137.332 185.339 136.987 185.332 136.616 185.388C136.244 185.444 135.905 185.605 135.6 185.872C135.32 186.106 135.113 186.382 134.981 186.702C134.847 187.016 134.763 187.35 134.727 187.703C134.691 188.052 134.679 188.396 134.691 188.737L134.842 193.047L133.667 193.088ZM139.23 182.607L139.184 181.288L140.359 181.247L140.405 182.566L139.23 182.607ZM139.589 192.881L139.287 184.246L140.462 184.205L140.764 192.84L139.589 192.881ZM147.862 192.592C147.38 192.71 146.902 192.767 146.427 192.762C145.957 192.757 145.533 192.671 145.153 192.502C144.779 192.334 144.489 192.061 144.284 191.684C144.118 191.37 144.022 191.05 143.994 190.726C143.972 190.396 143.954 190.02 143.939 189.599L143.663 181.692L144.83 181.651L145.105 189.51C145.117 189.873 145.131 190.176 145.145 190.421C145.164 190.661 145.227 190.872 145.335 191.055C145.539 191.406 145.85 191.608 146.269 191.663C146.692 191.718 147.211 191.683 147.826 191.561L147.862 192.592ZM141.935 185.162L141.9 184.155L147.56 183.957L147.596 184.965L141.935 185.162ZM150.694 196.335L152.207 191.744L152.278 193.086L148.172 183.936L149.419 183.892L152.792 191.547L152.281 191.565L154.872 183.702L156.071 183.66L151.869 196.294L150.694 196.335Z" fill="#6B7280"/>
<path d="M157.586 247.562C161.341 236.006 173.752 229.682 185.308 233.437L271.854 261.558C283.41 265.312 289.734 277.724 285.979 289.279C282.224 300.835 269.813 307.159 258.257 303.404L171.711 275.284C160.156 271.529 153.832 259.118 157.586 247.562Z" fill="white"/>
<path d="M172.2 258.619L175.76 247.663L182.608 249.888L182.259 250.961L176.53 249.099L175.299 252.888L180.115 254.453L179.767 255.526L174.95 253.961L173.667 257.91L179.397 259.771L179.048 260.844L172.2 258.619ZM183.156 262.431C182.537 262.23 182.053 261.95 181.705 261.59C181.361 261.231 181.146 260.833 181.058 260.395C180.97 259.957 180.997 259.52 181.139 259.084C181.284 258.638 181.497 258.286 181.776 258.029C182.063 257.769 182.394 257.588 182.769 257.486C183.149 257.385 183.562 257.348 184.008 257.375C184.457 257.409 184.945 257.469 185.471 257.556C186.005 257.64 186.522 257.732 187.022 257.833C187.528 257.93 187.974 258.01 188.357 258.073L187.882 258.188C188.161 257.381 188.199 256.729 187.996 256.232C187.793 255.734 187.284 255.352 186.467 255.087C185.904 254.904 185.386 254.876 184.913 255.003C184.445 255.131 184.044 255.444 183.708 255.94L182.724 255.267C183.151 254.593 183.714 254.145 184.414 253.924C185.114 253.702 185.918 253.739 186.826 254.034C187.577 254.278 188.167 254.627 188.597 255.081C189.034 255.531 189.275 256.058 189.32 256.662C189.344 256.933 189.324 257.221 189.258 257.525C189.193 257.829 189.111 258.133 189.012 258.438L187.354 263.543L186.357 263.219L187.027 261.157L187.276 261.373C186.768 261.987 186.16 262.384 185.451 262.563C184.743 262.742 183.977 262.698 183.156 262.431ZM183.599 261.507C184.121 261.677 184.608 261.731 185.06 261.67C185.511 261.61 185.909 261.456 186.253 261.208C186.599 260.956 186.874 260.636 187.078 260.248C187.225 260.004 187.352 259.726 187.459 259.413C187.568 259.095 187.648 258.858 187.699 258.7L188.053 259.06C187.656 258.987 187.226 258.903 186.764 258.809C186.306 258.716 185.851 258.633 185.398 258.559C184.951 258.486 184.539 258.439 184.165 258.419C183.91 258.409 183.654 258.429 183.396 258.48C183.14 258.526 182.909 258.625 182.703 258.776C182.502 258.93 182.353 259.153 182.258 259.448C182.18 259.686 182.163 259.936 182.208 260.197C182.257 260.46 182.389 260.707 182.605 260.94C182.826 261.175 183.158 261.364 183.599 261.507ZM192.329 265.403C191.365 265.09 190.639 264.624 190.15 264.006C189.666 263.389 189.474 262.687 189.572 261.9L190.775 262.081C190.746 262.587 190.901 263.05 191.241 263.469C191.589 263.884 192.082 264.196 192.721 264.404C193.345 264.606 193.879 264.637 194.323 264.495C194.769 264.348 195.065 264.049 195.212 263.598C195.294 263.344 195.303 263.12 195.237 262.925C195.178 262.726 194.996 262.501 194.691 262.251C194.385 262 193.915 261.668 193.281 261.255C192.602 260.809 192.084 260.417 191.729 260.077C191.374 259.738 191.151 259.407 191.059 259.086C190.969 258.759 190.986 258.403 191.111 258.018C191.263 257.551 191.528 257.186 191.905 256.921C192.284 256.652 192.738 256.497 193.268 256.455C193.799 256.409 194.374 256.487 194.992 256.688C195.611 256.889 196.131 257.17 196.552 257.531C196.98 257.889 197.285 258.296 197.467 258.754C197.649 259.211 197.691 259.687 197.592 260.182L196.384 260.017C196.464 259.51 196.347 259.051 196.032 258.641C195.723 258.226 195.261 257.914 194.646 257.702C194.067 257.498 193.557 257.455 193.114 257.575C192.673 257.69 192.389 257.942 192.262 258.333C192.192 258.551 192.197 258.76 192.277 258.96C192.36 259.155 192.551 259.377 192.852 259.626C193.157 259.877 193.606 260.188 194.197 260.56C194.89 260.998 195.418 261.394 195.78 261.747C196.142 262.1 196.367 262.451 196.455 262.799C196.544 263.147 196.519 263.535 196.381 263.961C196.129 264.737 195.641 265.254 194.918 265.513C194.201 265.768 193.338 265.731 192.329 265.403ZM197.017 270.72L200.009 266.923L199.616 268.209L198.888 258.206L200.075 258.591L200.626 266.938L200.139 266.78L205.264 260.277L206.405 260.648L198.135 271.084L197.017 270.72ZM211.719 271.712C210.963 271.466 210.386 271.068 209.987 270.518C209.59 269.963 209.363 269.315 209.307 268.573C209.252 267.826 209.357 267.044 209.623 266.228C209.893 265.396 210.268 264.699 210.748 264.137C211.234 263.572 211.802 263.187 212.452 262.983C213.101 262.779 213.812 262.803 214.583 263.053C215.333 263.297 215.916 263.696 216.33 264.252C216.744 264.807 216.987 265.458 217.058 266.204C217.134 266.952 217.04 267.735 216.775 268.552C216.508 269.373 216.123 270.064 215.622 270.625C215.12 271.185 214.535 271.57 213.867 271.779C213.201 271.983 212.485 271.961 211.719 271.712ZM206.908 273.934L210.765 262.065L211.769 262.391L209.76 268.577L209.881 268.617L208.035 274.3L206.908 273.934ZM211.943 270.632C212.516 270.819 213.04 270.829 213.515 270.663C213.989 270.498 214.401 270.197 214.75 269.761C215.106 269.322 215.385 268.79 215.588 268.166C215.789 267.547 215.876 266.959 215.85 266.401C215.824 265.843 215.665 265.356 215.374 264.942C215.087 264.529 214.65 264.227 214.061 264.036C213.488 263.85 212.966 263.834 212.495 263.99C212.029 264.147 211.621 264.443 211.272 264.879C210.925 265.31 210.646 265.848 210.437 266.492C210.231 267.126 210.14 267.725 210.165 268.288C210.191 268.846 210.348 269.329 210.636 269.737C210.924 270.144 211.36 270.443 211.943 270.632ZM219.385 274.203C218.766 274.002 218.282 273.721 217.934 273.361C217.591 273.003 217.375 272.605 217.287 272.167C217.2 271.729 217.227 271.292 217.368 270.856C217.513 270.409 217.726 270.058 218.006 269.801C218.292 269.541 218.623 269.36 218.998 269.257C219.379 269.157 219.792 269.12 220.237 269.147C220.686 269.18 221.174 269.241 221.701 269.328C222.234 269.411 222.751 269.504 223.251 269.604C223.758 269.702 224.203 269.782 224.586 269.845L224.111 269.96C224.39 269.153 224.428 268.501 224.226 268.003C224.023 267.505 223.513 267.124 222.696 266.859C222.133 266.676 221.615 266.648 221.142 266.774C220.675 266.903 220.273 267.215 219.938 267.712L218.954 267.039C219.38 266.364 219.944 265.916 220.643 265.695C221.343 265.474 222.147 265.511 223.055 265.806C223.806 266.05 224.396 266.399 224.827 266.853C225.263 267.303 225.504 267.83 225.549 268.433C225.573 268.705 225.553 268.992 225.488 269.297C225.423 269.601 225.341 269.905 225.242 270.209L223.583 275.314L222.586 274.991L223.256 272.929L223.506 273.144C222.998 273.759 222.389 274.155 221.681 274.335C220.972 274.514 220.207 274.47 219.385 274.203ZM219.828 273.279C220.351 273.448 220.838 273.503 221.289 273.442C221.741 273.381 222.138 273.227 222.482 272.98C222.828 272.728 223.103 272.408 223.307 272.02C223.454 271.776 223.581 271.498 223.688 271.185C223.797 270.867 223.877 270.629 223.928 270.472L224.282 270.831C223.886 270.758 223.456 270.675 222.993 270.58C222.535 270.488 222.08 270.404 221.627 270.33C221.18 270.258 220.769 270.211 220.394 270.19C220.139 270.18 219.883 270.201 219.626 270.252C219.37 270.298 219.138 270.396 218.932 270.548C218.731 270.701 218.582 270.925 218.487 271.219C218.409 271.458 218.393 271.707 218.437 271.968C218.486 272.231 218.619 272.479 218.835 272.712C219.056 272.946 219.387 273.135 219.828 273.279ZM225.088 279.841L228.08 276.044L227.687 277.329L226.959 267.327L228.146 267.712L228.697 276.059L228.21 275.901L233.335 269.398L234.476 269.769L226.206 280.204L225.088 279.841ZM242.927 281.6L244.687 276.208C244.893 275.574 244.877 275.019 244.639 274.544C244.408 274.065 244.021 273.737 243.478 273.561C243.169 273.46 242.844 273.433 242.504 273.479C242.163 273.526 241.846 273.675 241.551 273.927C241.261 274.18 241.034 274.561 240.869 275.068L240.269 274.663C240.445 274.069 240.726 273.592 241.113 273.229C241.505 272.869 241.956 272.637 242.466 272.534C242.983 272.427 243.516 272.462 244.063 272.64C244.89 272.909 245.469 273.38 245.799 274.054C246.132 274.723 246.157 275.491 245.875 276.358L244.046 281.963L242.927 281.6ZM233.12 278.413L235.79 270.196L236.794 270.522L236.136 272.546L236.258 272.586L234.246 278.779L233.12 278.413ZM238.035 280.01L239.77 274.694C239.983 274.04 239.975 273.468 239.747 272.979C239.526 272.487 239.131 272.148 238.563 271.964C237.995 271.779 237.473 271.825 236.996 272.102C236.521 272.374 236.178 272.832 235.969 273.476L235.418 272.893C235.589 272.366 235.867 271.934 236.251 271.599C236.636 271.259 237.083 271.04 237.592 270.941C238.102 270.838 238.631 270.875 239.179 271.053C239.701 271.223 240.129 271.485 240.462 271.84C240.801 272.197 241.017 272.626 241.112 273.128C241.207 273.63 241.156 274.185 240.958 274.794L239.138 280.369L238.035 280.01ZM249.384 283.95C248.583 283.69 247.946 283.286 247.473 282.74C247.005 282.196 246.713 281.549 246.598 280.799C246.483 280.049 246.566 279.241 246.848 278.373C247.139 277.476 247.551 276.751 248.083 276.201C248.616 275.65 249.228 275.292 249.922 275.124C250.621 274.959 251.366 275.005 252.157 275.262C252.969 275.525 253.6 275.938 254.051 276.5C254.504 277.056 254.765 277.73 254.833 278.52C254.901 279.311 254.766 280.184 254.428 281.139L253.287 280.768L253.415 280.373C253.741 279.301 253.771 278.422 253.507 277.736C253.247 277.051 252.696 276.572 251.854 276.299C250.971 276.012 250.201 276.079 249.543 276.498C248.89 276.92 248.391 277.661 248.047 278.721C247.711 279.756 247.683 280.635 247.963 281.36C248.25 282.082 248.825 282.582 249.687 282.863C250.276 283.054 250.832 283.086 251.355 282.959C251.886 282.828 252.361 282.548 252.781 282.118L253.692 282.86C253.135 283.47 252.475 283.869 251.713 284.059C250.957 284.245 250.181 284.209 249.384 283.95ZM247.55 278.904L247.854 277.968L254.131 280.008L253.827 280.944L247.55 278.904ZM260.595 287.34L261.957 283.148C262.105 282.691 262.198 282.259 262.235 281.851C262.274 281.437 262.244 281.057 262.143 280.71C262.049 280.36 261.876 280.057 261.623 279.801C261.374 279.546 261.035 279.349 260.604 279.209C260.208 279.081 259.836 279.035 259.487 279.073C259.143 279.113 258.825 279.228 258.533 279.42C258.248 279.607 257.993 279.866 257.768 280.197C257.542 280.528 257.354 280.926 257.202 281.393L256.468 280.961C256.741 280.119 257.118 279.459 257.599 278.981C258.079 278.504 258.626 278.202 259.239 278.076C259.852 277.95 260.493 277.996 261.163 278.213C261.655 278.373 262.059 278.588 262.374 278.859C262.695 279.132 262.94 279.438 263.11 279.78C263.285 280.122 263.396 280.487 263.445 280.872C263.495 281.253 263.494 281.643 263.443 282.041C263.394 282.435 263.309 282.816 263.189 283.187L261.721 287.706L260.595 287.34ZM254.652 285.409L257.322 277.192L258.334 277.521L257.677 279.545L257.791 279.582L255.778 285.775L254.652 285.409ZM268.169 289.801C267.676 289.748 267.207 289.637 266.762 289.47C266.322 289.305 265.953 289.078 265.654 288.791C265.36 288.504 265.181 288.149 265.117 287.725C265.069 287.372 265.087 287.039 265.173 286.725C265.265 286.407 265.376 286.048 265.506 285.647L267.951 278.122L269.062 278.483L266.632 285.962C266.52 286.307 266.428 286.597 266.358 286.832C266.294 287.064 266.281 287.284 266.32 287.493C266.392 287.892 266.615 288.189 266.989 288.383C267.368 288.579 267.868 288.725 268.488 288.82L268.169 289.801ZM265.14 280.793L265.452 279.834L270.839 281.584L270.527 282.543L265.14 280.793Z" fill="#6B7280"/>
<path d="M3.82037 53.0388C5.93024 41.0731 17.3407 33.0834 29.3064 35.1933L119.909 51.1689C131.874 53.2788 139.864 64.6893 137.754 76.655C135.644 88.6206 124.234 96.6104 112.268 94.5005L21.6659 78.5248C9.7002 76.415 1.71049 65.0045 3.82037 53.0388Z" fill="white"/>
<path d="M24.4648 63.0159C23.6665 62.8751 22.9714 62.6091 22.3797 62.2177C21.788 61.8264 21.3117 61.3335 20.9508 60.7391C20.5951 60.1457 20.363 59.4657 20.2544 58.6992C20.1468 57.9275 20.1722 57.0925 20.3306 56.1944C20.5399 55.0074 20.9271 54.0088 21.4924 53.1986C22.0639 52.3841 22.7787 51.8007 23.6369 51.4484C24.4951 51.0961 25.4652 51.0153 26.5472 51.2061C27.7552 51.4191 28.6874 51.8759 29.3437 52.5765C30.0062 53.2728 30.4033 54.1227 30.5351 55.1261L29.3191 55.2042C29.1944 54.4673 28.8851 53.8414 28.391 53.3265C27.9022 52.8125 27.2376 52.4814 26.3972 52.3332C25.5105 52.1714 24.7374 52.2409 24.0778 52.5416C23.4191 52.837 22.8762 53.3208 22.449 53.9928C22.028 54.6605 21.7315 55.4666 21.5596 56.4111C21.3876 57.3556 21.3853 58.2135 21.5525 58.985C21.726 59.7521 22.0733 60.3928 22.5946 60.9071C23.1168 61.4162 23.8212 61.7516 24.708 61.9134C25.5221 62.0569 26.2221 62.0179 26.8082 61.7963C27.3942 61.5747 27.8757 61.1939 28.2525 60.6538C28.6346 60.1146 28.9149 59.4464 29.0934 58.6493L26.4777 58.1881L26.6528 57.1954L30.4817 57.8706C30.4762 57.9942 30.4613 58.1242 30.4373 58.2608C30.4194 58.393 30.4053 58.488 30.3951 58.5458C30.2145 59.57 29.8691 60.4541 29.3588 61.1981C28.8495 61.9369 28.1833 62.4747 27.3603 62.8116C26.5435 63.1442 25.5783 63.2123 24.4648 63.0159ZM31.228 63.9648L33.2701 52.3834L34.4283 52.5876L32.3862 64.169L31.228 63.9648ZM38.2596 65.4483C37.414 65.2992 36.7256 64.9802 36.1945 64.4912C35.6633 64.0022 35.2973 63.3906 35.0963 62.6566C34.8954 61.9226 34.8723 61.117 35.027 60.2398C35.1844 59.3469 35.4852 58.5931 35.9294 57.9782C36.3736 57.3633 36.9279 56.9222 37.5925 56.6549C38.2632 56.3832 39.0134 56.3205 39.8433 56.4669C40.6942 56.6169 41.3852 56.9364 41.9163 57.4254C42.4537 57.9101 42.8202 58.519 43.0159 59.2521C43.2177 59.9809 43.2413 60.7838 43.0866 61.661C42.9292 62.5539 42.6305 63.3108 42.1907 63.9319C41.7517 64.5477 41.1969 64.9914 40.5262 65.2631C39.8555 65.5348 39.1 65.5965 38.2596 65.4483ZM38.4555 64.3375C39.4009 64.5042 40.1598 64.3157 40.7322 63.7722C41.3056 63.2234 41.6807 62.4475 41.8576 61.4443C42.0391 60.4148 41.9499 59.5542 41.5898 58.8625C41.2351 58.1718 40.5876 57.7435 39.6474 57.5777C39.0119 57.4657 38.4612 57.5175 37.9953 57.7332C37.5356 57.9446 37.1585 58.287 36.8638 58.7603C36.5753 59.2294 36.3727 59.7948 36.256 60.4566C36.0754 61.4808 36.1668 62.3444 36.5302 63.0475C36.8946 63.7454 37.5364 64.1754 38.4555 64.3375ZM47.8524 67.1398C47.0698 67.0018 46.4427 66.6881 45.9712 66.1988C45.5006 65.7043 45.1859 65.0937 45.027 64.367C44.869 63.6351 44.8645 62.8464 45.0136 62.0008C45.1655 61.1394 45.4399 60.3971 45.8369 59.7739C46.2399 59.1463 46.7489 58.6864 47.3637 58.394C47.9784 58.1017 48.685 58.0259 49.4833 58.1667C50.2607 58.3037 50.893 58.6183 51.3803 59.1104C51.8676 59.6025 52.1985 60.2132 52.3732 60.9427C52.5531 61.673 52.5685 62.461 52.4194 63.3066C52.2694 64.1575 51.9849 64.8953 51.5661 65.52C51.1472 66.1448 50.6216 66.6072 49.9892 66.9073C49.3578 67.2021 48.6455 67.2796 47.8524 67.1398ZM44.0651 66.2283L46.0656 54.8833L47.2316 55.0889L46.3606 60.0287L46.2345 60.0065L45.1051 66.4117L44.0651 66.2283ZM47.9245 66.0396C48.518 66.1442 49.0382 66.0816 49.4849 65.8517C49.9316 65.6218 50.2975 65.2666 50.5826 64.7861C50.8739 64.3013 51.0765 63.7359 51.1904 63.0899C51.3034 62.4491 51.3081 61.8542 51.2045 61.3052C51.1009 60.7562 50.8759 60.2969 50.5295 59.9271C50.1884 59.5582 49.7132 59.3201 49.1039 59.2127C48.5104 59.108 47.9912 59.1654 47.5464 59.3848C47.1068 59.6052 46.7444 59.9556 46.4593 60.436C46.1752 60.9112 45.9743 61.4824 45.8566 62.1494C45.7409 62.8059 45.7343 63.4113 45.837 63.9656C45.9405 64.5146 46.1634 64.9709 46.5054 65.3345C46.8475 65.698 47.3205 65.9331 47.9245 66.0396ZM55.7907 68.5395C55.1499 68.4265 54.6319 68.216 54.2367 67.9081C53.8468 67.601 53.5779 67.2368 53.4302 66.8154C53.2825 66.394 53.2484 65.9575 53.3281 65.5058C53.4096 65.0436 53.5709 64.6659 53.8122 64.3726C54.0596 64.0751 54.3621 63.8495 54.7195 63.6959C55.0822 63.5432 55.486 63.4493 55.9309 63.414C56.3801 63.3849 56.8716 63.3768 57.4055 63.3897C57.9455 63.3983 58.4701 63.4176 58.9793 63.4479C59.4946 63.4737 59.9465 63.4911 60.3348 63.5L59.8807 63.6799C60.0446 62.8423 59.9915 62.1912 59.7215 61.7266C59.4514 61.262 58.8935 60.9551 58.0479 60.806C57.4649 60.7032 56.948 60.7474 56.4973 60.9387C56.0518 61.131 55.6976 61.4964 55.4348 62.0349L54.3665 61.5053C54.6951 60.778 55.1906 60.2561 55.853 59.9397C56.5153 59.6232 57.3166 59.5479 58.2567 59.7137C59.0341 59.8507 59.6673 60.114 60.1564 60.5035C60.6517 60.8887 60.9637 61.377 61.0923 61.9683C61.1538 62.2337 61.1735 62.5215 61.1513 62.8317C61.1291 63.1418 61.0902 63.4545 61.0346 63.7697L60.1025 69.0561L59.0704 68.8741L59.4469 66.7391L59.724 66.9179C59.3064 67.597 58.7592 68.0746 58.0823 68.3506C57.4054 68.6266 56.6416 68.6895 55.7907 68.5395ZM56.101 67.5626C56.642 67.658 57.1319 67.6441 57.5706 67.5211C58.0093 67.3981 58.3817 67.1903 58.6878 66.8977C58.9949 66.5998 59.2227 66.2446 59.3712 65.8321C59.4824 65.5701 59.5693 65.2768 59.632 64.9521C59.6956 64.6221 59.7418 64.3757 59.7705 64.2129L60.1714 64.5191C59.7682 64.5022 59.3309 64.4792 58.8594 64.4503C58.3932 64.4222 57.9308 64.403 57.4723 64.3925C57.0191 64.383 56.6056 64.394 56.2318 64.4256C55.9781 64.4513 55.7273 64.5072 55.4792 64.5935C55.232 64.6745 55.0169 64.8044 54.8337 64.9833C54.6557 65.1631 54.5399 65.4054 54.4862 65.71C54.4427 65.9569 54.4609 66.2065 54.541 66.4589C54.6263 66.7122 54.7921 66.9391 55.0383 67.1396C55.2899 67.341 55.6441 67.482 56.101 67.5626ZM62.311 69.4455L64.3531 57.8642L65.5113 58.0684L63.4692 69.6497L62.311 69.4455ZM68.1977 70.4835L74.1059 59.8276L75.6422 60.0985L77.5495 72.1325L76.3441 71.9199L74.5198 60.5667L74.9768 60.6472L69.4031 70.6961L68.1977 70.4835ZM70.4237 68.0409L70.6154 66.9537L76.477 67.9873L76.2853 69.0745L70.4237 68.0409ZM82.46 73.242C81.6039 73.0911 80.9129 72.7716 80.387 72.2835C79.8611 71.7954 79.5024 71.1879 79.3111 70.461C79.1259 69.7297 79.1054 68.9246 79.2496 68.0456C79.4175 67.1546 79.7184 66.4007 80.152 65.784C80.5866 65.162 81.1336 64.7169 81.7928 64.4486C82.453 64.1751 83.2059 64.1129 84.0516 64.262C84.9129 64.4139 85.6244 64.7559 86.1858 65.2882C86.7525 65.8213 87.0896 66.4738 87.1973 67.2456L85.9989 67.4079C85.8891 66.8633 85.6408 66.4133 85.2539 66.0581C84.8733 65.6985 84.4046 65.4696 83.8478 65.3715C83.2228 65.2612 82.68 65.3145 82.2194 65.5311C81.7597 65.7425 81.3851 66.0853 81.0957 66.5596C80.8063 67.0339 80.6006 67.6015 80.4786 68.2623C80.3095 69.2831 80.4014 70.1442 80.7543 70.8454C81.1081 71.5414 81.742 71.97 82.6559 72.1312C83.2336 72.233 83.7479 72.1883 84.1986 71.997C84.6555 71.8014 85.034 71.4674 85.3339 70.9949L86.4388 71.5472C85.9903 72.248 85.4262 72.7442 84.7465 73.036C84.0678 73.3225 83.3056 73.3911 82.46 73.242ZM90.954 74.7398C90.0979 74.5888 89.4068 74.2693 88.8809 73.7812C88.355 73.2931 87.9964 72.6856 87.8051 71.9587C87.6199 71.2274 87.5994 70.4223 87.7436 69.5433C87.9115 68.6523 88.2123 67.8984 88.646 67.2817C89.0806 66.6597 89.6276 66.2146 90.2868 65.9463C90.947 65.6728 91.6999 65.6106 92.5455 65.7597C93.4069 65.9116 94.1183 66.2536 94.6798 66.7859C95.2465 67.3191 95.5836 67.9715 95.6912 68.7433L94.4928 68.9056C94.3831 68.361 94.1348 67.911 93.7479 67.5558C93.3672 67.1962 92.8985 66.9673 92.3418 66.8692C91.7168 66.759 91.1739 66.8122 90.7133 67.0288C90.2536 67.2402 89.8791 67.583 89.5897 68.0573C89.3002 68.5316 89.0945 69.0992 88.9726 69.76C88.8034 70.7808 88.8953 71.6419 89.2482 72.3431C89.6021 73.0392 90.236 73.4677 91.1499 73.6289C91.7276 73.7308 92.2419 73.686 92.6926 73.4947C93.1495 73.2991 93.5279 72.9651 93.8279 72.4927L94.9327 73.0449C94.4842 73.7457 93.9202 74.2419 93.2405 74.5337C92.5618 74.8202 91.7996 74.8889 90.954 74.7398ZM99.5189 76.25C98.689 76.1036 98.0018 75.7929 97.4574 75.3178C96.9182 74.8437 96.5394 74.2434 96.3208 73.5171C96.1023 72.7908 96.0722 71.9786 96.2306 71.0804C96.3945 70.1508 96.7017 69.3763 97.152 68.7571C97.6024 68.1379 98.1594 67.6973 98.823 67.4352C99.4918 67.1741 100.236 67.1157 101.055 67.2602C101.896 67.4084 102.578 67.7291 103.103 68.2224C103.629 68.7105 103.981 69.3412 104.159 70.1145C104.337 70.8878 104.324 71.771 104.122 72.7644L102.94 72.556L103.013 72.1463C103.186 71.0396 103.094 70.165 102.736 69.5224C102.383 68.8808 101.771 68.4831 100.899 68.3293C99.9853 68.1682 99.2318 68.3413 98.6387 68.8487C98.0508 69.357 97.6601 70.16 97.4666 71.2578C97.2776 72.3292 97.3725 73.2043 97.751 73.883C98.1358 74.5574 98.7746 74.9733 99.6675 75.1308C100.277 75.2382 100.832 75.1926 101.333 74.9938C101.84 74.7908 102.271 74.4472 102.627 73.963L103.633 74.5709C103.166 75.2522 102.568 75.7398 101.84 76.0337C101.117 76.3233 100.343 76.3954 99.5189 76.25ZM96.9999 71.5085L97.1708 70.5395L103.671 71.6856L103.5 72.6546L96.9999 71.5085ZM108.312 77.7923C107.314 77.6164 106.53 77.2561 105.96 76.7115C105.395 76.1678 105.107 75.4996 105.095 74.7068L106.311 74.7182C106.352 75.2237 106.57 75.6602 106.966 76.0278C107.368 76.391 107.899 76.631 108.561 76.7477C109.207 76.8616 109.74 76.8175 110.16 76.6154C110.582 76.4081 110.833 76.0706 110.916 75.6032C110.962 75.3406 110.939 75.1172 110.847 74.9331C110.761 74.7446 110.549 74.5475 110.212 74.3418C109.875 74.1361 109.363 73.8727 108.678 73.5514C107.943 73.2052 107.376 72.8886 106.977 72.6016C106.578 72.3147 106.311 72.0184 106.175 71.7129C106.04 71.4021 106.008 71.0471 106.079 70.648C106.164 70.1648 106.375 69.766 106.712 69.4518C107.05 69.1323 107.478 68.9153 107.997 68.8009C108.516 68.6813 109.096 68.678 109.737 68.791C110.377 68.904 110.931 69.1099 111.399 69.4089C111.872 69.7036 112.231 70.0647 112.475 70.4923C112.719 70.9198 112.826 71.3856 112.797 71.8895L111.578 71.8938C111.587 71.381 111.407 70.943 111.038 70.5801C110.675 70.2128 110.174 69.9674 109.535 69.8439C108.934 69.7216 108.422 69.7506 108 69.9308C107.58 70.1057 107.334 70.3954 107.262 70.7998C107.222 71.0257 107.256 71.232 107.364 71.4189C107.473 71.6006 107.694 71.7938 108.026 71.9986C108.363 72.2043 108.851 72.45 109.488 72.7357C110.235 73.0733 110.813 73.3917 111.22 73.691C111.628 73.9904 111.9 74.3064 112.036 74.6391C112.172 74.9718 112.202 75.3588 112.124 75.8C111.982 76.6036 111.571 77.1837 110.891 77.5403C110.217 77.8926 109.357 77.9766 108.312 77.7923ZM116.591 79.252C115.593 79.0761 114.809 78.7158 114.238 78.1712C113.674 77.6275 113.385 76.9593 113.373 76.1665L114.59 76.1779C114.631 76.6834 114.849 77.1199 115.244 77.4875C115.646 77.8508 116.178 78.0908 116.84 78.2074C117.486 78.3214 118.019 78.2773 118.439 78.0751C118.86 77.8678 119.112 77.5304 119.194 77.0629C119.241 76.8003 119.218 76.5769 119.126 76.3928C119.04 76.2044 118.828 76.0073 118.491 75.8016C118.153 75.5958 117.642 75.3324 116.957 75.0112C116.221 74.6649 115.655 74.3483 115.256 74.0614C114.857 73.7744 114.589 73.4782 114.454 73.1726C114.319 72.8618 114.287 72.5069 114.357 72.1077C114.442 71.6245 114.654 71.2257 114.991 70.9115C115.328 70.592 115.757 70.3751 116.275 70.2607C116.794 70.141 117.374 70.1377 118.015 70.2507C118.656 70.3637 119.21 70.5697 119.677 70.8687C120.151 71.1633 120.509 71.5245 120.753 71.952C120.998 72.3796 121.105 72.8453 121.076 73.3492L119.856 73.3535C119.866 72.8407 119.686 72.4028 119.316 72.0398C118.953 71.6725 118.452 71.4271 117.813 71.3036C117.212 71.1814 116.701 71.2103 116.279 71.3905C115.858 71.5654 115.612 71.8551 115.541 72.2595C115.501 72.4854 115.535 72.6918 115.643 72.8787C115.752 73.0603 115.972 73.2535 116.304 73.4583C116.642 73.664 117.129 73.9097 117.766 74.1954C118.514 74.533 119.091 74.8515 119.499 75.1508C119.906 75.4501 120.178 75.7661 120.315 76.0988C120.451 76.4316 120.48 76.8185 120.402 77.2597C120.261 78.0633 119.85 78.6434 119.169 79C118.495 79.3523 117.636 79.4363 116.591 79.252Z" fill="#6B7280"/>
</svg>
