<svg width="24" height="24" viewBox="0 0 24 24" fill="none" xmlns="http://www.w3.org/2000/svg">
<path d="M23.25 13.4719V10.5281C23.25 10.4175 23.1656 10.3237 23.0569 10.3125L19.7137 9.95813C19.6256 9.94875 19.5544 9.88688 19.53 9.8025C19.3688 9.24937 19.1494 8.7225 18.8775 8.22937C18.8344 8.1525 18.8419 8.05688 18.8981 7.98938L21.0131 5.37563C21.0825 5.28937 21.0769 5.16375 20.9981 5.08687L18.9169 3.00563C18.8792 2.9678 18.8287 2.94533 18.7754 2.94256C18.722 2.93978 18.6696 2.95691 18.6281 2.99062L16.0106 5.10375C15.9412 5.16 15.8475 5.16563 15.7706 5.12437C15.2715 4.85038 14.744 4.63159 14.1975 4.47188C14.1131 4.4475 14.0512 4.37625 14.0419 4.28813L13.6875 0.943125C13.6763 0.834375 13.5825 0.75 13.4719 0.75H10.5281C10.4175 0.75 10.3237 0.834375 10.3125 0.943125L9.95813 4.28625C9.94875 4.37438 9.88688 4.44563 9.8025 4.47C9.24937 4.63125 8.7225 4.85063 8.22937 5.1225C8.1525 5.16563 8.05688 5.15812 7.98938 5.10187L5.37563 2.98875C5.33419 2.95504 5.28171 2.93791 5.22836 2.94068C5.17502 2.94345 5.1246 2.96593 5.08687 3.00375L3.00563 5.085C2.9678 5.12272 2.94533 5.17314 2.94256 5.22649C2.93978 5.27984 2.95691 5.33231 2.99062 5.37375L5.10563 7.9875C5.16187 8.05687 5.1675 8.15063 5.12625 8.2275C4.85225 8.72662 4.63346 9.25411 4.47375 9.80062C4.44938 9.885 4.37812 9.94687 4.29 9.95625L0.943125 10.3125C0.834375 10.3237 0.75 10.4175 0.75 10.5281V13.4719C0.75 13.5825 0.834375 13.6763 0.943125 13.6875L4.28625 14.0419C4.37438 14.0512 4.44563 14.1131 4.47 14.1975C4.63125 14.7506 4.85063 15.2775 5.1225 15.7706C5.16563 15.8475 5.15812 15.9431 5.10187 16.0106L2.98875 18.6244C2.91937 18.7106 2.925 18.8363 3.00375 18.9131L5.085 20.9944C5.16375 21.0731 5.2875 21.0788 5.37375 21.0094L7.9875 18.8944C8.05687 18.8381 8.15063 18.8325 8.2275 18.8738C8.7225 19.1456 9.24938 19.365 9.80062 19.5262C9.885 19.5506 9.94687 19.6219 9.95625 19.71L10.3125 23.0569C10.3237 23.1675 10.4175 23.25 10.5281 23.25H13.4719C13.5825 23.25 13.6763 23.1656 13.6875 23.0569L14.0419 19.7137C14.0512 19.6256 14.1131 19.5544 14.1975 19.53C14.7506 19.3688 15.2775 19.1494 15.7706 18.8775C15.8475 18.8344 15.9431 18.8419 16.0106 18.8981L18.6244 21.0131C18.7106 21.0825 18.8363 21.0769 18.9131 20.9981L20.9944 18.9169C21.0731 18.8381 21.0788 18.7144 21.0094 18.6281L18.8944 16.0144C18.8381 15.945 18.8325 15.8512 18.8738 15.7744C19.1456 15.2794 19.365 14.7525 19.5262 14.2013C19.5506 14.1169 19.6219 14.055 19.71 14.0456L23.0569 13.6875C23.1656 13.6763 23.25 13.5825 23.25 13.4719ZM12 14.115C10.8319 14.115 9.885 13.1681 9.885 12C9.885 10.8319 10.8319 9.885 12 9.885C13.1681 9.885 14.115 10.8319 14.115 12C14.115 13.1681 13.1681 14.115 12 14.115Z" fill="#00ACFC"/>
<path d="M15.1041 9.27742C15.7923 10.0612 16.1879 11.1093 16.1223 12.2493C16.0004 14.3418 14.2791 16.0349 12.1848 16.1268C11.2941 16.1662 10.4635 15.9224 9.77352 15.4799C9.72102 15.4462 9.66477 15.5174 9.70977 15.5624C10.1415 16.004 10.6652 16.345 11.2437 16.5612C11.8221 16.7773 12.4412 16.8633 13.0566 16.813C15.0779 16.6537 16.7241 15.0318 16.9098 13.0124C17.0541 11.4449 16.336 10.0368 15.1791 9.20055C15.1248 9.16305 15.0629 9.22867 15.1041 9.27742Z" fill="#2F7889"/>
<path d="M8.22569 12.2477C8.10006 9.78211 9.69381 7.97461 11.9776 7.97461C12.0994 7.97461 12.2926 7.97461 12.4426 8.14711C12.6319 8.36836 12.6488 8.63461 12.4426 8.85398C12.2907 9.01523 12.0769 9.02648 11.9682 9.04148C9.66194 9.33961 9.12194 10.7946 9.00006 12.1859C8.99444 12.2477 9.01131 12.6265 8.67944 12.6659C8.27631 12.7127 8.22756 12.3077 8.22569 12.2477Z" fill="#B9E4EA"/>
<path d="M4.73242 12.3505C4.73055 8.21985 7.71367 4.81485 11.8818 4.6536C12.0093 4.64797 12.3412 4.6536 12.5474 4.83922C12.7368 5.00985 12.8062 5.30985 12.6955 5.55547C12.5174 5.9511 12.1612 5.9436 12.0655 5.94735C8.59492 6.0711 5.6568 8.89672 5.65492 12.313C5.65492 12.3673 5.64555 12.4217 5.6268 12.4705L5.60805 12.5173C5.46555 12.8886 4.94805 12.9092 4.77742 12.5511C4.7493 12.4873 4.73242 12.4198 4.73242 12.3505Z" fill="#94D1E0"/>
</svg>
