<svg width="24" height="24" viewBox="0 0 24 24" fill="none" xmlns="http://www.w3.org/2000/svg">
<g clip-path="url(#clip0_3001_13456)">
<path d="M16.8765 3.07706L17.6172 1.79437L19.366 2.80406L18.6254 4.08675L16.8765 3.07706ZM16.6874 4.03144L17.142 3.24394L18.2787 3.90019L17.824 4.68769L16.6874 4.03144ZM10.1309 0H13.8696V1.49625H10.1309V0ZM10.8752 1.5H13.1252V3.5625H10.8752V1.5Z" fill="#2F2F2F"/>
<path d="M12 23.8223C17.9025 23.8223 22.6875 19.0373 22.6875 13.1348C22.6875 7.23222 17.9025 2.44727 12 2.44727C6.09746 2.44727 1.3125 7.23222 1.3125 13.1348C1.3125 19.0373 6.09746 23.8223 12 23.8223Z" fill="#FF7D52"/>
<path d="M11.9996 21.5345C7.36836 21.5345 3.59961 17.7676 3.59961 13.1345C3.59961 8.5032 7.36648 4.73633 11.9996 4.73633C16.6309 4.73633 20.3977 8.50508 20.3977 13.1345C20.3996 17.7676 16.6309 21.5345 11.9996 21.5345Z" fill="white"/>
<path d="M11.9994 3.83984C6.87313 3.83984 2.70312 8.01172 2.70312 13.1361C2.70312 18.2623 6.87313 22.4323 11.9994 22.4323C17.1256 22.4323 21.2956 18.2623 21.2956 13.1361C21.2956 8.00984 17.1256 3.83984 11.9994 3.83984ZM11.9994 21.5342C7.36812 21.5342 3.59938 17.7673 3.59938 13.1342C3.59938 8.50297 7.36625 4.73609 11.9994 4.73609C16.6306 4.73609 20.3975 8.50484 20.3975 13.1342C20.3994 17.7673 16.6306 21.5342 11.9994 21.5342Z" fill="#FFDFCE"/>
<path d="M12.8687 12.0145V8.16328H12.6699V5.99578C12.6699 5.70703 12.4356 5.47266 12.1468 5.47266H11.8524C11.5637 5.47266 11.3293 5.70703 11.3293 5.99578V8.16328H11.1306V12.0145C10.7237 12.3295 10.4874 12.8545 10.6074 13.432C10.7218 13.9833 11.1662 14.4258 11.7193 14.5308C12.6268 14.7033 13.4218 14.0133 13.4218 13.1339C13.4237 12.6764 13.2043 12.2752 12.8687 12.0145ZM11.5543 13.432C11.5449 13.417 11.5374 13.4002 11.5299 13.3852C11.4887 13.3102 11.4643 13.2258 11.4643 13.1339C11.4643 13.0439 11.4887 12.9577 11.5299 12.8827C11.6199 12.7139 11.7962 12.5977 12.0006 12.5977C12.2049 12.5977 12.3812 12.7158 12.4712 12.8845C12.5106 12.9595 12.5368 13.0439 12.5368 13.1339C12.5368 13.2258 12.5124 13.3102 12.4712 13.3852C12.4637 13.402 12.4562 13.4189 12.4468 13.432C12.3887 13.5183 12.3081 13.5858 12.2124 13.627C12.2106 13.6289 12.2068 13.6289 12.2049 13.6308C12.1431 13.6552 12.0737 13.6702 12.0024 13.6702C11.9293 13.6702 11.8618 13.6552 11.7999 13.6308C11.7981 13.6289 11.7943 13.6289 11.7924 13.627C11.6931 13.5858 11.6124 13.5183 11.5543 13.432Z" fill="#2F2F2F"/>
<path d="M19.2628 13.6721C19.559 13.6721 19.7991 13.432 19.7991 13.1359C19.7991 12.8397 19.559 12.5996 19.2628 12.5996C18.9666 12.5996 18.7266 12.8397 18.7266 13.1359C18.7266 13.432 18.9666 13.6721 19.2628 13.6721Z" fill="#2F2F2F"/>
<path d="M18.5588 9.96809C18.6819 9.89672 18.7716 9.77954 18.8085 9.64215C18.8454 9.50477 18.8264 9.35837 18.7557 9.23496C18.6843 9.11242 18.5675 9.02299 18.4305 8.98613C18.2936 8.94926 18.1477 8.96793 18.0244 9.03809C17.9014 9.10946 17.8116 9.22664 17.7747 9.36402C17.7378 9.5014 17.7568 9.6478 17.8276 9.77121C17.8625 9.83226 17.9092 9.8858 17.965 9.92876C18.0207 9.97172 18.0843 10.0033 18.1523 10.0215C18.2202 10.0398 18.2911 10.0445 18.3609 10.0354C18.4306 10.0262 18.4979 10.0033 18.5588 9.96809ZM15.9001 6.38121C15.8391 6.34598 15.7719 6.32312 15.7021 6.31395C15.6324 6.30477 15.5615 6.30947 15.4935 6.32776C15.4256 6.34605 15.3619 6.37758 15.3062 6.42054C15.2505 6.4635 15.2038 6.51704 15.1688 6.57809C15.1336 6.63901 15.1108 6.70627 15.1017 6.77602C15.0926 6.84576 15.0973 6.91662 15.1156 6.98455C15.1339 7.05247 15.1654 7.11612 15.2083 7.17185C15.2512 7.22758 15.3047 7.2743 15.3657 7.30934C15.6225 7.45746 15.9507 7.36934 16.0969 7.11246C16.1322 7.05156 16.155 6.9843 16.1642 6.91454C16.1734 6.84477 16.1687 6.77389 16.1504 6.70594C16.1321 6.638 16.1006 6.57434 16.0576 6.51861C16.0146 6.46289 15.9611 6.41619 15.9001 6.38121ZM8.10005 6.37934C7.97713 6.45035 7.88738 6.5672 7.85047 6.70427C7.81357 6.84135 7.83252 6.98746 7.90318 7.11059C7.93816 7.17164 7.98485 7.22518 8.04058 7.26814C8.0963 7.3111 8.15996 7.34263 8.22791 7.36092C8.29585 7.37921 8.36673 7.3839 8.4365 7.37473C8.50626 7.36556 8.57352 7.3427 8.63442 7.30746C8.69537 7.27238 8.74879 7.2256 8.7916 7.16981C8.83442 7.11402 8.86579 7.05032 8.88391 6.98237C8.90203 6.91442 8.90654 6.84356 8.89719 6.77385C8.88784 6.70415 8.86481 6.63699 8.82943 6.57621C8.75864 6.45357 8.64213 6.36399 8.50541 6.32708C8.3687 6.29018 8.22294 6.30897 8.10005 6.37934Z" fill="#2F2F2F"/>
<path d="M6.17351 9.77092C6.32156 9.51441 6.23364 9.18646 5.97714 9.03841C5.72064 8.89036 5.39268 8.97828 5.24463 9.23478C5.09658 9.49128 5.1845 9.81924 5.441 9.96729C5.6975 10.1153 6.02546 10.0274 6.17351 9.77092Z" fill="#2F2F2F"/>
<path d="M4.73547 13.6702C5.03163 13.6702 5.27172 13.4301 5.27172 13.1339C5.27172 12.8377 5.03163 12.5977 4.73547 12.5977C4.43931 12.5977 4.19922 12.8377 4.19922 13.1339C4.19922 13.4301 4.43931 13.6702 4.73547 13.6702Z" fill="#2F2F2F"/>
<path d="M5.44117 16.3036C5.31862 16.3749 5.2292 16.4918 5.19233 16.6287C5.15547 16.7656 5.17414 16.9116 5.24429 17.0348C5.27933 17.0958 5.32605 17.1493 5.38178 17.1922C5.43751 17.2351 5.50116 17.2666 5.56909 17.2849C5.63701 17.3032 5.70787 17.3079 5.77762 17.2988C5.84736 17.2896 5.91462 17.2669 5.97554 17.2317C6.03659 17.1967 6.09014 17.15 6.13309 17.0943C6.17605 17.0386 6.20758 16.9749 6.22587 16.907C6.24417 16.839 6.24886 16.7681 6.23969 16.6984C6.23051 16.6286 6.20765 16.5613 6.17242 16.5004C6.10141 16.3775 5.98456 16.2878 5.84749 16.2509C5.71041 16.214 5.56429 16.2329 5.44117 16.3036Z" fill="#2F2F2F"/>
<path d="M8.83367 19.6947C8.98172 19.4382 8.8938 19.1103 8.63729 18.9622C8.38079 18.8142 8.05284 18.9021 7.90479 19.1586C7.75674 19.4151 7.84466 19.7431 8.10116 19.8911C8.35766 20.0392 8.68562 19.9512 8.83367 19.6947Z" fill="#2F2F2F"/>
<path d="M11.9991 20.9358C12.2953 20.9358 12.5354 20.6957 12.5354 20.3995C12.5354 20.1034 12.2953 19.8633 11.9991 19.8633C11.703 19.8633 11.4629 20.1034 11.4629 20.3995C11.4629 20.6957 11.703 20.9358 11.9991 20.9358Z" fill="#2F2F2F"/>
<path d="M15.9009 19.8913C16.1575 19.7433 16.2454 19.4153 16.0973 19.1588C15.9493 18.9023 15.6213 18.8144 15.3648 18.9624C15.1083 19.1105 15.0204 19.4384 15.1684 19.6949C15.3165 19.9514 15.6444 20.0394 15.9009 19.8913Z" fill="#2F2F2F"/>
<path d="M18.7546 17.0349C18.9022 16.7794 18.8141 16.4521 18.5577 16.304C18.3013 16.1558 17.9737 16.2428 17.826 16.4983C17.6783 16.7538 17.7665 17.0811 18.0229 17.2293C18.2793 17.3775 18.6069 17.2905 18.7546 17.0349Z" fill="#2F2F2F"/>
</g>
<defs>
<clipPath id="clip0_3001_13456">
<rect width="24" height="24" fill="white"/>
</clipPath>
</defs>
</svg>
