<svg width="386" height="178" viewBox="0 0 386 178" fill="none" xmlns="http://www.w3.org/2000/svg">
<path d="M0 12C0 5.37258 5.37258 0 12 0H374C380.627 0 386 5.37258 386 12V178H0V12Z" fill="#F9FAFB"/>
<path d="M70.1113 58.6152C70.1113 51.9878 75.4839 46.6152 82.1113 46.6152H303.887C310.515 46.6152 315.887 51.9878 315.887 58.6152V106.615C315.887 113.243 310.515 118.615 303.887 118.615H82.1113C75.4839 118.615 70.1113 113.243 70.1113 106.615V58.6152Z" fill="#F9FAFB"/>
<g filter="url(#filter0_d_596_10183)">
<path d="M88.1113 82.6152C88.1113 69.3604 98.8565 58.6152 112.111 58.6152C125.366 58.6152 136.111 69.3604 136.111 82.6152C136.111 95.8701 125.366 106.615 112.111 106.615C98.8565 106.615 88.1113 95.8701 88.1113 82.6152Z" fill="#F9FAFB" shape-rendering="crispEdges"/>
<path d="M102.111 81.99L101.505 82.1416C100.392 82.4198 99.6113 83.4197 99.6113 84.567V86.913C99.6113 88.0602 100.392 89.0601 101.505 89.3383L103.679 89.882C104.153 90.0003 104.611 89.6423 104.611 89.1543V82.3256C104.611 81.8376 104.153 81.4796 103.679 81.598L102.111 81.99ZM102.111 81.99V81.3652C102.111 75.8424 106.588 71.3652 112.111 71.3652C117.634 71.3652 122.111 75.8424 122.111 81.3652V81.99M122.111 81.99L122.718 82.1416C123.831 82.4198 124.611 83.4197 124.611 84.567V86.913C124.611 88.0602 123.831 89.0601 122.718 89.3383L122.111 89.4899M122.111 81.99L120.543 81.598C120.07 81.4796 119.611 81.8376 119.611 82.3256V89.1543C119.611 89.6423 120.07 90.0003 120.543 89.882L122.111 89.4899M115.861 93.2402H119.611C120.992 93.2402 122.111 92.121 122.111 90.7402V90.1152V89.4899M115.861 93.2402C115.861 92.2047 115.022 91.3652 113.986 91.3652H110.236C109.201 91.3652 108.361 92.2047 108.361 93.2402C108.361 94.2757 109.201 95.1152 110.236 95.1152H113.986C115.022 95.1152 115.861 94.2757 115.861 93.2402Z" stroke="#6B7280" stroke-width="2.25"/>
</g>
<path d="M148.111 66.8652C148.111 65.6226 149.119 64.6152 150.361 64.6152H174.034C175.276 64.6152 176.284 65.6226 176.284 66.8652C176.284 68.1079 175.276 69.1152 174.034 69.1152H150.361C149.119 69.1152 148.111 68.1079 148.111 66.8652Z" fill="#CED4DA"/>
<path d="M185.283 66.8652C185.283 65.6226 186.291 64.6152 187.533 64.6152H295.637C296.879 64.6152 297.887 65.6226 297.887 66.8652C297.887 68.1079 296.879 69.1152 295.637 69.1152H187.533C186.291 69.1152 185.283 68.1079 185.283 66.8652Z" fill="#CED4DA"/>
<g opacity="0.6">
<path d="M148.111 77.3652C148.111 76.1226 149.119 75.1152 150.361 75.1152H258.465C259.708 75.1152 260.715 76.1226 260.715 77.3652C260.715 78.6079 259.708 79.6152 258.465 79.6152H150.361C149.119 79.6152 148.111 78.6079 148.111 77.3652Z" fill="#CED4DA"/>
<path d="M269.715 77.3652C269.715 76.1226 270.722 75.1152 271.965 75.1152H295.637C296.88 75.1152 297.887 76.1226 297.887 77.3652C297.887 78.6079 296.88 79.6152 295.637 79.6152H271.965C270.722 79.6152 269.715 78.6079 269.715 77.3652Z" fill="#CED4DA"/>
</g>
<g opacity="0.2">
<path d="M148.111 87.8652C148.111 86.6226 149.119 85.6152 150.361 85.6152H295.637C296.88 85.6152 297.887 86.6226 297.887 87.8652C297.887 89.1079 296.88 90.1152 295.637 90.1152H150.361C149.119 90.1152 148.111 89.1079 148.111 87.8652Z" fill="#CED4DA"/>
</g>
<path opacity="0.1" d="M148.111 98.3652C148.111 97.1226 149.119 96.1152 150.361 96.1152H196.083C197.326 96.1152 198.333 97.1226 198.333 98.3652C198.333 99.6079 197.326 100.615 196.083 100.615H150.361C149.119 100.615 148.111 99.6079 148.111 98.3652Z" fill="#CED4DA"/>
<path d="M113.884 131.387L102.428 117.974H125.339L113.884 131.387Z" fill="#F9FAFB"/>
<defs>
<filter id="filter0_d_596_10183" x="83.6113" y="55.6152" width="57" height="57" filterUnits="userSpaceOnUse" color-interpolation-filters="sRGB">
<feFlood flood-opacity="0" result="BackgroundImageFix"/>
<feColorMatrix in="SourceAlpha" type="matrix" values="0 0 0 0 0 0 0 0 0 0 0 0 0 0 0 0 0 0 127 0" result="hardAlpha"/>
<feOffset dy="1.5"/>
<feGaussianBlur stdDeviation="2.25"/>
<feComposite in2="hardAlpha" operator="out"/>
<feColorMatrix type="matrix" values="0 0 0 0 0.65098 0 0 0 0 0.686275 0 0 0 0 0.764706 0 0 0 0.4 0"/>
<feBlend mode="normal" in2="BackgroundImageFix" result="effect1_dropShadow_596_10183"/>
<feBlend mode="normal" in="SourceGraphic" in2="effect1_dropShadow_596_10183" result="shape"/>
</filter>
</defs>
</svg>
