<svg width="618" height="400" viewBox="0 0 618 400" fill="none" xmlns="http://www.w3.org/2000/svg">
<g clip-path="url(#clip0_457_9694)">
<path d="M0 24C0 10.7452 10.7452 0 24 0H594C607.255 0 618 10.7452 618 24V376C618 389.255 607.255 400 594 400H24C10.7452 400 0 389.255 0 376V24Z" fill="#F5F5F5"/>
<circle cx="323.312" cy="227.929" r="199.349" stroke="url(#paint0_linear_457_9694)" stroke-width="15"/>
<path d="M230.731 217.22C228.257 208.737 233.13 199.854 241.613 197.381L404.83 149.797C413.313 147.324 422.195 152.196 424.669 160.68L456.275 269.092C458.748 277.576 453.876 286.458 445.393 288.931L282.176 336.515C273.692 338.988 264.81 334.116 262.337 325.632L230.731 217.22Z" fill="#9B5427"/>
<g clip-path="url(#clip1_457_9694)">
<path d="M202.312 113.381H266.312V177.381H202.312V113.381Z" fill="#012169"/>
<path d="M266.312 113.381V121.381L242.562 145.381L266.312 168.756V177.381H257.937L234.062 153.881L210.812 177.381H202.312V168.881L225.562 145.506L202.312 122.631V113.381H210.062L234.062 136.881L257.312 113.381H266.312Z" fill="white"/>
<path d="M225.312 153.881L226.687 158.131L207.562 177.381H202.312V177.006L225.312 153.881ZM240.812 152.381L247.562 153.381L266.312 171.756V177.381L240.812 152.381ZM266.312 113.381L242.312 137.881L241.812 132.381L260.562 113.381H266.312ZM202.312 113.506L226.437 137.131L219.062 136.131L202.312 119.506V113.506Z" fill="#C8102E"/>
<path d="M224.312 113.381V177.381H244.312V113.381H224.312ZM202.312 135.381V155.381H266.312V135.381H202.312Z" fill="white"/>
<path d="M202.312 139.381V151.381H266.312V139.381H202.312ZM228.312 113.381V177.381H240.312V113.381H228.312Z" fill="#C8102E"/>
</g>
<g clip-path="url(#clip2_457_9694)">
<path d="M259.312 120.381H323.312V184.381H259.312" fill="#BD3D44"/>
<path d="M259.312 127.631H323.312H259.312ZM259.312 137.506H323.312H259.312ZM259.312 147.381H323.312H259.312ZM259.312 157.256H323.312H259.312ZM259.312 167.131H323.312H259.312ZM259.312 177.006H323.312H259.312Z" fill="black"/>
<path d="M259.312 127.631H323.312M259.312 137.506H323.312M259.312 147.381H323.312M259.312 157.256H323.312M259.312 167.131H323.312M259.312 177.006H323.312" stroke="white" stroke-width="5"/>
<path d="M259.312 120.381H308.062V154.756H259.312V120.381Z" fill="#192F5D"/>
</g>
<g clip-path="url(#clip3_457_9694)">
<path fill-rule="evenodd" clip-rule="evenodd" d="M311.503 134.217H375.503V198.217H311.503V134.217Z" fill="white"/>
<path fill-rule="evenodd" clip-rule="evenodd" d="M354.163 134.217H375.503V198.217H354.163V134.217ZM311.503 134.217H332.833V198.217H311.503V134.217Z" fill="#008753"/>
</g>
<path d="M231.623 219.124C229.15 210.641 234.022 201.759 242.506 199.285L402.317 152.695C410.8 150.221 419.682 155.094 422.155 163.577L453.209 270.092C455.682 278.576 450.81 287.458 442.326 289.931L282.515 336.522C274.032 338.995 265.15 334.123 262.676 325.64L231.623 219.124Z" fill="#BC7039"/>
<path d="M389.224 165.721L389.363 166.201L393.148 165.097C394.143 164.808 395.142 164.622 396.135 164.534L396.09 164.036C398.222 163.847 400.326 164.094 402.296 164.717L402.146 165.193C404.086 165.807 405.891 166.797 407.451 168.103L407.77 167.72C409.354 169.046 410.692 170.689 411.679 172.587L411.237 172.818C411.697 173.703 412.077 174.645 412.367 175.64L413.455 179.37L413.935 179.23L416.11 186.692L415.63 186.832L417.805 194.294L418.285 194.154L420.461 201.616L419.981 201.756L422.156 209.217L422.636 209.077L424.812 216.539L424.332 216.679L426.507 224.141L426.987 224.001L429.162 231.463L428.682 231.603L430.858 239.065L431.338 238.925L433.513 246.387L433.033 246.527L435.209 253.988L435.689 253.848L437.864 261.31L437.384 261.45L438.472 265.182C438.762 266.176 438.947 267.175 439.036 268.169L439.532 268.124C439.721 270.255 439.474 272.36 438.851 274.33L438.376 274.179C437.763 276.119 436.772 277.924 435.466 279.484L435.848 279.804C434.522 281.388 432.88 282.727 430.98 283.713L430.752 283.27C429.867 283.73 428.924 284.11 427.93 284.4L424.145 285.504L424.285 285.984L416.715 288.191L416.575 287.711L409.006 289.917L409.146 290.397L401.577 292.604L401.437 292.124L393.868 294.331L394.008 294.811L386.438 297.017L386.298 296.537L378.73 298.744L378.87 299.224L371.3 301.431L371.16 300.951L363.591 303.157L363.731 303.637L356.162 305.844L356.022 305.364L348.453 307.571L348.593 308.051L341.023 310.258L340.883 309.778L333.314 311.984L333.454 312.464L325.885 314.671L325.745 314.191L318.175 316.398L318.315 316.878L310.747 319.084L310.607 318.604L303.037 320.811L303.177 321.291L295.608 323.498L295.468 323.018L291.684 324.121C290.689 324.411 289.69 324.597 288.697 324.685L288.74 325.181C286.608 325.37 284.504 325.124 282.535 324.501L282.686 324.025C280.746 323.412 278.941 322.422 277.381 321.115L277.06 321.498C275.476 320.171 274.137 318.529 273.151 316.63L273.595 316.401C273.193 315.627 272.851 314.808 272.578 313.95L272.465 313.579L271.377 309.847L270.897 309.987L268.722 302.526L269.202 302.386L267.026 294.924L266.546 295.064L264.371 287.602L264.851 287.462L262.675 280L262.195 280.14L260.02 272.678L260.5 272.538L258.325 265.077L257.845 265.216L255.669 257.755L256.149 257.615L253.974 250.153L253.494 250.293L251.318 242.831L251.798 242.691L249.623 235.229L249.143 235.369L246.968 227.907L247.448 227.767L246.36 224.037C246.07 223.043 245.884 222.043 245.796 221.05L245.299 221.093C245.12 219.071 245.332 217.073 245.886 215.192L245.98 214.888L246.456 215.039C247.069 213.1 248.06 211.294 249.366 209.734L248.982 209.414C250.309 207.83 251.951 206.492 253.85 205.506L254.08 205.948C254.965 205.489 255.908 205.108 256.902 204.818L260.687 203.715L260.547 203.235L268.116 201.028L268.256 201.508L275.825 199.301L275.686 198.821L283.254 196.615L283.394 197.095L290.964 194.888L290.824 194.408L298.393 192.201L298.533 192.681L306.102 190.475L305.962 189.995L313.532 187.788L313.672 188.268L321.241 186.061L321.101 185.581L328.67 183.374L328.81 183.854L336.379 181.648L336.239 181.168L343.809 178.961L343.948 179.441L351.517 177.234L351.377 176.754L358.947 174.548L359.087 175.028L366.656 172.821L366.516 172.341L374.085 170.134L374.225 170.614L381.794 168.408L381.654 167.928L389.224 165.721Z" stroke="#F8B815" stroke-dasharray="8 8"/>
<path d="M392.715 213.768C390.823 207.417 394.438 200.734 400.789 198.842L440.126 187.125C446.478 185.233 453.161 188.848 455.053 195.199L462.199 219.191C464.091 225.543 460.476 232.226 454.124 234.118L414.787 245.835C408.436 247.727 401.753 244.112 399.861 237.76L392.715 213.768Z" fill="#9B5427"/>
<path d="M398.774 212.079C396.882 205.727 400.498 199.044 406.849 197.152L440.587 187.103C446.939 185.211 453.621 188.826 455.513 195.178L461.777 216.207C463.669 222.558 460.054 229.241 453.702 231.133L419.965 241.183C413.613 243.075 406.93 239.459 405.038 233.108L398.774 212.079Z" fill="#D27D3A"/>
<circle cx="433.075" cy="213.308" r="9.33154" fill="#FFBC28"/>
<g opacity="0.2">
<g clip-path="url(#clip4_457_9694)">
<path d="M58.3286 290.111L82.8806 316.44L56.5518 340.992L31.9999 314.663L58.3286 290.111Z" fill="#006B3F"/>
<path d="M58.3286 290.111L82.8806 316.44L65.3298 332.806L40.7778 306.478L58.3286 290.111Z" fill="#FCD116"/>
<path d="M58.3286 290.111L82.8806 316.44L74.1026 324.626L49.5507 298.297L58.3286 290.111Z" fill="#CE1126"/>
<path d="M61.8265 311.462L55.7151 322.497L54.1672 309.981L62.77 319.206L50.3971 316.794L61.8265 311.462Z" fill="black"/>
</g>
</g>
<g opacity="0.1">
<g clip-path="url(#clip5_457_9694)">
<mask id="mask0_457_9694" style="mask-type:luminance" maskUnits="userSpaceOnUse" x="556" y="332" width="48" height="49">
<path d="M556 332.807H603.993V380.799H556V332.807Z" fill="white"/>
</mask>
<g mask="url(#mask0_457_9694)">
<path fill-rule="evenodd" clip-rule="evenodd" d="M556 332.807H627.989V347.804H556V332.807Z" fill="#009A00"/>
<path fill-rule="evenodd" clip-rule="evenodd" d="M556 347.805H627.989V349.304H556V347.805Z" fill="white"/>
<path fill-rule="evenodd" clip-rule="evenodd" d="M556 349.305H627.989V364.302H556V349.305Z" fill="black"/>
<path fill-rule="evenodd" clip-rule="evenodd" d="M556 364.303H627.989V365.803H556V364.303Z" fill="white"/>
<path fill-rule="evenodd" clip-rule="evenodd" d="M556 365.801H627.989V380.798H556V365.801Z" fill="#FFCA00"/>
<path fill-rule="evenodd" clip-rule="evenodd" d="M556 332.807V380.799L587.505 356.803L556 332.807Z" fill="#FF0000"/>
<path fill-rule="evenodd" clip-rule="evenodd" d="M574.607 364.021L569.807 360.509L565.018 364.021L566.876 358.371L562.038 354.887L567.998 354.916L569.807 349.256L571.626 354.916L577.577 354.887L572.739 358.371L574.607 364.021Z" fill="#FFCA00"/>
<path fill-rule="evenodd" clip-rule="evenodd" d="M565.637 360.083H569.101C569.382 360.393 570.001 360.519 570.591 360.083C571.675 359.483 573.775 360.083 573.775 360.083L574.191 359.638L573.184 356.339L572.817 355.952C572.817 355.952 572.043 355.487 570.572 355.642C569.101 355.797 568.588 355.584 568.588 355.584C568.588 355.584 567.292 355.739 566.934 355.932L566.518 356.348L565.647 360.093L565.637 360.083Z" fill="white" stroke="black" stroke-width="0.106435" stroke-linecap="round" stroke-linejoin="round"/>
<path d="M566.334 359.222C566.334 359.222 569.643 358.815 570.591 360.083C570.059 360.45 569.585 360.47 569.072 360.102C569.159 359.967 570.262 358.815 573.078 359.202" stroke="black" stroke-width="0.106435" stroke-linecap="round" stroke-linejoin="round"/>
<path d="M569.875 355.922L569.846 359.56M572.817 355.98L573.436 358.863" stroke="black" stroke-width="0.106435"/>
<path d="M566.963 355.932L566.624 357.422" stroke="black" stroke-width="0.106435" stroke-linecap="round" stroke-linejoin="round"/>
<path fill-rule="evenodd" clip-rule="evenodd" d="M563.392 360.48L564.205 361.428C564.302 361.486 564.389 361.486 564.476 361.428L565.676 359.977L566.189 359.358C566.223 359.318 566.25 359.272 566.266 359.222C566.283 359.172 566.289 359.12 566.285 359.067L567.253 358.196C567.33 358.216 567.379 358.226 567.447 358.226C567.359 358.196 567.292 358.158 567.369 358.051L567.582 357.887L567.756 358.1C567.756 358.1 567.514 358.419 567.485 358.419H567.224L566.711 358.874L566.934 359.067L567.272 359.987L567.679 359.696L567.418 358.758L567.998 358.129L567.776 357.79L567.921 357.597C567.921 357.597 569.924 358.854 570.698 358.516C570.717 358.525 570.746 357.616 570.746 357.616C570.746 357.616 568.666 357.403 568.617 356.997C568.569 356.581 569.082 356.532 569.082 356.532L568.859 356.223L568.908 356.048L569.275 356.513L570.088 355.807L574.916 361.312C575.178 361.206 575.236 361.138 575.255 360.877L570.514 355.449L570.882 355.061C570.949 354.984 570.978 354.945 570.978 354.82L571.53 354.336C571.679 354.388 571.805 354.491 571.888 354.626L573.417 353.339C573.455 353.378 573.581 353.417 573.659 353.368L576.174 350.949L573.436 352.884L573.339 352.817C573.339 352.739 573.436 352.72 573.339 352.575C573.233 352.449 573.068 352.701 573.049 352.701C573.03 352.701 572.652 352.565 572.565 352.401L572.546 352.846L571.839 353.494L571.307 353.475L570.533 354.22L570.436 354.51L570.562 354.752C570.562 354.752 570.156 355.11 570.156 355.091C570.156 355.061 570.069 354.984 570.059 354.965L570.417 354.655L570.465 354.433L570.349 354.249C570.311 354.278 569.866 354.752 569.837 354.703L568.55 353.223L568.617 352.952L567.795 352.062C567.505 351.965 567.021 351.946 566.924 352.594C566.856 352.749 566.227 352.613 566.227 352.613L565.898 352.691L563.992 355.39L565.057 356.668L567.224 353.92L567.282 353.146L567.737 353.649C567.892 353.668 568.037 353.668 568.172 353.6L569.459 355.032L569.246 355.245L569.44 355.458L569.653 355.303L569.749 355.429C569.633 355.487 569.556 355.565 569.459 355.623C569.275 355.516 569.111 355.371 569.13 355.149L568.404 355.748L568.375 355.874L566.227 357.655L566.034 357.684L565.985 358.235L567.388 357.074V356.91L567.534 357.026L568.617 356.155C568.617 356.155 568.695 356.252 568.666 356.252C568.637 356.252 567.698 357.122 567.698 357.122L567.679 357.219L567.514 357.364L567.418 357.297L566.111 358.458H565.918L565.192 359.174C565.008 359.193 564.844 359.212 564.689 359.319L563.392 360.48Z" fill="black" stroke="black" stroke-width="0.106435" stroke-linecap="round" stroke-linejoin="round"/>
</g>
</g>
</g>
<g opacity="0.2">
<g clip-path="url(#clip6_457_9694)">
<path d="M19 17.7324H67V65.7324H19V17.7324Z" fill="#003399"/>
<path d="M42.9997 25.3633L42.2886 27.7337L43.4738 27.9707L42.9997 25.3633Z" fill="#FFCC00"/>
<path d="M42.9996 25.3633L43.7107 27.7337L42.5255 27.9707L42.9996 25.3633Z" fill="#FFCC00"/>
<path d="M45.2542 27.0005L42.7801 27.0567L42.9209 28.2571L45.2542 27.0005Z" fill="#FFCC00"/>
<path d="M45.2541 27.0014L43.2195 28.4102L42.6278 27.3563L45.2541 27.0014Z" fill="#FFCC00"/>
<path d="M44.393 29.6504L43.575 27.3148L42.4768 27.8196L44.393 29.6504Z" fill="#FFCC00"/>
<path d="M44.3929 29.6504L42.4244 28.1507L43.2439 27.2623L44.3929 29.6504Z" fill="#FFCC00"/>
<path d="M40.7453 27.0005L43.2194 27.0567L43.0786 28.2571L40.7453 27.0005Z" fill="#FFCC00"/>
<path d="M40.7454 27.0014L42.78 28.4102L43.3717 27.3563L40.7454 27.0014Z" fill="#FFCC00"/>
<path d="M41.6066 29.6504L42.4245 27.3148L43.5227 27.8196L41.6066 29.6504Z" fill="#FFCC00"/>
<path d="M41.6066 29.6504L43.5752 28.1507L42.7556 27.2623L41.6066 29.6504Z" fill="#FFCC00"/>
<path d="M42.9999 53.8086L42.2888 56.179L43.474 56.416L42.9999 53.8086Z" fill="#FFCC00"/>
<path d="M42.9998 53.8086L43.7109 56.179L42.5258 56.416L42.9998 53.8086Z" fill="#FFCC00"/>
<path d="M45.2542 55.4458L42.7801 55.502L42.9209 56.7024L45.2542 55.4458Z" fill="#FFCC00"/>
<path d="M45.2541 55.4467L43.2195 56.8555L42.6278 55.8016L45.2541 55.4467Z" fill="#FFCC00"/>
<path d="M44.393 58.0957L43.575 55.7601L42.4768 56.2649L44.393 58.0957Z" fill="#FFCC00"/>
<path d="M44.3929 58.0957L42.4244 56.596L43.2439 55.7076L44.3929 58.0957Z" fill="#FFCC00"/>
<path d="M40.7453 55.4458L43.2194 55.502L43.0786 56.7024L40.7453 55.4458Z" fill="#FFCC00"/>
<path d="M40.7454 55.4467L42.78 56.8555L43.3717 55.8016L40.7454 55.4467Z" fill="#FFCC00"/>
<path d="M41.6066 58.0957L42.4245 55.7601L43.5227 56.2649L41.6066 58.0957Z" fill="#FFCC00"/>
<path d="M41.6066 58.0957L43.5752 56.596L42.7556 55.7076L41.6066 58.0957Z" fill="#FFCC00"/>
<path d="M28.7778 39.5859L28.0667 41.9563L29.2518 42.1933L28.7778 39.5859Z" fill="#FFCC00"/>
<path d="M28.7779 39.5859L29.489 41.9563L28.3038 42.1933L28.7779 39.5859Z" fill="#FFCC00"/>
<path d="M31.032 41.2232L28.5579 41.2794L28.6987 42.4798L31.032 41.2232Z" fill="#FFCC00"/>
<path d="M31.032 41.2241L28.9974 42.6329L28.4057 41.5789L31.032 41.2241Z" fill="#FFCC00"/>
<path d="M30.1705 43.8731L29.3526 41.5374L28.2544 42.0423L30.1705 43.8731Z" fill="#FFCC00"/>
<path d="M30.1705 43.873L28.2019 42.3733L29.0215 41.4849L30.1705 43.873Z" fill="#FFCC00"/>
<path d="M26.5234 41.2232L28.9975 41.2794L28.8567 42.4798L26.5234 41.2232Z" fill="#FFCC00"/>
<path d="M26.5235 41.2241L28.5581 42.6329L29.1497 41.5789L26.5235 41.2241Z" fill="#FFCC00"/>
<path d="M27.3849 43.8731L28.2028 41.5374L29.301 42.0423L27.3849 43.8731Z" fill="#FFCC00"/>
<path d="M27.3849 43.873L29.3535 42.3733L28.534 41.4849L27.3849 43.873Z" fill="#FFCC00"/>
<path d="M34.6703 31.6641L36.6389 30.1644L35.8194 29.276L34.6703 31.6641Z" fill="#FFCC00"/>
<path d="M34.6703 31.6641L35.4882 29.3284L36.5864 29.8333L34.6703 31.6641Z" fill="#FFCC00"/>
<path d="M33.8091 29.0151L35.8437 30.4239L36.4354 29.37L33.8091 29.0151Z" fill="#FFCC00"/>
<path d="M33.8091 29.0142L36.2832 29.0704L36.1424 30.2708L33.8091 29.0142Z" fill="#FFCC00"/>
<path d="M36.0632 27.377L35.3521 29.7473L36.5372 29.9844L36.0632 27.377Z" fill="#FFCC00"/>
<path d="M36.0631 27.377L36.7742 29.7473L35.589 29.9844L36.0631 27.377Z" fill="#FFCC00"/>
<path d="M37.4569 31.666L35.4883 30.1663L36.3078 29.2779L37.4569 31.666Z" fill="#FFCC00"/>
<path d="M37.4569 31.666L36.639 29.3304L35.5408 29.8352L37.4569 31.666Z" fill="#FFCC00"/>
<path d="M38.3181 29.0151L36.2835 30.4239L35.6918 29.37L38.3181 29.0151Z" fill="#FFCC00"/>
<path d="M38.3181 29.0142L35.844 29.0704L35.9848 30.2708L38.3181 29.0142Z" fill="#FFCC00"/>
<path d="M32.1837 36.9375L31.3658 34.6019L30.2676 35.1067L32.1837 36.9375Z" fill="#FFCC00"/>
<path d="M32.1837 36.9375L30.2151 35.4378L31.0346 34.5494L32.1837 36.9375Z" fill="#FFCC00"/>
<path d="M29.3971 36.9375L31.3657 35.4378L30.5462 34.5494L29.3971 36.9375Z" fill="#FFCC00"/>
<path d="M29.3973 36.9375L30.2153 34.6019L31.3135 35.1067L29.3973 36.9375Z" fill="#FFCC00"/>
<path d="M28.5359 34.2885L30.5705 35.6973L31.1622 34.6434L28.5359 34.2885Z" fill="#FFCC00"/>
<path d="M28.5359 34.2896L31.01 34.3458L30.8692 35.5462L28.5359 34.2896Z" fill="#FFCC00"/>
<path d="M33.0449 34.2866L31.0103 35.6954L30.4186 34.6414L33.0449 34.2866Z" fill="#FFCC00"/>
<path d="M33.0449 34.2857L30.5708 34.3419L30.7116 35.5423L33.0449 34.2857Z" fill="#FFCC00"/>
<path d="M30.7904 32.6484L31.5015 35.0188L30.3163 35.2558L30.7904 32.6484Z" fill="#FFCC00"/>
<path d="M30.7905 32.6484L30.0793 35.0188L31.2645 35.2558L30.7905 32.6484Z" fill="#FFCC00"/>
<path d="M33.0474 48.5415L30.5733 48.5977L30.7141 49.7981L33.0474 48.5415Z" fill="#FFCC00"/>
<path d="M33.0473 48.5424L31.0127 49.9512L30.4211 48.8973L33.0473 48.5424Z" fill="#FFCC00"/>
<path d="M32.1859 51.1914L31.368 48.8558L30.2698 49.3606L32.1859 51.1914Z" fill="#FFCC00"/>
<path d="M32.1861 51.1914L30.2176 49.6917L31.0371 48.8033L32.1861 51.1914Z" fill="#FFCC00"/>
<path d="M29.3998 51.1914L31.3684 49.6917L30.5489 48.8033L29.3998 51.1914Z" fill="#FFCC00"/>
<path d="M29.3998 51.1914L30.2177 48.8558L31.3159 49.3606L29.3998 51.1914Z" fill="#FFCC00"/>
<path d="M30.793 46.9043L31.5042 49.2747L30.319 49.5117L30.793 46.9043Z" fill="#FFCC00"/>
<path d="M30.7931 46.9043L30.082 49.2747L31.2672 49.5117L30.7931 46.9043Z" fill="#FFCC00"/>
<path d="M28.5388 48.5435L31.0129 48.5997L30.8721 49.8001L28.5388 48.5435Z" fill="#FFCC00"/>
<path d="M28.5388 48.5444L30.5734 49.9532L31.1651 48.8993L28.5388 48.5444Z" fill="#FFCC00"/>
<path d="M38.1922 53.315L35.7181 53.3712L35.8589 54.5716L38.1922 53.315Z" fill="#FFCC00"/>
<path d="M38.1919 53.3159L36.1573 54.7247L35.5656 53.6707L38.1919 53.3159Z" fill="#FFCC00"/>
<path d="M37.3309 55.9629L36.513 53.6273L35.4148 54.1321L37.3309 55.9629Z" fill="#FFCC00"/>
<path d="M37.3309 55.9629L35.3623 54.4632L36.1819 53.5748L37.3309 55.9629Z" fill="#FFCC00"/>
<path d="M34.5446 55.9629L36.5131 54.4632L35.6936 53.5748L34.5446 55.9629Z" fill="#FFCC00"/>
<path d="M34.5445 55.9629L35.3625 53.6273L36.4607 54.1321L34.5445 55.9629Z" fill="#FFCC00"/>
<path d="M35.9378 51.6758L36.6489 54.0462L35.4637 54.2832L35.9378 51.6758Z" fill="#FFCC00"/>
<path d="M35.9377 51.6758L35.2266 54.0462L36.4117 54.2832L35.9377 51.6758Z" fill="#FFCC00"/>
<path d="M33.6836 53.315L36.1577 53.3712L36.0169 54.5716L33.6836 53.315Z" fill="#FFCC00"/>
<path d="M33.6836 53.3159L35.7182 54.7247L36.3099 53.6707L33.6836 53.3159Z" fill="#FFCC00"/>
<path d="M57.222 39.5859L57.9331 41.9563L56.7479 42.1933L57.222 39.5859Z" fill="#FFCC00"/>
<path d="M57.2221 39.5859L56.511 41.9563L57.6962 42.1933L57.2221 39.5859Z" fill="#FFCC00"/>
<path d="M54.9668 41.2212L57.4409 41.2774L57.3001 42.4778L54.9668 41.2212Z" fill="#FFCC00"/>
<path d="M54.9666 41.2221L57.0012 42.6309L57.5929 41.577L54.9666 41.2221Z" fill="#FFCC00"/>
<path d="M55.829 43.8731L56.6469 41.5374L57.7451 42.0423L55.829 43.8731Z" fill="#FFCC00"/>
<path d="M55.8288 43.873L57.7973 42.3733L56.9778 41.4849L55.8288 43.873Z" fill="#FFCC00"/>
<path d="M59.4763 41.2232L57.0022 41.2794L57.143 42.4798L59.4763 41.2232Z" fill="#FFCC00"/>
<path d="M59.4765 41.2241L57.4419 42.6329L56.8503 41.5789L59.4765 41.2241Z" fill="#FFCC00"/>
<path d="M58.6144 43.8731L57.7964 41.5374L56.6983 42.0423L58.6144 43.8731Z" fill="#FFCC00"/>
<path d="M58.6144 43.873L56.6458 42.3733L57.4653 41.4849L58.6144 43.873Z" fill="#FFCC00"/>
<path d="M51.3299 31.666L49.3614 30.1663L50.1809 29.2779L51.3299 31.666Z" fill="#FFCC00"/>
<path d="M51.33 31.666L50.512 29.3304L49.4138 29.8352L51.33 31.666Z" fill="#FFCC00"/>
<path d="M52.1914 29.0171L50.1568 30.4258L49.5651 29.3719L52.1914 29.0171Z" fill="#FFCC00"/>
<path d="M52.1914 29.0162L49.7173 29.0723L49.8581 30.2728L52.1914 29.0162Z" fill="#FFCC00"/>
<path d="M49.9368 27.3789L50.6479 29.7493L49.4628 29.9863L49.9368 27.3789Z" fill="#FFCC00"/>
<path d="M49.9367 27.3789L49.2256 29.7493L50.4108 29.9863L49.9367 27.3789Z" fill="#FFCC00"/>
<path d="M48.5436 31.6641L50.5122 30.1644L49.6927 29.276L48.5436 31.6641Z" fill="#FFCC00"/>
<path d="M48.5436 31.6641L49.3615 29.3284L50.4597 29.8333L48.5436 31.6641Z" fill="#FFCC00"/>
<path d="M47.6826 29.0151L49.7172 30.4239L50.3089 29.37L47.6826 29.0151Z" fill="#FFCC00"/>
<path d="M47.6826 29.0162L50.1567 29.0723L50.0159 30.2728L47.6826 29.0162Z" fill="#FFCC00"/>
<path d="M53.8158 36.9375L54.6337 34.6019L55.7319 35.1067L53.8158 36.9375Z" fill="#FFCC00"/>
<path d="M53.8158 36.9375L55.7844 35.4378L54.9649 34.5494L53.8158 36.9375Z" fill="#FFCC00"/>
<path d="M56.6024 36.9375L54.6338 35.4378L55.4533 34.5494L56.6024 36.9375Z" fill="#FFCC00"/>
<path d="M56.6022 36.9375L55.7842 34.6019L54.6861 35.1067L56.6022 36.9375Z" fill="#FFCC00"/>
<path d="M57.4634 34.2866L55.4287 35.6954L54.8371 34.6414L57.4634 34.2866Z" fill="#FFCC00"/>
<path d="M57.4634 34.2857L54.9893 34.3419L55.1301 35.5423L57.4634 34.2857Z" fill="#FFCC00"/>
<path d="M52.9549 34.2866L54.9895 35.6954L55.5811 34.6414L52.9549 34.2866Z" fill="#FFCC00"/>
<path d="M52.9551 34.2857L55.4292 34.3419L55.2884 35.5423L52.9551 34.2857Z" fill="#FFCC00"/>
<path d="M55.2092 32.6484L54.498 35.0188L55.6832 35.2558L55.2092 32.6484Z" fill="#FFCC00"/>
<path d="M55.2093 32.6484L55.9204 35.0188L54.7352 35.2558L55.2093 32.6484Z" fill="#FFCC00"/>
<path d="M52.9524 48.5435L55.4265 48.5997L55.2857 49.8001L52.9524 48.5435Z" fill="#FFCC00"/>
<path d="M52.9524 48.5424L54.987 49.9512L55.5787 48.8973L52.9524 48.5424Z" fill="#FFCC00"/>
<path d="M53.8131 51.1934L54.6311 48.8577L55.7292 49.3626L53.8131 51.1934Z" fill="#FFCC00"/>
<path d="M53.8134 51.1933L55.7819 49.6937L54.9624 48.8053L53.8134 51.1933Z" fill="#FFCC00"/>
<path d="M56.5997 51.1933L54.6311 49.6937L55.4507 48.8053L56.5997 51.1933Z" fill="#FFCC00"/>
<path d="M56.5997 51.1934L55.7818 48.8577L54.6836 49.3626L56.5997 51.1934Z" fill="#FFCC00"/>
<path d="M55.2067 46.9043L54.4956 49.2747L55.6808 49.5117L55.2067 46.9043Z" fill="#FFCC00"/>
<path d="M55.2066 46.9043L55.9177 49.2747L54.7325 49.5117L55.2066 46.9043Z" fill="#FFCC00"/>
<path d="M57.4607 48.5435L54.9866 48.5997L55.1274 49.8001L57.4607 48.5435Z" fill="#FFCC00"/>
<path d="M57.4607 48.5424L55.4261 49.9512L54.8344 48.8973L57.4607 48.5424Z" fill="#FFCC00"/>
<path d="M47.8076 53.3169L50.2817 53.3731L50.1409 54.5735L47.8076 53.3169Z" fill="#FFCC00"/>
<path d="M47.8076 53.3178L49.8422 54.7266L50.4339 53.6727L47.8076 53.3178Z" fill="#FFCC00"/>
<path d="M48.6688 55.9649L49.4868 53.6292L50.5849 54.1341L48.6688 55.9649Z" fill="#FFCC00"/>
<path d="M48.6688 55.9648L50.6374 54.4651L49.8179 53.5767L48.6688 55.9648Z" fill="#FFCC00"/>
<path d="M51.4552 55.9648L49.4866 54.4651L50.3061 53.5767L51.4552 55.9648Z" fill="#FFCC00"/>
<path d="M51.4552 55.9649L50.6372 53.6292L49.5391 54.1341L51.4552 55.9649Z" fill="#FFCC00"/>
<path d="M50.0619 51.6777L49.3508 54.0481L50.536 54.2851L50.0619 51.6777Z" fill="#FFCC00"/>
<path d="M50.0618 51.6777L50.7729 54.0481L49.5878 54.2851L50.0618 51.6777Z" fill="#FFCC00"/>
<path d="M52.3164 53.315L49.8423 53.3712L49.9831 54.5716L52.3164 53.315Z" fill="#FFCC00"/>
<path d="M52.3164 53.3159L50.2818 54.7247L49.6901 53.6707L52.3164 53.3159Z" fill="#FFCC00"/>
</g>
</g>
<g opacity="0.2">
<g clip-path="url(#clip7_457_9694)">
<path d="M539.348 14.3848L587.231 17.7331L583.883 65.6162L536 62.2678L539.348 14.3848Z" fill="white"/>
<path d="M539.348 14.3848L587.231 17.7331L586.227 32.098L538.344 28.7497L539.348 14.3848Z" fill="black"/>
<path d="M537.005 47.9023L584.888 51.2507L583.883 65.6156L536 62.2673L537.005 47.9023Z" fill="#006600"/>
<path d="M552.044 53.6169L552.562 53.9539L568.233 30.6904C569.053 30.5673 569.557 29.8206 570.06 29.0739C570.397 28.5561 571.738 26.5749 572.435 23.917C570.927 25.0794 569.62 26.4815 568.567 28.0673C568.063 28.814 567.56 29.5607 567.713 30.3834L552.044 53.6169Z" fill="black" stroke="black" stroke-width="0.3"/>
<path d="M552.044 53.6169L552.562 53.9539L568.233 30.6904C569.053 30.5673 569.557 29.8206 570.06 29.0739C570.397 28.5561 571.738 26.5749 572.435 23.917C570.927 25.0794 569.62 26.4815 568.567 28.0673C568.063 28.814 567.56 29.5607 567.713 30.3834L552.044 53.6169Z" fill="white"/>
<path d="M569.171 54.8142L568.612 55.0758L556.331 29.8577C555.536 29.6216 555.141 28.8122 554.747 28.0027C554.485 27.4431 553.432 25.2944 553.112 22.5654C554.443 23.9264 555.543 25.4967 556.366 27.2137C556.76 28.0232 557.155 28.8327 556.889 29.626L569.171 54.8142Z" fill="black" stroke="black" stroke-width="0.3"/>
<path d="M569.171 54.8142L568.612 55.0758L556.331 29.8577C555.536 29.6216 555.141 28.8122 554.747 28.0027C554.485 27.4431 553.432 25.2944 553.112 22.5654C554.443 23.9264 555.543 25.4967 556.366 27.2137C556.76 28.0232 557.155 28.8327 556.889 29.626L569.171 54.8142Z" fill="white"/>
<path d="M562.602 25.6338C560.806 25.5082 557.478 30.0873 556.413 32.4186L538.176 31.1434L537.172 45.5083L555.409 46.7836C556.148 49.2411 558.806 54.2387 560.602 54.3643C562.398 54.4898 565.725 49.9108 566.79 47.5794L585.055 48.8566L586.06 34.4917L567.785 33.2139C567.055 30.7569 564.397 25.7593 562.602 25.6338Z" fill="#BB0000"/>
<path d="M566.781 47.5789C567.866 45.3584 568.543 42.9611 568.78 40.5011C568.887 38.0321 568.551 35.5639 567.785 33.214C566.701 35.4345 566.024 37.8319 565.787 40.2918C565.679 42.7608 566.016 45.2291 566.781 47.5789Z" fill="black"/>
<path d="M555.418 46.7837C554.653 44.4339 554.316 41.9656 554.424 39.4966C554.661 37.0367 555.338 34.6393 556.423 32.4188C557.188 34.7687 557.525 37.2369 557.417 39.7059C557.18 42.1659 556.503 44.5632 555.418 46.7837Z" fill="black"/>
<path d="M561.472 41.7941C562.133 41.8403 562.725 41.0739 562.794 40.0822C562.864 39.0905 562.384 38.2491 561.723 38.2028C561.062 38.1566 560.469 38.9231 560.4 39.9148C560.331 40.9064 560.81 41.7478 561.472 41.7941Z" fill="white"/>
<path d="M561.775 41.7559C561.775 41.7559 562.805 44.2337 562.533 48.1242C562.26 52.0147 560.896 54.3252 560.896 54.3252L561.775 41.7559Z" fill="white"/>
<path d="M561.419 38.2402C561.419 38.2402 560.39 35.7624 560.662 31.8719C560.934 27.9814 562.298 25.6709 562.298 25.6709L561.419 38.2402Z" fill="white"/>
<path d="M561.176 41.7129C561.176 41.7129 559.812 44.0233 559.54 47.9138C559.268 51.8043 560.297 54.2822 560.297 54.2822L561.176 41.7129Z" fill="white"/>
<path d="M562.018 38.2832C562.018 38.2832 563.382 35.9728 563.654 32.0823C563.926 28.1918 562.897 25.7139 562.897 25.7139L562.018 38.2832Z" fill="white"/>
</g>
</g>
</g>
<defs>
<linearGradient id="paint0_linear_457_9694" x1="323.312" y1="21.0801" x2="323.312" y2="434.778" gradientUnits="userSpaceOnUse">
<stop stop-color="#EAEAEA"/>
<stop offset="0.716346" stop-color="#F5F5F5"/>
</linearGradient>
<clipPath id="clip0_457_9694">
<path d="M0 24C0 10.7452 10.7452 0 24 0H594C607.255 0 618 10.7452 618 24V376C618 389.255 607.255 400 594 400H24C10.7452 400 0 389.255 0 376V24Z" fill="white"/>
</clipPath>
<clipPath id="clip1_457_9694">
<path d="M202.312 145.381C202.312 127.708 216.638 113.381 234.312 113.381C251.985 113.381 266.312 127.708 266.312 145.381C266.312 163.054 251.985 177.381 234.312 177.381C216.638 177.381 202.312 163.054 202.312 145.381Z" fill="white"/>
</clipPath>
<clipPath id="clip2_457_9694">
<path d="M259.312 152.381C259.312 134.708 273.638 120.381 291.312 120.381C308.985 120.381 323.312 134.708 323.312 152.381C323.312 170.054 308.985 184.381 291.312 184.381C273.638 184.381 259.312 170.054 259.312 152.381Z" fill="white"/>
</clipPath>
<clipPath id="clip3_457_9694">
<path d="M311.503 166.217C311.503 148.544 325.83 134.217 343.503 134.217C361.176 134.217 375.503 148.544 375.503 166.217C375.503 183.89 361.176 198.217 343.503 198.217C325.83 198.217 311.503 183.89 311.503 166.217Z" fill="white"/>
</clipPath>
<clipPath id="clip4_457_9694">
<path d="M45.1642 302.387C52.4347 295.607 63.8248 296.005 70.6046 303.276C77.3844 310.546 76.9867 321.936 69.7162 328.716C62.4457 335.496 51.0557 335.098 44.2759 327.828C37.496 320.557 37.8938 309.167 45.1642 302.387Z" fill="white"/>
</clipPath>
<clipPath id="clip5_457_9694">
<path d="M556 356.807C556 343.552 566.745 332.807 580 332.807C593.255 332.807 604 343.552 604 356.807C604 370.061 593.255 380.807 580 380.807C566.745 380.807 556 370.061 556 356.807Z" fill="white"/>
</clipPath>
<clipPath id="clip6_457_9694">
<path d="M19 41.7324C19 28.4776 29.7452 17.7324 43 17.7324C56.2548 17.7324 67 28.4776 67 41.7324C67 54.9873 56.2548 65.7324 43 65.7324C29.7452 65.7324 19 54.9873 19 41.7324Z" fill="white"/>
</clipPath>
<clipPath id="clip7_457_9694">
<path d="M537.674 38.3263C538.599 25.1038 550.067 15.1343 563.29 16.0589C576.512 16.9835 586.482 28.4521 585.557 41.6746C584.633 54.8972 573.164 64.8666 559.942 63.942C546.719 63.0174 536.75 51.5488 537.674 38.3263Z" fill="white"/>
</clipPath>
</defs>
</svg>
