<svg width="393" height="255" viewBox="0 0 393 255" fill="none" xmlns="http://www.w3.org/2000/svg">
<g clip-path="url(#clip0_492_11089)">
<rect width="392.536" height="254.068" rx="32" fill="#F5F5F5"/>
<circle cx="205.358" cy="144.775" r="126.621" stroke="url(#paint0_linear_492_11089)" stroke-width="9.52756"/>
<path d="M146.553 137.973C144.982 132.585 148.077 126.943 153.466 125.372L257.136 95.1485C262.525 93.5776 268.166 96.6723 269.737 102.061L289.813 170.921C291.383 176.31 288.289 181.951 282.9 183.522L179.23 213.746C173.841 215.317 168.2 212.222 166.629 206.834L146.553 137.973Z" fill="#9B5427"/>
<g clip-path="url(#clip1_492_11089)">
<path d="M128.502 72.0156H169.153V112.667H128.502V72.0156Z" fill="#012169"/>
<path d="M169.153 72.0156V77.097L154.068 92.3411L169.153 107.188V112.667H163.834L148.669 97.74L133.901 112.667H128.502V107.268L143.27 92.4205L128.502 77.891V72.0156H133.425L148.669 86.9421L163.437 72.0156H169.153Z" fill="white"/>
<path d="M143.111 97.74L143.985 100.44L131.837 112.667H128.502V112.428L143.111 97.74ZM152.957 96.7873L157.244 97.4225L169.153 109.094V112.667L152.957 96.7873ZM169.153 72.0156L153.909 87.5773L153.592 84.0839L165.501 72.0156H169.153ZM128.502 72.095L143.826 87.1009L139.142 86.4658L128.502 75.906V72.095Z" fill="#C8102E"/>
<path d="M142.476 72.0156V112.667H155.18V72.0156H142.476ZM128.502 85.9894V98.6928H169.153V85.9894H128.502Z" fill="white"/>
<path d="M128.502 88.5301V96.1521H169.153V88.5301H128.502ZM145.017 72.0156V112.667H152.639V72.0156H145.017Z" fill="#C8102E"/>
</g>
<g clip-path="url(#clip2_492_11089)">
<path d="M164.707 76.4629H205.358V117.114H164.707" fill="#BD3D44"/>
<path d="M164.707 81.0664H205.358H164.707ZM164.707 87.3387H205.358H164.707ZM164.707 93.611H205.358H164.707ZM164.707 99.8833H205.358H164.707ZM164.707 106.156H205.358H164.707ZM164.707 112.428H205.358H164.707Z" fill="black"/>
<path d="M164.707 81.0664H205.358M164.707 87.3387H205.358M164.707 93.611H205.358M164.707 99.8833H205.358M164.707 106.156H205.358M164.707 112.428H205.358" stroke="white" stroke-width="3.17585"/>
<path d="M164.707 76.4629H195.672V98.2969H164.707V76.4629Z" fill="#192F5D"/>
</g>
<g clip-path="url(#clip3_492_11089)">
<path fill-rule="evenodd" clip-rule="evenodd" d="M197.857 85.252H238.508V125.903H197.857V85.252Z" fill="white"/>
<path fill-rule="evenodd" clip-rule="evenodd" d="M224.954 85.252H238.508V125.903H224.954V85.252ZM197.857 85.252H211.406V125.903H197.857V85.252Z" fill="#008753"/>
</g>
<path d="M147.12 139.182C145.549 133.794 148.644 128.152 154.032 126.581L255.54 96.9882C260.928 95.4172 266.57 98.5119 268.141 103.9L287.865 171.556C289.436 176.944 286.341 182.586 280.953 184.157L179.445 213.75C174.057 215.321 168.415 212.226 166.844 206.838L147.12 139.182Z" fill="#BC7039"/>
<path d="M247.224 105.262L247.312 105.566L249.716 104.866C250.348 104.681 250.983 104.564 251.614 104.508L251.585 104.193C252.939 104.073 254.275 104.229 255.526 104.624L255.431 104.927C256.663 105.316 257.81 105.945 258.801 106.774L259.004 106.532C260.01 107.374 260.86 108.418 261.486 109.624L261.206 109.77C261.498 110.332 261.739 110.931 261.923 111.562L262.614 113.932L262.919 113.842L264.301 118.583L263.996 118.672L265.377 123.411L265.683 123.322L267.065 128.061L266.759 128.15L268.141 132.89L268.447 132.801L269.828 137.54L269.523 137.63L270.904 142.369L271.21 142.28L272.592 147.02L272.286 147.109L273.668 151.848L273.974 151.759L275.355 156.498L275.05 156.587L276.432 161.328L276.737 161.238L278.119 165.978L277.813 166.067L278.504 168.437C278.688 169.068 278.807 169.703 278.863 170.333L279.176 170.306C279.296 171.66 279.14 172.996 278.745 174.247L278.444 174.152C278.055 175.384 277.425 176.53 276.595 177.521L276.838 177.724C275.995 178.73 274.952 179.579 273.746 180.206L273.601 179.926C273.039 180.218 272.44 180.459 271.808 180.644L269.405 181.344L269.493 181.649L264.686 183.051L264.597 182.746L259.789 184.148L259.878 184.452L255.07 185.854L254.982 185.549L250.174 186.951L250.263 187.256L245.455 188.657L245.366 188.352L240.559 189.754L240.647 190.059L235.839 191.461L235.75 191.156L230.942 192.558L231.031 192.862L226.223 194.264L226.135 193.959L221.327 195.361L221.416 195.665L216.608 197.067L216.519 196.762L211.712 198.164L211.8 198.469L206.993 199.87L206.904 199.566L202.096 200.967L202.185 201.272L197.377 202.674L197.289 202.369L192.481 203.77L192.57 204.075L187.762 205.477L187.673 205.172L185.269 205.873C184.638 206.057 184.003 206.175 183.372 206.231L183.399 206.545C182.046 206.665 180.709 206.509 179.458 206.114L179.553 205.812C178.321 205.423 177.175 204.794 176.185 203.964L175.981 204.207C174.975 203.364 174.125 202.321 173.498 201.114L173.779 200.969C173.561 200.548 173.37 200.106 173.21 199.645L173.062 199.177L172.371 196.807L172.066 196.896L170.684 192.157L170.989 192.068L169.607 187.328L169.303 187.417L167.921 182.677L168.226 182.589L166.844 177.849L166.539 177.938L165.157 173.198L165.462 173.109L164.08 168.37L163.776 168.459L162.394 163.72L162.699 163.631L161.317 158.891L161.012 158.979L159.63 154.24L159.935 154.151L158.553 149.412L158.249 149.501L156.867 144.761L157.171 144.672L156.481 142.303C156.297 141.671 156.179 141.036 156.123 140.405L155.807 140.433C155.701 139.233 155.811 138.046 156.114 136.92L156.239 136.492L156.542 136.587C156.931 135.355 157.56 134.209 158.389 133.218L158.147 133.014C158.989 132.008 160.033 131.158 161.239 130.532L161.385 130.813C161.947 130.521 162.546 130.279 163.177 130.095L165.581 129.394L165.492 129.089L170.3 127.688L170.389 127.993L175.196 126.591L175.108 126.286L179.915 124.885L180.004 125.189L184.812 123.788L184.723 123.483L189.531 122.081L189.619 122.386L194.427 120.984L194.338 120.68L199.146 119.278L199.235 119.583L204.042 118.181L203.954 117.877L208.761 116.475L208.85 116.78L213.658 115.378L213.569 115.073L218.377 113.672L218.465 113.976L223.274 112.574L223.185 112.27L227.993 110.868L228.082 111.173L232.889 109.771L232.801 109.467L237.608 108.065L237.697 108.37L242.505 106.968L242.416 106.663L247.224 105.262Z" stroke="#F8B815" stroke-width="0.635171" stroke-dasharray="5.08 5.08"/>
<path d="M249.441 135.779C248.239 131.745 250.536 127.5 254.57 126.299L279.556 118.856C283.59 117.654 287.835 119.951 289.036 123.985L293.576 139.224C294.777 143.258 292.481 147.503 288.447 148.705L263.461 156.147C259.427 157.349 255.182 155.053 253.98 151.018L249.441 135.779Z" fill="#9B5427"/>
<path d="M253.29 134.707C252.088 130.673 254.384 126.428 258.419 125.226L279.848 118.843C283.882 117.642 288.127 119.938 289.329 123.972L293.307 137.329C294.509 141.364 292.213 145.608 288.178 146.81L266.749 153.193C262.715 154.395 258.47 152.099 257.268 148.064L253.29 134.707Z" fill="#D27D3A"/>
<circle cx="275.077" cy="135.488" r="5.92712" fill="#FFBC28"/>
<g opacity="0.2">
<g clip-path="url(#clip4_492_11089)">
<path d="M37.0488 184.27L52.6435 200.993L35.9203 216.587L20.3256 199.864L37.0488 184.27Z" fill="#006B3F"/>
<path d="M37.0488 184.27L52.6435 200.993L41.4958 211.388L25.9011 194.665L37.0488 184.27Z" fill="#FCD116"/>
<path d="M37.0488 184.27L52.6435 200.993L47.068 206.192L31.4733 189.469L37.0488 184.27Z" fill="#CE1126"/>
<path d="M39.2707 197.832L35.3889 204.841L34.4057 196.891L39.8699 202.751L32.0111 201.219L39.2707 197.832Z" fill="black"/>
</g>
</g>
<g opacity="0.1">
<g clip-path="url(#clip5_492_11089)">
<mask id="mask0_492_11089" style="mask-type:luminance" maskUnits="userSpaceOnUse" x="353" y="211" width="31" height="31">
<path d="M353.155 211.389H383.638V241.872H353.155V211.389Z" fill="white"/>
</mask>
<g mask="url(#mask0_492_11089)">
<path fill-rule="evenodd" clip-rule="evenodd" d="M353.155 211.389H398.88V220.915H353.155V211.389Z" fill="#009A00"/>
<path fill-rule="evenodd" clip-rule="evenodd" d="M353.155 220.914H398.88V221.867H353.155V220.914Z" fill="white"/>
<path fill-rule="evenodd" clip-rule="evenodd" d="M353.155 221.869H398.88V231.395H353.155V221.869Z" fill="black"/>
<path fill-rule="evenodd" clip-rule="evenodd" d="M353.155 231.395H398.88V232.347H353.155V231.395Z" fill="white"/>
<path fill-rule="evenodd" clip-rule="evenodd" d="M353.155 232.346H398.88V241.872H353.155V232.346Z" fill="#FFCA00"/>
<path fill-rule="evenodd" clip-rule="evenodd" d="M353.155 211.389V241.872L373.166 226.63L353.155 211.389Z" fill="#FF0000"/>
<path fill-rule="evenodd" clip-rule="evenodd" d="M364.973 231.215L361.925 228.984L358.883 231.215L360.063 227.625L356.99 225.413L360.776 225.431L361.925 221.836L363.08 225.431L366.86 225.413L363.787 227.625L364.973 231.215Z" fill="#FFCA00"/>
<path fill-rule="evenodd" clip-rule="evenodd" d="M359.276 228.713H361.476C361.654 228.91 362.048 228.99 362.423 228.713C363.111 228.332 364.445 228.713 364.445 228.713L364.709 228.431L364.07 226.335L363.836 226.089C363.836 226.089 363.344 225.794 362.41 225.892C361.476 225.991 361.15 225.855 361.15 225.855C361.15 225.855 360.327 225.954 360.099 226.077L359.835 226.341L359.282 228.719L359.276 228.713Z" fill="white" stroke="black" stroke-width="0.0676046" stroke-linecap="round" stroke-linejoin="round"/>
<path d="M359.719 228.168C359.719 228.168 361.821 227.91 362.423 228.715C362.085 228.949 361.784 228.961 361.458 228.727C361.513 228.641 362.214 227.91 364.002 228.156" stroke="black" stroke-width="0.0676046" stroke-linecap="round" stroke-linejoin="round"/>
<path d="M361.968 226.072L361.95 228.383M363.836 226.109L364.23 227.941" stroke="black" stroke-width="0.0676046"/>
<path d="M360.118 226.078L359.903 227.025" stroke="black" stroke-width="0.0676046" stroke-linecap="round" stroke-linejoin="round"/>
<path fill-rule="evenodd" clip-rule="evenodd" d="M357.85 228.966L358.366 229.568C358.428 229.605 358.483 229.605 358.538 229.568L359.301 228.646L359.626 228.253C359.648 228.228 359.665 228.198 359.675 228.167C359.686 228.135 359.69 228.102 359.688 228.068L360.302 227.515C360.351 227.528 360.382 227.534 360.425 227.534C360.37 227.515 360.327 227.491 360.376 227.423L360.511 227.319L360.622 227.454C360.622 227.454 360.468 227.657 360.45 227.657H360.284L359.958 227.946L360.099 228.068L360.315 228.652L360.573 228.468L360.407 227.872L360.776 227.472L360.634 227.257L360.726 227.134C360.726 227.134 361.999 227.933 362.49 227.718C362.503 227.724 362.521 227.147 362.521 227.147C362.521 227.147 361.2 227.011 361.169 226.753C361.138 226.489 361.464 226.458 361.464 226.458L361.323 226.262L361.353 226.151L361.587 226.446L362.103 225.997L365.17 229.494C365.336 229.427 365.373 229.384 365.385 229.218L362.373 225.77L362.607 225.524C362.65 225.475 362.668 225.45 362.668 225.37L363.019 225.063C363.114 225.097 363.194 225.162 363.246 225.248L364.217 224.43C364.242 224.455 364.322 224.479 364.371 224.449L365.969 222.912L364.23 224.141L364.168 224.098C364.168 224.049 364.23 224.037 364.168 223.945C364.1 223.865 363.996 224.025 363.984 224.025C363.971 224.025 363.732 223.938 363.676 223.834L363.664 224.117L363.215 224.528L362.877 224.516L362.386 224.989L362.324 225.174L362.404 225.327C362.404 225.327 362.146 225.555 362.146 225.543C362.146 225.524 362.091 225.475 362.085 225.463L362.312 225.266L362.343 225.125L362.269 225.008C362.244 225.026 361.962 225.327 361.943 225.297L361.126 224.356L361.169 224.184L360.646 223.619C360.462 223.557 360.155 223.545 360.093 223.957C360.05 224.055 359.651 223.969 359.651 223.969L359.442 224.018L358.231 225.733L358.907 226.544L360.284 224.799L360.321 224.307L360.61 224.627C360.708 224.639 360.8 224.639 360.886 224.596L361.704 225.506L361.568 225.641L361.691 225.776L361.826 225.678L361.888 225.758C361.814 225.795 361.765 225.844 361.704 225.881C361.587 225.813 361.482 225.721 361.495 225.579L361.034 225.96L361.015 226.04L359.651 227.171L359.528 227.19L359.497 227.54L360.388 226.802V226.698L360.481 226.772L361.169 226.219C361.169 226.219 361.218 226.28 361.2 226.28C361.181 226.28 360.585 226.833 360.585 226.833L360.573 226.895L360.468 226.987L360.407 226.944L359.577 227.681H359.454L358.993 228.136C358.876 228.148 358.772 228.161 358.674 228.228L357.85 228.966Z" fill="black" stroke="black" stroke-width="0.0676046" stroke-linecap="round" stroke-linejoin="round"/>
</g>
</g>
</g>
<g opacity="0.2">
<g clip-path="url(#clip6_492_11089)">
<path d="M12.0684 11.2637H42.5566V41.7519H12.0684V11.2637Z" fill="#003399"/>
<path d="M27.3125 16.1094L26.8608 17.615L27.6136 17.7655L27.3125 16.1094Z" fill="#FFCC00"/>
<path d="M27.3125 16.1094L27.7642 17.615L27.0114 17.7655L27.3125 16.1094Z" fill="#FFCC00"/>
<path d="M28.7446 17.1503L27.1731 17.186L27.2625 17.9484L28.7446 17.1503Z" fill="#FFCC00"/>
<path d="M28.7447 17.1505L27.4524 18.0453L27.0766 17.3759L28.7447 17.1505Z" fill="#FFCC00"/>
<path d="M28.1976 18.8338L27.678 17.3503L26.9805 17.671L28.1976 18.8338Z" fill="#FFCC00"/>
<path d="M28.1974 18.8322L26.9471 17.8796L27.4676 17.3153L28.1974 18.8322Z" fill="#FFCC00"/>
<path d="M25.8804 17.1503L27.4519 17.186L27.3625 17.9484L25.8804 17.1503Z" fill="#FFCC00"/>
<path d="M25.8803 17.1505L27.1726 18.0453L27.5484 17.3759L25.8803 17.1505Z" fill="#FFCC00"/>
<path d="M26.4279 18.8338L26.9475 17.3503L27.645 17.671L26.4279 18.8338Z" fill="#FFCC00"/>
<path d="M26.428 18.8322L27.6784 17.8796L27.1579 17.3153L26.428 18.8322Z" fill="#FFCC00"/>
<path d="M27.3125 34.1777L26.8608 35.6833L27.6136 35.8339L27.3125 34.1777Z" fill="#FFCC00"/>
<path d="M27.3125 34.1777L27.7642 35.6833L27.0114 35.8339L27.3125 34.1777Z" fill="#FFCC00"/>
<path d="M28.7446 35.2186L27.1731 35.2543L27.2625 36.0168L28.7446 35.2186Z" fill="#FFCC00"/>
<path d="M28.7447 35.2189L27.4524 36.1137L27.0766 35.4443L28.7447 35.2189Z" fill="#FFCC00"/>
<path d="M28.1971 36.9003L27.6775 35.4167L26.98 35.7374L28.1971 36.9003Z" fill="#FFCC00"/>
<path d="M28.197 36.8986L26.9466 35.946L27.4671 35.3817L28.197 36.8986Z" fill="#FFCC00"/>
<path d="M25.8809 35.2186L27.4524 35.2543L27.363 36.0168L25.8809 35.2186Z" fill="#FFCC00"/>
<path d="M25.8808 35.2189L27.1731 36.1137L27.5489 35.4443L25.8808 35.2189Z" fill="#FFCC00"/>
<path d="M26.4279 36.9003L26.9475 35.4167L27.645 35.7374L26.4279 36.9003Z" fill="#FFCC00"/>
<path d="M26.428 36.8986L27.6784 35.946L27.1579 35.3817L26.428 36.8986Z" fill="#FFCC00"/>
<path d="M18.2788 25.1465L17.8271 26.6521L18.5799 26.8026L18.2788 25.1465Z" fill="#FFCC00"/>
<path d="M18.2788 25.1465L18.7305 26.6521L17.9777 26.8026L18.2788 25.1465Z" fill="#FFCC00"/>
<path d="M19.7104 26.1854L18.1389 26.2211L18.2283 26.9836L19.7104 26.1854Z" fill="#FFCC00"/>
<path d="M19.7105 26.1837L18.4182 27.0785L18.0424 26.4091L19.7105 26.1837Z" fill="#FFCC00"/>
<path d="M19.1634 27.871L18.6438 26.3874L17.9463 26.7081L19.1634 27.871Z" fill="#FFCC00"/>
<path d="M19.1638 27.8693L17.9134 26.9167L18.4339 26.3524L19.1638 27.8693Z" fill="#FFCC00"/>
<path d="M16.8468 26.1854L18.4182 26.2211L18.3288 26.9836L16.8468 26.1854Z" fill="#FFCC00"/>
<path d="M16.8466 26.1837L18.1389 27.0785L18.5147 26.4091L16.8466 26.1837Z" fill="#FFCC00"/>
<path d="M17.3937 27.871L17.9133 26.3874L18.6108 26.7081L17.3937 27.871Z" fill="#FFCC00"/>
<path d="M17.3939 27.8693L18.6442 26.9167L18.1237 26.3524L17.3939 27.8693Z" fill="#FFCC00"/>
<path d="M22.0213 20.1134L23.2717 19.1609L22.7512 18.5966L22.0213 20.1134Z" fill="#FFCC00"/>
<path d="M22.0212 20.1112L22.5407 18.6277L23.2382 18.9483L22.0212 20.1112Z" fill="#FFCC00"/>
<path d="M21.475 18.4279L22.7674 19.3227L23.1432 18.6532L21.475 18.4279Z" fill="#FFCC00"/>
<path d="M21.4747 18.4276L23.0462 18.4633L22.9567 19.2258L21.4747 18.4276Z" fill="#FFCC00"/>
<path d="M22.9063 17.3848L22.4546 18.8904L23.2074 19.0409L22.9063 17.3848Z" fill="#FFCC00"/>
<path d="M22.9062 17.3848L23.3579 18.8904L22.6051 19.0409L22.9062 17.3848Z" fill="#FFCC00"/>
<path d="M23.7917 20.1095L22.5413 19.157L23.0618 18.5927L23.7917 20.1095Z" fill="#FFCC00"/>
<path d="M23.7918 20.1073L23.2723 18.6237L22.5747 18.9444L23.7918 20.1073Z" fill="#FFCC00"/>
<path d="M24.338 18.4279L23.0456 19.3227L22.6698 18.6532L24.338 18.4279Z" fill="#FFCC00"/>
<path d="M24.3383 18.4276L22.7668 18.4633L22.8563 19.2258L24.3383 18.4276Z" fill="#FFCC00"/>
<path d="M20.4422 23.4647L19.9227 21.9812L19.2251 22.3018L20.4422 23.4647Z" fill="#FFCC00"/>
<path d="M20.4421 23.465L19.1917 22.5124L19.7122 21.9481L20.4421 23.465Z" fill="#FFCC00"/>
<path d="M18.6727 23.463L19.923 22.5105L19.4025 21.9462L18.6727 23.463Z" fill="#FFCC00"/>
<path d="M18.6725 23.4628L19.1921 21.9792L19.8896 22.2999L18.6725 23.4628Z" fill="#FFCC00"/>
<path d="M18.1254 21.7814L19.4177 22.6762L19.7936 22.0068L18.1254 21.7814Z" fill="#FFCC00"/>
<path d="M18.1256 21.7811L19.697 21.8168L19.6076 22.5793L18.1256 21.7811Z" fill="#FFCC00"/>
<path d="M20.9888 21.7814L19.6965 22.6762L19.3207 22.0068L20.9888 21.7814Z" fill="#FFCC00"/>
<path d="M20.9892 21.7811L19.4177 21.8168L19.5071 22.5793L20.9892 21.7811Z" fill="#FFCC00"/>
<path d="M19.5571 20.7383L20.0088 22.2439L19.256 22.3944L19.5571 20.7383Z" fill="#FFCC00"/>
<path d="M19.5571 20.7383L19.1055 22.2439L19.8583 22.3944L19.5571 20.7383Z" fill="#FFCC00"/>
<path d="M20.9911 30.8339L19.4197 30.8695L19.5091 31.632L20.9911 30.8339Z" fill="#FFCC00"/>
<path d="M20.9908 30.8341L19.6985 31.7289L19.3227 31.0595L20.9908 30.8341Z" fill="#FFCC00"/>
<path d="M20.4442 32.5194L19.9246 31.0359L19.2271 31.3565L20.4442 32.5194Z" fill="#FFCC00"/>
<path d="M20.444 32.5197L19.1936 31.5671L19.7142 31.0028L20.444 32.5197Z" fill="#FFCC00"/>
<path d="M18.6746 32.5197L19.925 31.5671L19.4045 31.0028L18.6746 32.5197Z" fill="#FFCC00"/>
<path d="M18.6745 32.5174L19.194 31.0339L19.8916 31.3546L18.6745 32.5174Z" fill="#FFCC00"/>
<path d="M19.5596 29.7949L20.0112 31.3005L19.2584 31.4511L19.5596 29.7949Z" fill="#FFCC00"/>
<path d="M19.5596 29.7949L19.1079 31.3005L19.8607 31.4511L19.5596 29.7949Z" fill="#FFCC00"/>
<path d="M18.1275 30.8358L19.699 30.8715L19.6096 31.634L18.1275 30.8358Z" fill="#FFCC00"/>
<path d="M18.1274 30.8361L19.4197 31.7309L19.7955 31.0615L18.1274 30.8361Z" fill="#FFCC00"/>
<path d="M24.2587 33.8651L22.6872 33.9008L22.7767 34.6633L24.2587 33.8651Z" fill="#FFCC00"/>
<path d="M24.2584 33.8654L22.966 34.7602L22.5902 34.0907L24.2584 33.8654Z" fill="#FFCC00"/>
<path d="M23.7117 35.5467L23.1922 34.0632L22.4947 34.3839L23.7117 35.5467Z" fill="#FFCC00"/>
<path d="M23.7116 35.547L22.4612 34.5945L22.9818 34.0302L23.7116 35.547Z" fill="#FFCC00"/>
<path d="M21.9412 35.549L23.1916 34.5964L22.6711 34.0321L21.9412 35.549Z" fill="#FFCC00"/>
<path d="M21.9416 35.5467L22.4611 34.0632L23.1587 34.3839L21.9416 35.5467Z" fill="#FFCC00"/>
<path d="M22.8262 32.8242L23.2778 34.3298L22.525 34.4804L22.8262 32.8242Z" fill="#FFCC00"/>
<path d="M22.8262 32.8242L22.3745 34.3298L23.1273 34.4804L22.8262 32.8242Z" fill="#FFCC00"/>
<path d="M21.3946 33.8651L22.9661 33.9008L22.8766 34.6633L21.3946 33.8651Z" fill="#FFCC00"/>
<path d="M21.3945 33.8654L22.6868 34.7602L23.0626 34.0907L21.3945 33.8654Z" fill="#FFCC00"/>
<path d="M36.3452 25.1426L36.7969 26.6482L36.0441 26.7987L36.3452 25.1426Z" fill="#FFCC00"/>
<path d="M36.3452 25.1426L35.8936 26.6482L36.6463 26.7987L36.3452 25.1426Z" fill="#FFCC00"/>
<path d="M34.9132 26.1835L36.4846 26.2192L36.3952 26.9816L34.9132 26.1835Z" fill="#FFCC00"/>
<path d="M34.913 26.1837L36.2053 27.0785L36.5812 26.4091L34.913 26.1837Z" fill="#FFCC00"/>
<path d="M35.4606 27.8671L35.9802 26.3835L36.6777 26.7042L35.4606 27.8671Z" fill="#FFCC00"/>
<path d="M35.4608 27.8673L36.7111 26.9148L36.1906 26.3505L35.4608 27.8673Z" fill="#FFCC00"/>
<path d="M37.7773 26.1854L36.2058 26.2211L36.2952 26.9836L37.7773 26.1854Z" fill="#FFCC00"/>
<path d="M37.7774 26.1857L36.4851 27.0805L36.1093 26.4111L37.7774 26.1857Z" fill="#FFCC00"/>
<path d="M37.2298 27.8671L36.7103 26.3835L36.0127 26.7042L37.2298 27.8671Z" fill="#FFCC00"/>
<path d="M37.2297 27.8673L35.9793 26.9148L36.4998 26.3505L37.2297 27.8673Z" fill="#FFCC00"/>
<path d="M32.6032 20.1095L31.3528 19.157L31.8734 18.5927L32.6032 20.1095Z" fill="#FFCC00"/>
<path d="M32.6033 20.1073L32.0838 18.6237L31.3863 18.9444L32.6033 20.1073Z" fill="#FFCC00"/>
<path d="M33.1495 18.4279L31.8572 19.3227L31.4813 18.6532L33.1495 18.4279Z" fill="#FFCC00"/>
<path d="M33.1498 18.4257L31.5784 18.4613L31.6678 19.2238L33.1498 18.4257Z" fill="#FFCC00"/>
<path d="M31.7178 17.3867L32.1694 18.8923L31.4166 19.0429L31.7178 17.3867Z" fill="#FFCC00"/>
<path d="M31.7178 17.3867L31.2661 18.8923L32.0189 19.0429L31.7178 17.3867Z" fill="#FFCC00"/>
<path d="M30.8333 20.1095L32.0837 19.157L31.5632 18.5927L30.8333 20.1095Z" fill="#FFCC00"/>
<path d="M30.8332 20.1073L31.3527 18.6237L32.0503 18.9444L30.8332 20.1073Z" fill="#FFCC00"/>
<path d="M30.2865 18.4259L31.5789 19.3207L31.9547 18.6513L30.2865 18.4259Z" fill="#FFCC00"/>
<path d="M30.2867 18.4276L31.8582 18.4633L31.7687 19.2258L30.2867 18.4276Z" fill="#FFCC00"/>
<path d="M34.1818 23.4588L34.7014 21.9753L35.3989 22.296L34.1818 23.4588Z" fill="#FFCC00"/>
<path d="M34.1819 23.4572L35.4323 22.5046L34.9118 21.9403L34.1819 23.4572Z" fill="#FFCC00"/>
<path d="M35.9523 23.4611L34.702 22.5085L35.2225 21.9442L35.9523 23.4611Z" fill="#FFCC00"/>
<path d="M35.952 23.4608L35.4324 21.9773L34.7349 22.2979L35.952 23.4608Z" fill="#FFCC00"/>
<path d="M36.4991 21.7736L35.2068 22.6684L34.831 21.999L36.4991 21.7736Z" fill="#FFCC00"/>
<path d="M36.499 21.7753L34.9275 21.811L35.0169 22.5734L36.499 21.7753Z" fill="#FFCC00"/>
<path d="M33.6352 21.7716L34.9275 22.6664L35.3033 21.997L33.6352 21.7716Z" fill="#FFCC00"/>
<path d="M33.6348 21.7714L35.2063 21.807L35.1169 22.5695L33.6348 21.7714Z" fill="#FFCC00"/>
<path d="M35.0669 20.7324L34.6152 22.238L35.368 22.3886L35.0669 20.7324Z" fill="#FFCC00"/>
<path d="M35.0669 20.7324L35.5186 22.238L34.7658 22.3886L35.0669 20.7324Z" fill="#FFCC00"/>
<path d="M33.6339 30.8319L35.2053 30.8676L35.1159 31.6301L33.6339 30.8319Z" fill="#FFCC00"/>
<path d="M33.6337 30.8321L34.926 31.727L35.3019 31.0575L33.6337 30.8321Z" fill="#FFCC00"/>
<path d="M34.1808 32.5174L34.7004 31.0339L35.3979 31.3546L34.1808 32.5174Z" fill="#FFCC00"/>
<path d="M34.181 32.5158L35.4314 31.5632L34.9108 30.9989L34.181 32.5158Z" fill="#FFCC00"/>
<path d="M35.9504 32.5177L34.7 31.5652L35.2205 31.0009L35.9504 32.5177Z" fill="#FFCC00"/>
<path d="M35.9505 32.5174L35.431 31.0339L34.7334 31.3546L35.9505 32.5174Z" fill="#FFCC00"/>
<path d="M35.0659 29.791L34.6143 31.2966L35.3671 31.4472L35.0659 29.791Z" fill="#FFCC00"/>
<path d="M35.0659 29.791L35.5176 31.2966L34.7648 31.4472L35.0659 29.791Z" fill="#FFCC00"/>
<path d="M36.4975 30.8319L34.926 30.8676L35.0154 31.6301L36.4975 30.8319Z" fill="#FFCC00"/>
<path d="M36.4976 30.8321L35.2053 31.727L34.8295 31.0575L36.4976 30.8321Z" fill="#FFCC00"/>
<path d="M30.3663 33.8632L31.9378 33.8988L31.8483 34.6613L30.3663 33.8632Z" fill="#FFCC00"/>
<path d="M30.3661 33.8634L31.6585 34.7582L32.0343 34.0888L30.3661 33.8634Z" fill="#FFCC00"/>
<path d="M30.9128 35.5467L31.4323 34.0632L32.1298 34.3839L30.9128 35.5467Z" fill="#FFCC00"/>
<path d="M30.9129 35.547L32.1633 34.5945L31.6428 34.0302L30.9129 35.547Z" fill="#FFCC00"/>
<path d="M32.6828 35.549L31.4324 34.5964L31.9529 34.0321L32.6828 35.549Z" fill="#FFCC00"/>
<path d="M32.6829 35.5467L32.1634 34.0632L31.4659 34.3839L32.6829 35.5467Z" fill="#FFCC00"/>
<path d="M31.7979 32.8242L31.3462 34.3298L32.099 34.4804L31.7979 32.8242Z" fill="#FFCC00"/>
<path d="M31.7978 32.8242L32.2495 34.3298L31.4967 34.4804L31.7978 32.8242Z" fill="#FFCC00"/>
<path d="M33.2299 33.8651L31.6584 33.9008L31.7479 34.6633L33.2299 33.8651Z" fill="#FFCC00"/>
<path d="M33.2301 33.8654L31.9377 34.7602L31.5619 34.0907L33.2301 33.8654Z" fill="#FFCC00"/>
</g>
</g>
<g opacity="0.2">
<g clip-path="url(#clip7_492_11089)">
<path d="M342.579 9.13672L372.993 11.2635L370.866 41.6774L340.452 39.5507L342.579 9.13672Z" fill="white"/>
<path d="M342.579 9.13672L372.993 11.2635L372.355 20.3876L341.941 18.2609L342.579 9.13672Z" fill="black"/>
<path d="M341.09 30.4277L371.504 32.5545L370.866 41.6787L340.452 39.5519L341.09 30.4277Z" fill="#006600"/>
<path d="M350.642 34.0568L350.971 34.2708L360.925 19.4945C361.446 19.4164 361.766 18.9421 362.086 18.4678C362.3 18.1389 363.152 16.8805 363.594 15.1923C362.637 15.9306 361.806 16.8212 361.137 17.8284C360.817 18.3027 360.498 18.777 360.595 19.2995L350.642 34.0568Z" fill="black" stroke="black" stroke-width="0.190551"/>
<path d="M350.642 34.0568L350.971 34.2708L360.925 19.4945C361.446 19.4164 361.766 18.9421 362.086 18.4678C362.3 18.1389 363.152 16.8805 363.594 15.1923C362.637 15.9306 361.806 16.8212 361.137 17.8284C360.817 18.3027 360.498 18.777 360.595 19.2995L350.642 34.0568Z" fill="white"/>
<path d="M361.521 34.8166L361.166 34.9828L353.365 18.965C352.86 18.815 352.61 18.3008 352.359 17.7867C352.193 17.4312 351.524 16.0665 351.321 14.3331C352.166 15.1975 352.865 16.1949 353.387 17.2855C353.638 17.7997 353.888 18.3139 353.72 18.8178L361.521 34.8166Z" fill="black" stroke="black" stroke-width="0.190551"/>
<path d="M361.521 34.8166L361.166 34.9828L353.365 18.965C352.86 18.815 352.61 18.3008 352.359 17.7867C352.193 17.4312 351.524 16.0665 351.321 14.3331C352.166 15.1975 352.865 16.1949 353.387 17.2855C353.638 17.7997 353.888 18.3139 353.72 18.8178L361.521 34.8166Z" fill="white"/>
<path d="M357.348 16.2813C356.208 16.2015 354.094 19.11 353.418 20.5908L341.834 19.7808L341.196 28.905L352.78 29.715C353.25 31.276 354.938 34.4503 356.078 34.5301C357.219 34.6098 359.332 31.7014 360.009 30.2205L371.61 31.0318L372.248 21.9076L360.641 21.0959C360.177 19.5354 358.489 16.361 357.348 16.2813Z" fill="#BB0000"/>
<path d="M360.003 30.2199C360.692 28.8096 361.122 27.2868 361.272 25.7243C361.341 24.1561 361.127 22.5883 360.641 21.0958C359.952 22.5061 359.522 24.0289 359.371 25.5914C359.303 27.1596 359.517 28.7274 360.003 30.2199Z" fill="black"/>
<path d="M352.786 29.7159C352.299 28.2234 352.086 26.6556 352.154 25.0874C352.305 23.5249 352.735 22.0021 353.424 20.5917C353.91 22.0843 354.124 23.6521 354.055 25.2203C353.905 26.7828 353.475 28.3055 352.786 29.7159Z" fill="black"/>
<path d="M356.63 26.5452C357.05 26.5745 357.426 26.0877 357.47 25.4578C357.514 24.8279 357.21 24.2935 356.79 24.2641C356.37 24.2347 355.994 24.7216 355.95 25.3515C355.905 25.9814 356.21 26.5158 356.63 26.5452Z" fill="white"/>
<path d="M356.823 26.5215C356.823 26.5215 357.477 28.0953 357.304 30.5665C357.132 33.0376 356.265 34.5051 356.265 34.5051L356.823 26.5215Z" fill="white"/>
<path d="M356.597 24.2891C356.597 24.2891 355.943 22.7152 356.116 20.2441C356.289 17.7729 357.155 16.3054 357.155 16.3054L356.597 24.2891Z" fill="white"/>
<path d="M356.443 26.4941C356.443 26.4941 355.576 27.9617 355.403 30.4328C355.231 32.9039 355.885 34.4778 355.885 34.4778L356.443 26.4941Z" fill="white"/>
<path d="M356.978 24.3164C356.978 24.3164 357.844 22.8489 358.017 20.3777C358.19 17.9066 357.536 16.3327 357.536 16.3327L356.978 24.3164Z" fill="white"/>
</g>
</g>
</g>
<defs>
<linearGradient id="paint0_linear_492_11089" x1="205.358" y1="13.3906" x2="205.358" y2="276.159" gradientUnits="userSpaceOnUse">
<stop stop-color="#EAEAEA"/>
<stop offset="0.716346" stop-color="#F5F5F5"/>
</linearGradient>
<clipPath id="clip0_492_11089">
<rect width="392.536" height="254.068" rx="32" fill="white"/>
</clipPath>
<clipPath id="clip1_492_11089">
<path d="M128.502 92.3411C128.502 81.1157 137.602 72.0156 148.828 72.0156C160.053 72.0156 169.153 81.1157 169.153 92.3411C169.153 103.567 160.053 112.667 148.828 112.667C137.602 112.667 128.502 103.567 128.502 92.3411Z" fill="white"/>
</clipPath>
<clipPath id="clip2_492_11089">
<path d="M164.707 96.7884C164.707 85.5629 173.807 76.4629 185.033 76.4629C196.258 76.4629 205.358 85.5629 205.358 96.7884C205.358 108.014 196.258 117.114 185.033 117.114C173.807 117.114 164.707 108.014 164.707 96.7884Z" fill="white"/>
</clipPath>
<clipPath id="clip3_492_11089">
<path d="M197.857 105.577C197.857 94.352 206.957 85.252 218.183 85.252C229.408 85.252 238.508 94.352 238.508 105.577C238.508 116.803 229.408 125.903 218.183 125.903C206.957 125.903 197.857 116.803 197.857 105.577Z" fill="white"/>
</clipPath>
<clipPath id="clip4_492_11089">
<path d="M28.6872 192.067C33.3052 187.761 40.5398 188.013 44.8462 192.631C49.1525 197.249 48.8999 204.484 44.2819 208.79C39.6639 213.096 32.4293 212.844 28.1229 208.226C23.8166 203.608 24.0692 196.373 28.6872 192.067Z" fill="white"/>
</clipPath>
<clipPath id="clip5_492_11089">
<path d="M353.155 226.633C353.155 218.214 359.98 211.389 368.399 211.389C376.818 211.389 383.643 218.214 383.643 226.633C383.643 235.052 376.818 241.877 368.399 241.877C359.98 241.877 353.155 235.052 353.155 226.633Z" fill="white"/>
</clipPath>
<clipPath id="clip6_492_11089">
<path d="M12.0684 26.5078C12.0684 18.0887 18.8934 11.2637 27.3125 11.2637C35.7316 11.2637 42.5566 18.0887 42.5566 26.5078C42.5566 34.9269 35.7316 41.7519 27.3125 41.7519C18.8934 41.7519 12.0684 34.9269 12.0684 26.5078Z" fill="white"/>
</clipPath>
<clipPath id="clip7_492_11089">
<path d="M341.515 24.3437C342.103 15.9451 349.387 9.61281 357.786 10.2001C366.184 10.7874 372.516 18.0719 371.929 26.4704C371.342 34.869 364.057 41.2013 355.659 40.614C347.26 40.0267 340.928 32.7423 341.515 24.3437Z" fill="white"/>
</clipPath>
</defs>
</svg>
